<?xml version="1.0" encoding="UTF-8" standalone="no"?><svg xmlns="http://www.w3.org/2000/svg" xmlns:xlink="http://www.w3.org/1999/xlink" contentScriptType="application/ecmascript" contentStyleType="text/css" height="774px" preserveAspectRatio="none" style="width:1915px;height:774px;background:#FFFFFF;" version="1.1" viewBox="0 0 1915 774" width="1915px" zoomAndPan="magnify"><defs><filter height="300%" id="f128svtg06zs4e" width="300%" x="-1" y="-1"><feGaussianBlur result="blurOut" stdDeviation="2.0"/><feColorMatrix in="blurOut" result="blurOut2" type="matrix" values="0 0 0 0 0 0 0 0 0 0 0 0 0 0 0 0 0 0 .4 0"/><feOffset dx="4.0" dy="4.0" in="blurOut2" result="blurOut3"/><feBlend in="SourceGraphic" in2="blurOut3" mode="normal"/></filter></defs><g><text fill="#000000" font-family="sans-serif" font-size="18" lengthAdjust="spacing" textLength="54" x="924.25" y="16.708">MATH</text><!--MD5=[505baf8ae9f7dd9f16d4de4d729aec84]
class Fundamental--><rect codeLine="21" fill="#FEFECE" filter="url(#f128svtg06zs4e)" height="48" id="Fundamental" style="stroke:#A80036;stroke-width:1.5;" width="114" x="1097" y="89.9531"/><ellipse cx="1112" cy="105.9531" fill="#ADD1B2" rx="11" ry="11" style="stroke:#A80036;stroke-width:1.0;"/><path d="M1114.9688,111.5938 Q1114.3906,111.8906 1113.75,112.0313 Q1113.1094,112.1875 1112.4063,112.1875 Q1109.9063,112.1875 1108.5781,110.5469 Q1107.2656,108.8906 1107.2656,105.7656 Q1107.2656,102.6406 1108.5781,100.9844 Q1109.9063,99.3281 1112.4063,99.3281 Q1113.1094,99.3281 1113.75,99.4844 Q1114.4063,99.6406 1114.9688,99.9375 L1114.9688,102.6563 Q1114.3438,102.0781 1113.75,101.8125 Q1113.1563,101.5313 1112.5313,101.5313 Q1111.1875,101.5313 1110.5,102.6094 Q1109.8125,103.6719 1109.8125,105.7656 Q1109.8125,107.8594 1110.5,108.9375 Q1111.1875,110 1112.5313,110 Q1113.1563,110 1113.75,109.7344 Q1114.3438,109.4531 1114.9688,108.875 L1114.9688,111.5938 Z " fill="#000000"/><text fill="#000000" font-family="sans-serif" font-size="12" lengthAdjust="spacing" textLength="82" x="1126" y="110.1074">Fundamental</text><line style="stroke:#A80036;stroke-width:1.5;" x1="1098" x2="1210" y1="121.9531" y2="121.9531"/><line style="stroke:#A80036;stroke-width:1.5;" x1="1098" x2="1210" y1="129.9531" y2="129.9531"/><!--MD5=[466c1fdb9a52e67913bb0286188009bf]
class Algebra--><rect codeLine="23" fill="#FEFECE" filter="url(#f128svtg06zs4e)" height="73.6094" id="Algebra" style="stroke:#A80036;stroke-width:1.5;" width="166" x="7" y="76.9531"/><ellipse cx="61.75" cy="92.9531" fill="#ADD1B2" rx="11" ry="11" style="stroke:#A80036;stroke-width:1.0;"/><path d="M64.7188,98.5938 Q64.1406,98.8906 63.5,99.0313 Q62.8594,99.1875 62.1563,99.1875 Q59.6563,99.1875 58.3281,97.5469 Q57.0156,95.8906 57.0156,92.7656 Q57.0156,89.6406 58.3281,87.9844 Q59.6563,86.3281 62.1563,86.3281 Q62.8594,86.3281 63.5,86.4844 Q64.1563,86.6406 64.7188,86.9375 L64.7188,89.6563 Q64.0938,89.0781 63.5,88.8125 Q62.9063,88.5313 62.2813,88.5313 Q60.9375,88.5313 60.25,89.6094 Q59.5625,90.6719 59.5625,92.7656 Q59.5625,94.8594 60.25,95.9375 Q60.9375,97 62.2813,97 Q62.9063,97 63.5,96.7344 Q64.0938,96.4531 64.7188,95.875 L64.7188,98.5938 Z " fill="#000000"/><text fill="#000000" font-family="sans-serif" font-size="12" lengthAdjust="spacing" textLength="48" x="82.25" y="97.1074">Algebra</text><line style="stroke:#A80036;stroke-width:1.5;" x1="8" x2="172" y1="108.9531" y2="108.9531"/><text fill="#000000" font-family="sans-serif" font-size="11" lengthAdjust="spacing" textLength="99" x="13" y="123.1636">Matrices Analysis</text><text fill="#000000" font-family="sans-serif" font-size="11" lengthAdjust="spacing" textLength="154" x="13" y="135.9683">Coordinate Transformation</text><line style="stroke:#A80036;stroke-width:1.5;" x1="8" x2="172" y1="142.5625" y2="142.5625"/><!--MD5=[60af2aad9ce041864f8d1b35e2a4d760]
class Calculus--><rect codeLine="29" fill="#FEFECE" filter="url(#f128svtg06zs4e)" height="60.8047" id="Calculus" style="stroke:#A80036;stroke-width:1.5;" width="103" x="273.5" y="83.4531"/><ellipse cx="297.05" cy="99.4531" fill="#ADD1B2" rx="11" ry="11" style="stroke:#A80036;stroke-width:1.0;"/><path d="M300.0188,105.0938 Q299.4406,105.3906 298.8,105.5313 Q298.1594,105.6875 297.4563,105.6875 Q294.9563,105.6875 293.6281,104.0469 Q292.3156,102.3906 292.3156,99.2656 Q292.3156,96.1406 293.6281,94.4844 Q294.9563,92.8281 297.4563,92.8281 Q298.1594,92.8281 298.8,92.9844 Q299.4563,93.1406 300.0188,93.4375 L300.0188,96.1563 Q299.3938,95.5781 298.8,95.3125 Q298.2063,95.0313 297.5813,95.0313 Q296.2375,95.0313 295.55,96.1094 Q294.8625,97.1719 294.8625,99.2656 Q294.8625,101.3594 295.55,102.4375 Q296.2375,103.5 297.5813,103.5 Q298.2063,103.5 298.8,103.2344 Q299.3938,102.9531 300.0188,102.375 L300.0188,105.0938 Z " fill="#000000"/><text fill="#000000" font-family="sans-serif" font-size="12" lengthAdjust="spacing" textLength="52" x="312.95" y="103.6074">Calculus</text><line style="stroke:#A80036;stroke-width:1.5;" x1="274.5" x2="375.5" y1="115.4531" y2="115.4531"/><text fill="#000000" font-family="sans-serif" font-size="11" lengthAdjust="spacing" textLength="91" x="279.5" y="129.6636">Fourier Analysis</text><line style="stroke:#A80036;stroke-width:1.5;" x1="274.5" x2="375.5" y1="136.2578" y2="136.2578"/><!--MD5=[ff2732ed6e132a18d3b8c281acda2558]
class Stochastic--><rect codeLine="33" fill="#FEFECE" filter="url(#f128svtg06zs4e)" height="48" id="Stochastic" style="stroke:#A80036;stroke-width:1.5;" width="98" x="477" y="89.9531"/><ellipse cx="492" cy="105.9531" fill="#ADD1B2" rx="11" ry="11" style="stroke:#A80036;stroke-width:1.0;"/><path d="M494.9688,111.5938 Q494.3906,111.8906 493.75,112.0313 Q493.1094,112.1875 492.4063,112.1875 Q489.9063,112.1875 488.5781,110.5469 Q487.2656,108.8906 487.2656,105.7656 Q487.2656,102.6406 488.5781,100.9844 Q489.9063,99.3281 492.4063,99.3281 Q493.1094,99.3281 493.75,99.4844 Q494.4063,99.6406 494.9688,99.9375 L494.9688,102.6563 Q494.3438,102.0781 493.75,101.8125 Q493.1563,101.5313 492.5313,101.5313 Q491.1875,101.5313 490.5,102.6094 Q489.8125,103.6719 489.8125,105.7656 Q489.8125,107.8594 490.5,108.9375 Q491.1875,110 492.5313,110 Q493.1563,110 493.75,109.7344 Q494.3438,109.4531 494.9688,108.875 L494.9688,111.5938 Z " fill="#000000"/><text fill="#000000" font-family="sans-serif" font-size="12" lengthAdjust="spacing" textLength="66" x="506" y="110.1074">Stochastic</text><line style="stroke:#A80036;stroke-width:1.5;" x1="478" x2="574" y1="121.9531" y2="121.9531"/><line style="stroke:#A80036;stroke-width:1.5;" x1="478" x2="574" y1="129.9531" y2="129.9531"/><!--MD5=[aea992ebbc9db8226961ee379023784e]
class GameTheory--><rect codeLine="34" fill="#FF0000" filter="url(#f128svtg06zs4e)" height="48" id="GameTheory" style="stroke:#A80036;stroke-width:1.5;" width="110" x="675" y="89.9531"/><ellipse cx="690" cy="105.9531" fill="#ADD1B2" rx="11" ry="11" style="stroke:#A80036;stroke-width:1.0;"/><path d="M692.9688,111.5938 Q692.3906,111.8906 691.75,112.0313 Q691.1094,112.1875 690.4063,112.1875 Q687.9063,112.1875 686.5781,110.5469 Q685.2656,108.8906 685.2656,105.7656 Q685.2656,102.6406 686.5781,100.9844 Q687.9063,99.3281 690.4063,99.3281 Q691.1094,99.3281 691.75,99.4844 Q692.4063,99.6406 692.9688,99.9375 L692.9688,102.6563 Q692.3438,102.0781 691.75,101.8125 Q691.1563,101.5313 690.5313,101.5313 Q689.1875,101.5313 688.5,102.6094 Q687.8125,103.6719 687.8125,105.7656 Q687.8125,107.8594 688.5,108.9375 Q689.1875,110 690.5313,110 Q691.1563,110 691.75,109.7344 Q692.3438,109.4531 692.9688,108.875 L692.9688,111.5938 Z " fill="#000000"/><text fill="#000000" font-family="sans-serif" font-size="12" lengthAdjust="spacing" textLength="78" x="704" y="110.1074">GameTheory</text><line style="stroke:#A80036;stroke-width:1.5;" x1="676" x2="784" y1="121.9531" y2="121.9531"/><line style="stroke:#A80036;stroke-width:1.5;" x1="676" x2="784" y1="129.9531" y2="129.9531"/><!--MD5=[56c058b05542a1e3acb7799ca7ce4ab9]
class GraphTheory--><rect codeLine="35" fill="#FF0000" filter="url(#f128svtg06zs4e)" height="48" id="GraphTheory" style="stroke:#A80036;stroke-width:1.5;" width="112" x="885" y="89.9531"/><ellipse cx="900" cy="105.9531" fill="#ADD1B2" rx="11" ry="11" style="stroke:#A80036;stroke-width:1.0;"/><path d="M902.9688,111.5938 Q902.3906,111.8906 901.75,112.0313 Q901.1094,112.1875 900.4063,112.1875 Q897.9063,112.1875 896.5781,110.5469 Q895.2656,108.8906 895.2656,105.7656 Q895.2656,102.6406 896.5781,100.9844 Q897.9063,99.3281 900.4063,99.3281 Q901.1094,99.3281 901.75,99.4844 Q902.4063,99.6406 902.9688,99.9375 L902.9688,102.6563 Q902.3438,102.0781 901.75,101.8125 Q901.1563,101.5313 900.5313,101.5313 Q899.1875,101.5313 898.5,102.6094 Q897.8125,103.6719 897.8125,105.7656 Q897.8125,107.8594 898.5,108.9375 Q899.1875,110 900.5313,110 Q901.1563,110 901.75,109.7344 Q902.3438,109.4531 902.9688,108.875 L902.9688,111.5938 Z " fill="#000000"/><text fill="#000000" font-family="sans-serif" font-size="12" lengthAdjust="spacing" textLength="80" x="914" y="110.1074">GraphTheory</text><line style="stroke:#A80036;stroke-width:1.5;" x1="886" x2="996" y1="121.9531" y2="121.9531"/><line style="stroke:#A80036;stroke-width:1.5;" x1="886" x2="996" y1="129.9531" y2="129.9531"/><!--MD5=[d33d14762bbd2308f4a7d9b7d8815839]
class Tools--><rect codeLine="45" fill="#FEFECE" filter="url(#f128svtg06zs4e)" height="48" id="Tools" style="stroke:#A80036;stroke-width:1.5;" width="65" x="1213.5" y="269.9531"/><ellipse cx="1228.5" cy="285.9531" fill="#ADD1B2" rx="11" ry="11" style="stroke:#A80036;stroke-width:1.0;"/><path d="M1231.4688,291.5938 Q1230.8906,291.8906 1230.25,292.0313 Q1229.6094,292.1875 1228.9063,292.1875 Q1226.4063,292.1875 1225.0781,290.5469 Q1223.7656,288.8906 1223.7656,285.7656 Q1223.7656,282.6406 1225.0781,280.9844 Q1226.4063,279.3281 1228.9063,279.3281 Q1229.6094,279.3281 1230.25,279.4844 Q1230.9063,279.6406 1231.4688,279.9375 L1231.4688,282.6563 Q1230.8438,282.0781 1230.25,281.8125 Q1229.6563,281.5313 1229.0313,281.5313 Q1227.6875,281.5313 1227,282.6094 Q1226.3125,283.6719 1226.3125,285.7656 Q1226.3125,287.8594 1227,288.9375 Q1227.6875,290 1229.0313,290 Q1229.6563,290 1230.25,289.7344 Q1230.8438,289.4531 1231.4688,288.875 L1231.4688,291.5938 Z " fill="#000000"/><text fill="#000000" font-family="sans-serif" font-size="12" lengthAdjust="spacing" textLength="33" x="1242.5" y="290.1074">Tools</text><line style="stroke:#A80036;stroke-width:1.5;" x1="1214.5" x2="1277.5" y1="301.9531" y2="301.9531"/><line style="stroke:#A80036;stroke-width:1.5;" x1="1214.5" x2="1277.5" y1="309.9531" y2="309.9531"/><!--MD5=[f1926c784da000dbf2f9e262c4c094a8]
class Numeric--><rect codeLine="48" fill="#FEFECE" filter="url(#f128svtg06zs4e)" height="86.4141" id="Numeric" style="stroke:#A80036;stroke-width:1.5;" width="83" x="1818.5" y="250.9531"/><ellipse cx="1833.5" cy="266.9531" fill="#ADD1B2" rx="11" ry="11" style="stroke:#A80036;stroke-width:1.0;"/><path d="M1836.4688,272.5938 Q1835.8906,272.8906 1835.25,273.0313 Q1834.6094,273.1875 1833.9063,273.1875 Q1831.4063,273.1875 1830.0781,271.5469 Q1828.7656,269.8906 1828.7656,266.7656 Q1828.7656,263.6406 1830.0781,261.9844 Q1831.4063,260.3281 1833.9063,260.3281 Q1834.6094,260.3281 1835.25,260.4844 Q1835.9063,260.6406 1836.4688,260.9375 L1836.4688,263.6563 Q1835.8438,263.0781 1835.25,262.8125 Q1834.6563,262.5313 1834.0313,262.5313 Q1832.6875,262.5313 1832,263.6094 Q1831.3125,264.6719 1831.3125,266.7656 Q1831.3125,268.8594 1832,269.9375 Q1832.6875,271 1834.0313,271 Q1834.6563,271 1835.25,270.7344 Q1835.8438,270.4531 1836.4688,269.875 L1836.4688,272.5938 Z " fill="#000000"/><text fill="#000000" font-family="sans-serif" font-size="12" lengthAdjust="spacing" textLength="51" x="1847.5" y="271.1074">Numeric</text><line style="stroke:#A80036;stroke-width:1.5;" x1="1819.5" x2="1900.5" y1="282.9531" y2="282.9531"/><text fill="#000000" font-family="sans-serif" font-size="11" lengthAdjust="spacing" textLength="71" x="1824.5" y="297.1636">Interpolation</text><text fill="#000000" font-family="sans-serif" font-size="11" lengthAdjust="spacing" textLength="67" x="1824.5" y="309.9683">Extraplation</text><text fill="#000000" font-family="sans-serif" font-size="11" lengthAdjust="spacing" textLength="71" x="1824.5" y="322.7729">ODE Solvers</text><line style="stroke:#A80036;stroke-width:1.5;" x1="1819.5" x2="1900.5" y1="329.3672" y2="329.3672"/><!--MD5=[2682d2f3cc19b21379d0275abf1955af]
class Computation--><rect codeLine="54" fill="#FEFECE" filter="url(#f128svtg06zs4e)" height="73.6094" id="Computation" style="stroke:#A80036;stroke-width:1.5;" width="112" x="1606" y="256.9531"/><ellipse cx="1621" cy="272.9531" fill="#ADD1B2" rx="11" ry="11" style="stroke:#A80036;stroke-width:1.0;"/><path d="M1623.9688,278.5938 Q1623.3906,278.8906 1622.75,279.0313 Q1622.1094,279.1875 1621.4063,279.1875 Q1618.9063,279.1875 1617.5781,277.5469 Q1616.2656,275.8906 1616.2656,272.7656 Q1616.2656,269.6406 1617.5781,267.9844 Q1618.9063,266.3281 1621.4063,266.3281 Q1622.1094,266.3281 1622.75,266.4844 Q1623.4063,266.6406 1623.9688,266.9375 L1623.9688,269.6563 Q1623.3438,269.0781 1622.75,268.8125 Q1622.1563,268.5313 1621.5313,268.5313 Q1620.1875,268.5313 1619.5,269.6094 Q1618.8125,270.6719 1618.8125,272.7656 Q1618.8125,274.8594 1619.5,275.9375 Q1620.1875,277 1621.5313,277 Q1622.1563,277 1622.75,276.7344 Q1623.3438,276.4531 1623.9688,275.875 L1623.9688,278.5938 Z " fill="#000000"/><text fill="#000000" font-family="sans-serif" font-size="12" lengthAdjust="spacing" textLength="80" x="1635" y="277.1074">Computation</text><line style="stroke:#A80036;stroke-width:1.5;" x1="1607" x2="1717" y1="288.9531" y2="288.9531"/><text fill="#000000" font-family="sans-serif" font-size="11" lengthAdjust="spacing" textLength="61" x="1612" y="303.1636">Algorithms</text><text fill="#000000" font-family="sans-serif" font-size="11" lengthAdjust="spacing" textLength="99" x="1612" y="315.9683">Machine Learning</text><line style="stroke:#A80036;stroke-width:1.5;" x1="1607" x2="1717" y1="322.5625" y2="322.5625"/><!--MD5=[b2c11f6a0032866147791a425f4c421c]
class Optimization--><rect codeLine="59" fill="#FEFECE" filter="url(#f128svtg06zs4e)" height="60.8047" id="Optimization" style="stroke:#A80036;stroke-width:1.5;" width="127" x="1378.5" y="263.4531"/><ellipse cx="1402.05" cy="279.4531" fill="#ADD1B2" rx="11" ry="11" style="stroke:#A80036;stroke-width:1.0;"/><path d="M1405.0188,285.0938 Q1404.4406,285.3906 1403.8,285.5313 Q1403.1594,285.6875 1402.4563,285.6875 Q1399.9563,285.6875 1398.6281,284.0469 Q1397.3156,282.3906 1397.3156,279.2656 Q1397.3156,276.1406 1398.6281,274.4844 Q1399.9563,272.8281 1402.4563,272.8281 Q1403.1594,272.8281 1403.8,272.9844 Q1404.4563,273.1406 1405.0188,273.4375 L1405.0188,276.1563 Q1404.3938,275.5781 1403.8,275.3125 Q1403.2063,275.0313 1402.5813,275.0313 Q1401.2375,275.0313 1400.55,276.1094 Q1399.8625,277.1719 1399.8625,279.2656 Q1399.8625,281.3594 1400.55,282.4375 Q1401.2375,283.5 1402.5813,283.5 Q1403.2063,283.5 1403.8,283.2344 Q1404.3938,282.9531 1405.0188,282.375 L1405.0188,285.0938 Z " fill="#000000"/><text fill="#000000" font-family="sans-serif" font-size="12" lengthAdjust="spacing" textLength="76" x="1417.95" y="283.6074">Optimization</text><line style="stroke:#A80036;stroke-width:1.5;" x1="1379.5" x2="1504.5" y1="295.4531" y2="295.4531"/><text fill="#000000" font-family="sans-serif" font-size="11" lengthAdjust="spacing" textLength="115" x="1384.5" y="309.6636">Convex Optimization</text><line style="stroke:#A80036;stroke-width:1.5;" x1="1379.5" x2="1504.5" y1="316.2578" y2="316.2578"/><!--MD5=[86e2a462413deff4a4ffae546ac0ccfd]
class AppliedMathemmatics--><rect codeLine="69" fill="#FEFECE" filter="url(#f128svtg06zs4e)" height="48" id="AppliedMathemmatics" style="stroke:#A80036;stroke-width:1.5;" width="169" x="1069.5" y="487.9531"/><ellipse cx="1084.5" cy="503.9531" fill="#ADD1B2" rx="11" ry="11" style="stroke:#A80036;stroke-width:1.0;"/><path d="M1087.4688,509.5938 Q1086.8906,509.8906 1086.25,510.0313 Q1085.6094,510.1875 1084.9063,510.1875 Q1082.4063,510.1875 1081.0781,508.5469 Q1079.7656,506.8906 1079.7656,503.7656 Q1079.7656,500.6406 1081.0781,498.9844 Q1082.4063,497.3281 1084.9063,497.3281 Q1085.6094,497.3281 1086.25,497.4844 Q1086.9063,497.6406 1087.4688,497.9375 L1087.4688,500.6563 Q1086.8438,500.0781 1086.25,499.8125 Q1085.6563,499.5313 1085.0313,499.5313 Q1083.6875,499.5313 1083,500.6094 Q1082.3125,501.6719 1082.3125,503.7656 Q1082.3125,505.8594 1083,506.9375 Q1083.6875,508 1085.0313,508 Q1085.6563,508 1086.25,507.7344 Q1086.8438,507.4531 1087.4688,506.875 L1087.4688,509.5938 Z " fill="#000000"/><text fill="#000000" font-family="sans-serif" font-size="12" lengthAdjust="spacing" textLength="137" x="1098.5" y="508.1074">AppliedMathemmatics</text><line style="stroke:#A80036;stroke-width:1.5;" x1="1070.5" x2="1237.5" y1="519.9531" y2="519.9531"/><line style="stroke:#A80036;stroke-width:1.5;" x1="1070.5" x2="1237.5" y1="527.9531" y2="527.9531"/><!--MD5=[05d04b564e9d963c5556604ff8f07e7e]
class Analysis--><rect codeLine="73" fill="#FEFECE" filter="url(#f128svtg06zs4e)" height="48" id="Analysis" style="stroke:#A80036;stroke-width:1.5;" width="82" x="887" y="487.9531"/><ellipse cx="902" cy="503.9531" fill="#ADD1B2" rx="11" ry="11" style="stroke:#A80036;stroke-width:1.0;"/><path d="M904.9688,509.5938 Q904.3906,509.8906 903.75,510.0313 Q903.1094,510.1875 902.4063,510.1875 Q899.9063,510.1875 898.5781,508.5469 Q897.2656,506.8906 897.2656,503.7656 Q897.2656,500.6406 898.5781,498.9844 Q899.9063,497.3281 902.4063,497.3281 Q903.1094,497.3281 903.75,497.4844 Q904.4063,497.6406 904.9688,497.9375 L904.9688,500.6563 Q904.3438,500.0781 903.75,499.8125 Q903.1563,499.5313 902.5313,499.5313 Q901.1875,499.5313 900.5,500.6094 Q899.8125,501.6719 899.8125,503.7656 Q899.8125,505.8594 900.5,506.9375 Q901.1875,508 902.5313,508 Q903.1563,508 903.75,507.7344 Q904.3438,507.4531 904.9688,506.875 L904.9688,509.5938 Z " fill="#000000"/><text fill="#000000" font-family="sans-serif" font-size="12" lengthAdjust="spacing" textLength="50" x="916" y="508.1074">Analysis</text><line style="stroke:#A80036;stroke-width:1.5;" x1="888" x2="968" y1="519.9531" y2="519.9531"/><line style="stroke:#A80036;stroke-width:1.5;" x1="888" x2="968" y1="527.9531" y2="527.9531"/><!--MD5=[3a41af46a725635d94a2edc041986a61]
class ControlTheory--><rect codeLine="74" fill="#FEFECE" filter="url(#f128svtg06zs4e)" height="150.4375" id="ControlTheory" style="stroke:#A80036;stroke-width:1.5;" width="187" x="599.5" y="436.9531"/><ellipse cx="645.25" cy="452.9531" fill="#ADD1B2" rx="11" ry="11" style="stroke:#A80036;stroke-width:1.0;"/><path d="M648.2188,458.5938 Q647.6406,458.8906 647,459.0313 Q646.3594,459.1875 645.6563,459.1875 Q643.1563,459.1875 641.8281,457.5469 Q640.5156,455.8906 640.5156,452.7656 Q640.5156,449.6406 641.8281,447.9844 Q643.1563,446.3281 645.6563,446.3281 Q646.3594,446.3281 647,446.4844 Q647.6563,446.6406 648.2188,446.9375 L648.2188,449.6563 Q647.5938,449.0781 647,448.8125 Q646.4063,448.5313 645.7813,448.5313 Q644.4375,448.5313 643.75,449.6094 Q643.0625,450.6719 643.0625,452.7656 Q643.0625,454.8594 643.75,455.9375 Q644.4375,457 645.7813,457 Q646.4063,457 647,456.7344 Q647.5938,456.4531 648.2188,455.875 L648.2188,458.5938 Z " fill="#000000"/><text fill="#000000" font-family="sans-serif" font-size="12" lengthAdjust="spacing" textLength="87" x="665.75" y="457.1074">ControlTheory</text><line style="stroke:#A80036;stroke-width:1.5;" x1="600.5" x2="785.5" y1="468.9531" y2="468.9531"/><text fill="#000000" font-family="sans-serif" font-size="11" lengthAdjust="spacing" textLength="80" x="619.5" y="483.1636">Linear Control</text><text fill="#000000" font-family="sans-serif" font-size="11" lengthAdjust="spacing" textLength="103" x="619.5" y="495.9683">Non-linear Control</text><text fill="#000000" font-family="sans-serif" font-size="11" lengthAdjust="spacing" textLength="117" x="619.5" y="508.7729">Model-based Control</text><text fill="#000000" font-family="sans-serif" font-size="11" lengthAdjust="spacing" textLength="161" x="619.5" y="521.5776">Information-oriented Control</text><text fill="#000000" font-family="sans-serif" font-size="11" lengthAdjust="spacing" textLength="109" x="619.5" y="534.3823">Multi-Agent System</text><text fill="#000000" font-family="sans-serif" font-size="11" lengthAdjust="spacing" textLength="0" x="623.5" y="547.187"/><rect fill="none" height="6" style="stroke:#C82930;stroke-width:1.0;" width="6" x="607.5" y="553.7813"/><text fill="#000000" font-family="sans-serif" font-size="11" lengthAdjust="spacing" textLength="93" x="619.5" y="559.9917">Adaptive Control</text><rect fill="none" height="6" style="stroke:#C82930;stroke-width:1.0;" width="6" x="607.5" y="566.5859"/><text fill="#000000" font-family="sans-serif" font-size="11" lengthAdjust="spacing" textLength="84" x="619.5" y="572.7964">Robust Control</text><line style="stroke:#A80036;stroke-width:1.5;" x1="600.5" x2="785.5" y1="579.3906" y2="579.3906"/><!--MD5=[51ceacb621bd9b06049943d20640212e]
class SignalProcessing--><rect codeLine="84" fill="#FEFECE" filter="url(#f128svtg06zs4e)" height="86.4141" id="SignalProcessing" style="stroke:#A80036;stroke-width:1.5;" width="139" x="360.5" y="468.9531"/><ellipse cx="375.5" cy="484.9531" fill="#ADD1B2" rx="11" ry="11" style="stroke:#A80036;stroke-width:1.0;"/><path d="M378.4688,490.5938 Q377.8906,490.8906 377.25,491.0313 Q376.6094,491.1875 375.9063,491.1875 Q373.4063,491.1875 372.0781,489.5469 Q370.7656,487.8906 370.7656,484.7656 Q370.7656,481.6406 372.0781,479.9844 Q373.4063,478.3281 375.9063,478.3281 Q376.6094,478.3281 377.25,478.4844 Q377.9063,478.6406 378.4688,478.9375 L378.4688,481.6563 Q377.8438,481.0781 377.25,480.8125 Q376.6563,480.5313 376.0313,480.5313 Q374.6875,480.5313 374,481.6094 Q373.3125,482.6719 373.3125,484.7656 Q373.3125,486.8594 374,487.9375 Q374.6875,489 376.0313,489 Q376.6563,489 377.25,488.7344 Q377.8438,488.4531 378.4688,487.875 L378.4688,490.5938 Z " fill="#000000"/><text fill="#000000" font-family="sans-serif" font-size="12" lengthAdjust="spacing" textLength="107" x="389.5" y="489.1074">SignalProcessing</text><line style="stroke:#A80036;stroke-width:1.5;" x1="361.5" x2="498.5" y1="500.9531" y2="500.9531"/><text fill="#000000" font-family="sans-serif" font-size="11" lengthAdjust="spacing" textLength="70" x="366.5" y="515.1636">FFT Analysis</text><text fill="#000000" font-family="sans-serif" font-size="11" lengthAdjust="spacing" textLength="63" x="366.5" y="527.9683">Correlation</text><text fill="#000000" font-family="sans-serif" font-size="11" lengthAdjust="spacing" textLength="45" x="366.5" y="540.7729">Filtering</text><line style="stroke:#A80036;stroke-width:1.5;" x1="361.5" x2="498.5" y1="547.3672" y2="547.3672"/><!--MD5=[3cd9ff8a5de2d2ca03794d669fe578de]
class MicrowavesEngineering--><rect codeLine="90" fill="#FEFECE" filter="url(#f128svtg06zs4e)" height="60.8047" id="MicrowavesEngineering" style="stroke:#A80036;stroke-width:1.5;" width="178" x="82" y="481.4531"/><ellipse cx="97" cy="497.4531" fill="#ADD1B2" rx="11" ry="11" style="stroke:#A80036;stroke-width:1.0;"/><path d="M99.9688,503.0938 Q99.3906,503.3906 98.75,503.5313 Q98.1094,503.6875 97.4063,503.6875 Q94.9063,503.6875 93.5781,502.0469 Q92.2656,500.3906 92.2656,497.2656 Q92.2656,494.1406 93.5781,492.4844 Q94.9063,490.8281 97.4063,490.8281 Q98.1094,490.8281 98.75,490.9844 Q99.4063,491.1406 99.9688,491.4375 L99.9688,494.1563 Q99.3438,493.5781 98.75,493.3125 Q98.1563,493.0313 97.5313,493.0313 Q96.1875,493.0313 95.5,494.1094 Q94.8125,495.1719 94.8125,497.2656 Q94.8125,499.3594 95.5,500.4375 Q96.1875,501.5 97.5313,501.5 Q98.1563,501.5 98.75,501.2344 Q99.3438,500.9531 99.9688,500.375 L99.9688,503.0938 Z " fill="#000000"/><text fill="#000000" font-family="sans-serif" font-size="12" lengthAdjust="spacing" textLength="146" x="111" y="501.6074">MicrowavesEngineering</text><line style="stroke:#A80036;stroke-width:1.5;" x1="83" x2="259" y1="513.4531" y2="513.4531"/><text fill="#000000" font-family="sans-serif" font-size="11" lengthAdjust="spacing" textLength="87" x="88" y="527.6636">Circuit Analysis</text><line style="stroke:#A80036;stroke-width:1.5;" x1="83" x2="259" y1="534.2578" y2="534.2578"/><!--MD5=[25190ce788ebf600d65354ff81930674]
class Applications--><rect codeLine="102" fill="#FEFECE" filter="url(#f128svtg06zs4e)" height="48" id="Applications" style="stroke:#A80036;stroke-width:1.5;" width="108" x="820" y="699.9531"/><ellipse cx="835" cy="715.9531" fill="#ADD1B2" rx="11" ry="11" style="stroke:#A80036;stroke-width:1.0;"/><path d="M837.9688,721.5938 Q837.3906,721.8906 836.75,722.0313 Q836.1094,722.1875 835.4063,722.1875 Q832.9063,722.1875 831.5781,720.5469 Q830.2656,718.8906 830.2656,715.7656 Q830.2656,712.6406 831.5781,710.9844 Q832.9063,709.3281 835.4063,709.3281 Q836.1094,709.3281 836.75,709.4844 Q837.4063,709.6406 837.9688,709.9375 L837.9688,712.6563 Q837.3438,712.0781 836.75,711.8125 Q836.1563,711.5313 835.5313,711.5313 Q834.1875,711.5313 833.5,712.6094 Q832.8125,713.6719 832.8125,715.7656 Q832.8125,717.8594 833.5,718.9375 Q834.1875,720 835.5313,720 Q836.1563,720 836.75,719.7344 Q837.3438,719.4531 837.9688,718.875 L837.9688,721.5938 Z " fill="#000000"/><text fill="#000000" font-family="sans-serif" font-size="12" lengthAdjust="spacing" textLength="76" x="849" y="720.1074">Applications</text><line style="stroke:#A80036;stroke-width:1.5;" x1="821" x2="927" y1="731.9531" y2="731.9531"/><line style="stroke:#A80036;stroke-width:1.5;" x1="821" x2="927" y1="739.9531" y2="739.9531"/><!--MD5=[8898626fc188de575ed74700566e547f]
class RadarProcessing--><rect codeLine="105" fill="#FEFECE" filter="url(#f128svtg06zs4e)" height="73.6094" id="RadarProcessing" style="stroke:#A80036;stroke-width:1.5;" width="138" x="113" y="686.9531"/><ellipse cx="128" cy="702.9531" fill="#ADD1B2" rx="11" ry="11" style="stroke:#A80036;stroke-width:1.0;"/><path d="M130.9688,708.5938 Q130.3906,708.8906 129.75,709.0313 Q129.1094,709.1875 128.4063,709.1875 Q125.9063,709.1875 124.5781,707.5469 Q123.2656,705.8906 123.2656,702.7656 Q123.2656,699.6406 124.5781,697.9844 Q125.9063,696.3281 128.4063,696.3281 Q129.1094,696.3281 129.75,696.4844 Q130.4063,696.6406 130.9688,696.9375 L130.9688,699.6563 Q130.3438,699.0781 129.75,698.8125 Q129.1563,698.5313 128.5313,698.5313 Q127.1875,698.5313 126.5,699.6094 Q125.8125,700.6719 125.8125,702.7656 Q125.8125,704.8594 126.5,705.9375 Q127.1875,707 128.5313,707 Q129.1563,707 129.75,706.7344 Q130.3438,706.4531 130.9688,705.875 L130.9688,708.5938 Z " fill="#000000"/><text fill="#000000" font-family="sans-serif" font-size="12" lengthAdjust="spacing" textLength="106" x="142" y="707.1074">RadarProcessing</text><line style="stroke:#A80036;stroke-width:1.5;" x1="114" x2="250" y1="718.9531" y2="718.9531"/><text fill="#000000" font-family="sans-serif" font-size="11" lengthAdjust="spacing" textLength="53" x="119" y="733.1636">Detection</text><text fill="#000000" font-family="sans-serif" font-size="11" lengthAdjust="spacing" textLength="48" x="119" y="745.9683">Tracking</text><line style="stroke:#A80036;stroke-width:1.5;" x1="114" x2="250" y1="752.5625" y2="752.5625"/><!--MD5=[cf6e0a6b8083ba72f4a55905082c92ea]
class Navigation--><rect codeLine="113" fill="#FEFECE" filter="url(#f128svtg06zs4e)" height="60.8047" id="Navigation" style="stroke:#A80036;stroke-width:1.5;" width="135" x="362.5" y="693.4531"/><ellipse cx="394.15" cy="709.4531" fill="#ADD1B2" rx="11" ry="11" style="stroke:#A80036;stroke-width:1.0;"/><path d="M397.1188,715.0938 Q396.5406,715.3906 395.9,715.5313 Q395.2594,715.6875 394.5563,715.6875 Q392.0563,715.6875 390.7281,714.0469 Q389.4156,712.3906 389.4156,709.2656 Q389.4156,706.1406 390.7281,704.4844 Q392.0563,702.8281 394.5563,702.8281 Q395.2594,702.8281 395.9,702.9844 Q396.5563,703.1406 397.1188,703.4375 L397.1188,706.1563 Q396.4938,705.5781 395.9,705.3125 Q395.3063,705.0313 394.6813,705.0313 Q393.3375,705.0313 392.65,706.1094 Q391.9625,707.1719 391.9625,709.2656 Q391.9625,711.3594 392.65,712.4375 Q393.3375,713.5 394.6813,713.5 Q395.3063,713.5 395.9,713.2344 Q396.4938,712.9531 397.1188,712.375 L397.1188,715.0938 Z " fill="#000000"/><text fill="#000000" font-family="sans-serif" font-size="12" lengthAdjust="spacing" textLength="66" x="411.85" y="713.6074">Navigation</text><line style="stroke:#A80036;stroke-width:1.5;" x1="363.5" x2="496.5" y1="725.4531" y2="725.4531"/><rect fill="none" height="6" style="stroke:#C82930;stroke-width:1.0;" width="6" x="370.5" y="733.4531"/><text fill="#000000" font-family="sans-serif" font-size="11" lengthAdjust="spacing" textLength="109" x="382.5" y="739.6636">Trajectory Planning</text><line style="stroke:#A80036;stroke-width:1.5;" x1="363.5" x2="496.5" y1="746.2578" y2="746.2578"/><!--MD5=[e3c8135c61a31cc613a3edfe22797c41]
class SystemControl--><rect codeLine="119" fill="#FEFECE" filter="url(#f128svtg06zs4e)" height="48" id="SystemControl" style="stroke:#A80036;stroke-width:1.5;" width="122" x="598" y="699.9531"/><ellipse cx="613" cy="715.9531" fill="#ADD1B2" rx="11" ry="11" style="stroke:#A80036;stroke-width:1.0;"/><path d="M615.9688,721.5938 Q615.3906,721.8906 614.75,722.0313 Q614.1094,722.1875 613.4063,722.1875 Q610.9063,722.1875 609.5781,720.5469 Q608.2656,718.8906 608.2656,715.7656 Q608.2656,712.6406 609.5781,710.9844 Q610.9063,709.3281 613.4063,709.3281 Q614.1094,709.3281 614.75,709.4844 Q615.4063,709.6406 615.9688,709.9375 L615.9688,712.6563 Q615.3438,712.0781 614.75,711.8125 Q614.1563,711.5313 613.5313,711.5313 Q612.1875,711.5313 611.5,712.6094 Q610.8125,713.6719 610.8125,715.7656 Q610.8125,717.8594 611.5,718.9375 Q612.1875,720 613.5313,720 Q614.1563,720 614.75,719.7344 Q615.3438,719.4531 615.9688,718.875 L615.9688,721.5938 Z " fill="#000000"/><text fill="#000000" font-family="sans-serif" font-size="12" lengthAdjust="spacing" textLength="90" x="627" y="720.1074">SystemControl</text><line style="stroke:#A80036;stroke-width:1.5;" x1="599" x2="719" y1="731.9531" y2="731.9531"/><line style="stroke:#A80036;stroke-width:1.5;" x1="599" x2="719" y1="739.9531" y2="739.9531"/><!--MD5=[b4f3d70be1cf1825cd77329a4fdc5824]
link Algebra to Fundamental--><path codeLine="37" d="M167.87,76.9331 C217.68,53.2531 273,26.9531 273,26.9531 C273,26.9531 997,26.9531 997,26.9531 C997,26.9531 1048.92,55.7231 1093.05,80.1731 " fill="none" id="Algebra-to-Fundamental" style="stroke:#A80036;stroke-width:1.0;"/><polygon fill="none" points="1096.58,74.1331,1110.68,89.9531,1089.8,86.3831,1096.58,74.1331" style="stroke:#A80036;stroke-width:1.0;"/><!--MD5=[da21d479521d8bc4a0dc03d20128e21a]
link Calculus to Fundamental--><path codeLine="38" d="M376.88,84.2531 C420.92,59.0531 477,26.9531 477,26.9531 C477,26.9531 997,26.9531 997,26.9531 C997,26.9531 1048.92,55.7231 1093.05,80.1731 " fill="none" id="Calculus-to-Fundamental" style="stroke:#A80036;stroke-width:1.0;"/><polygon fill="none" points="1096.58,74.1331,1110.68,89.9531,1089.8,86.3831,1096.58,74.1331" style="stroke:#A80036;stroke-width:1.0;"/><!--MD5=[673735642808be0390ef469f3d7c15ed]
link Stochastic to Fundamental--><path codeLine="39" d="M567.11,89.9531 C611.21,64.2031 675,26.9531 675,26.9531 C675,26.9531 997,26.9531 997,26.9531 C997,26.9531 1048.92,55.7231 1093.05,80.1731 " fill="none" id="Stochastic-to-Fundamental" style="stroke:#A80036;stroke-width:1.0;"/><polygon fill="none" points="1096.58,74.1331,1110.68,89.9531,1089.8,86.3831,1096.58,74.1331" style="stroke:#A80036;stroke-width:1.0;"/><!--MD5=[2ac78da426a4f46f42ff597d3b99c965]
link GameTheory to Fundamental--><path codeLine="40" d="M772.76,89.9531 C818.64,64.2031 885,26.9531 885,26.9531 C885,26.9531 997,26.9531 997,26.9531 C997,26.9531 1048.92,55.7231 1093.05,80.1731 " fill="none" id="GameTheory-to-Fundamental" style="stroke:#A80036;stroke-width:1.0;"/><polygon fill="none" points="1096.58,74.1331,1110.68,89.9531,1089.8,86.3831,1096.58,74.1331" style="stroke:#A80036;stroke-width:1.0;"/><!--MD5=[35ee6868837c965d5a239508431fe730]
link GraphTheory to Fundamental--><path codeLine="41" d="M997.29,113.9531 C1005.91,113.9531 1012,113.9531 1012,113.9531 C1012,113.9531 1050.7,113.9531 1076.46,113.9531 " fill="none" id="GraphTheory-to-Fundamental" style="stroke:#A80036;stroke-width:1.0;"/><polygon fill="none" points="1076.69,106.9531,1096.69,113.9531,1076.69,120.9531,1076.69,106.9531" style="stroke:#A80036;stroke-width:1.0;"/><!--MD5=[5c72bd6a6dc36dea1fd312b7c7003909]
reverse link Fundamental to Tools--><path codeLine="46" d="M1175.28,156.1231 C1193.5,191.3831 1219.09,240.8931 1233.97,269.6731 " fill="none" id="Fundamental-backto-Tools" style="stroke:#A80036;stroke-width:1.0;"/><polygon fill="none" points="1168.99,159.2031,1166.03,138.2231,1181.43,152.7731,1168.99,159.2031" style="stroke:#A80036;stroke-width:1.0;"/><!--MD5=[a4309641832e932a30d739b80ed5060c]
reverse link Tools to Numeric--><path codeLine="63" d="M1295.18,259.5631 C1333.06,233.0731 1379,200.9531 1379,200.9531 C1379,200.9531 1718,200.9531 1718,200.9531 C1718,200.9531 1776.28,239.1231 1818.16,266.5531 " fill="none" id="Tools-backto-Numeric" style="stroke:#A80036;stroke-width:1.0;"/><polygon fill="none" points="1298.94,265.4831,1278.54,271.2031,1290.91,254.0031,1298.94,265.4831" style="stroke:#A80036;stroke-width:1.0;"/><!--MD5=[86e1966fcf9c9236ab9c05319324ccaa]
reverse link Tools to Computation--><path codeLine="64" d="M1295.18,259.5631 C1333.06,233.0731 1379,200.9531 1379,200.9531 C1379,200.9531 1506,200.9531 1506,200.9531 C1506,200.9531 1561,233.7431 1605.68,260.3731 " fill="none" id="Tools-backto-Computation" style="stroke:#A80036;stroke-width:1.0;"/><polygon fill="none" points="1298.94,265.4831,1278.54,271.2031,1290.91,254.0031,1298.94,265.4831" style="stroke:#A80036;stroke-width:1.0;"/><!--MD5=[68ea09d1b5619768fcca53df8832e803]
reverse link Tools to Optimization--><path codeLine="65" d="M1298.74,293.9531 C1306.17,293.9531 1311.33,293.9531 1311.33,293.9531 C1311.33,293.9531 1376.67,293.9531 1376.67,293.9531 C1376.67,293.9531 1377.24,293.9531 1378.28,293.9531 " fill="none" id="Tools-backto-Optimization" style="stroke:#A80036;stroke-width:1.0;"/><polygon fill="none" points="1298.67,300.9531,1278.67,293.9531,1298.67,286.9531,1298.67,300.9531" style="stroke:#A80036;stroke-width:1.0;"/><!--MD5=[815a663ea995ca112ba531d57368769c]
reverse link Fundamental to AppliedMathemmatics--><path codeLine="70" d="M1154,158.1131 C1154,241.8231 1154,423.6331 1154,487.8831 " fill="none" id="Fundamental-backto-AppliedMathemmatics" style="stroke:#A80036;stroke-width:1.0;"/><polygon fill="none" points="1147,157.9531,1154,137.9531,1161,157.9531,1147,157.9531" style="stroke:#A80036;stroke-width:1.0;"/><!--MD5=[87bbb30f9c901e872fc903c1b33fc544]
reverse link Tools to AppliedMathemmatics--><path codeLine="71" d="M1228.19,336.7631 C1209.04,381.7331 1179.27,451.6231 1163.91,487.6731 " fill="none" id="Tools-backto-AppliedMathemmatics" style="stroke:#A80036;stroke-width:1.0;"/><polygon fill="none" points="1221.88,333.7231,1236.15,318.0731,1234.76,339.2131,1221.88,333.7231" style="stroke:#A80036;stroke-width:1.0;"/><!--MD5=[536c34514e86f1d14c9c37b83ca4ed58]
link Analysis to AppliedMathemmatics--><path codeLine="94" d="M969.19,511.9531 C986.78,511.9531 1003.33,511.9531 1003.33,511.9531 C1003.33,511.9531 1028.13,511.9531 1049.27,511.9531 " fill="none" id="Analysis-to-AppliedMathemmatics" style="stroke:#A80036;stroke-width:1.0;"/><polygon fill="none" points="1049.43,504.9531,1069.43,511.9531,1049.43,518.9531,1049.43,504.9531" style="stroke:#A80036;stroke-width:1.0;"/><!--MD5=[fecdec17bded8c68f2443c81494ef743]
link ControlTheory to AppliedMathemmatics--><path codeLine="95" d="M786.59,451.6531 C836.2,419.6831 887,386.9531 887,386.9531 C887,386.9531 969,386.9531 969,386.9531 C969,386.9531 1046.82,439.5331 1101.51,476.4931 " fill="none" id="ControlTheory-to-AppliedMathemmatics" style="stroke:#A80036;stroke-width:1.0;"/><polygon fill="none" points="1105.68,470.8531,1118.33,487.8531,1097.84,482.4531,1105.68,470.8531" style="stroke:#A80036;stroke-width:1.0;"/><!--MD5=[7a86906a7688aeba0a794ffba45ddfee]
link SignalProcessing to AppliedMathemmatics--><path codeLine="96" d="M488.16,468.9331 C537.05,432.7731 599,386.9531 599,386.9531 C599,386.9531 969,386.9531 969,386.9531 C969,386.9531 1046.82,439.5331 1101.51,476.4931 " fill="none" id="SignalProcessing-to-AppliedMathemmatics" style="stroke:#A80036;stroke-width:1.0;"/><polygon fill="none" points="1105.68,470.8531,1118.33,487.8531,1097.84,482.4531,1105.68,470.8531" style="stroke:#A80036;stroke-width:1.0;"/><!--MD5=[da9322b5e30ff077dd2d21b76eb8108e]
link MicrowavesEngineering to AppliedMathemmatics--><path codeLine="97" d="M217.23,481.3731 C273.19,444.3731 360,386.9531 360,386.9531 C360,386.9531 969,386.9531 969,386.9531 C969,386.9531 1046.82,439.5331 1101.51,476.4931 " fill="none" id="MicrowavesEngineering-to-AppliedMathemmatics" style="stroke:#A80036;stroke-width:1.0;"/><polygon fill="none" points="1105.68,470.8531,1118.33,487.8531,1097.84,482.4531,1105.68,470.8531" style="stroke:#A80036;stroke-width:1.0;"/><!--MD5=[49a8cd47dd1688633d9e35a48b22e788]
link RadarProcessing to Applications--><path codeLine="110" d="M251.08,690.5631 C301.84,666.0331 362,636.9531 362,636.9531 C362,636.9531 720,636.9531 720,636.9531 C720,636.9531 770.7,665.5931 813.92,690.0131 " fill="none" id="RadarProcessing-to-Applications" style="stroke:#A80036;stroke-width:1.0;"/><polygon fill="none" points="817.54,684.0131,831.51,699.9531,810.65,696.2031,817.54,684.0131" style="stroke:#A80036;stroke-width:1.0;"/><!--MD5=[6b757bb80b506bb48ea5d92b8ad18702]
reverse link MicrowavesEngineering to RadarProcessing--><path codeLine="111" d="M173.61,562.7031 C175.6,600.8231 178.31,652.5231 180.1,686.7731 " fill="none" id="MicrowavesEngineering-backto-RadarProcessing" style="stroke:#A80036;stroke-width:1.0;"/><polygon fill="none" points="166.61,562.9331,172.55,542.5931,180.59,562.2031,166.61,562.9331" style="stroke:#A80036;stroke-width:1.0;"/><!--MD5=[c8ba85e553b267348a07b1023584206f]
link Navigation to Applications--><path codeLine="116" d="M489.23,693.2831 C537.6,668.2331 598,636.9531 598,636.9531 C598,636.9531 720,636.9531 720,636.9531 C720,636.9531 770.7,665.5931 813.92,690.0131 " fill="none" id="Navigation-to-Applications" style="stroke:#A80036;stroke-width:1.0;"/><polygon fill="none" points="817.54,684.0131,831.51,699.9531,810.65,696.2031,817.54,684.0131" style="stroke:#A80036;stroke-width:1.0;"/><!--MD5=[c9e0a7fb90ac14a61bb8ddb56f1f753d]
reverse link SignalProcessing to Navigation--><path codeLine="117" d="M430,575.4331 C430,614.4131 430,662.8131 430,693.3031 " fill="none" id="SignalProcessing-backto-Navigation" style="stroke:#A80036;stroke-width:1.0;"/><polygon fill="none" points="423,575.1931,430,555.1931,437,575.1931,423,575.1931" style="stroke:#A80036;stroke-width:1.0;"/><!--MD5=[0a3b47d0d956b8e12569db54ddaf5428]
link SystemControl to Applications--><path codeLine="122" d="M720.09,723.9531 C726.46,723.9531 730.67,723.9531 730.67,723.9531 C730.67,723.9531 771.82,723.9531 799.31,723.9531 " fill="none" id="SystemControl-to-Applications" style="stroke:#A80036;stroke-width:1.0;"/><polygon fill="none" points="799.68,716.9531,819.68,723.9531,799.68,730.9531,799.68,716.9531" style="stroke:#A80036;stroke-width:1.0;"/><!--MD5=[70ab40e483b874578c9a4d32b1f480a2]
reverse link ControlTheory to SystemControl--><path codeLine="123" d="M677.78,606.9331 C672.22,641.3031 666.4,677.2631 662.74,699.8631 " fill="none" id="ControlTheory-backto-SystemControl" style="stroke:#A80036;stroke-width:1.0;"/><polygon fill="none" points="670.91,605.6131,681.01,586.9931,684.73,607.8531,670.91,605.6131" style="stroke:#A80036;stroke-width:1.0;"/><!--MD5=[cb395de8ab85d1192af7c9786c16ca92]
reverse link SignalProcessing to SystemControl--><path codeLine="124" d="M490.95,568.8531 C537.69,611.7031 599.79,668.6531 633.9,699.9331 " fill="none" id="SignalProcessing-backto-SystemControl" style="stroke:#A80036;stroke-width:1.0;"/><polygon fill="none" points="486.08,573.8731,476.07,555.1931,495.54,563.5531,486.08,573.8731" style="stroke:#A80036;stroke-width:1.0;"/><!--MD5=[8796aa23b23f4c12c50b3f9863b945ad]
reverse link AppliedMathemmatics to Applications--><path codeLine="127" d="M1107.06,548.1631 C1049.55,591.2931 953.75,663.1431 904.82,699.8431 " fill="none" id="AppliedMathemmatics-backto-Applications" style="stroke:#A80036;stroke-width:1.0;"/><polygon fill="none" points="1103.03,542.4231,1123.23,536.0231,1111.43,553.6231,1103.03,542.4231" style="stroke:#A80036;stroke-width:1.0;"/><!--MD5=[464dbbe678ec9fbedb9b46d5f0c71625]
@startuml
' Settings
' ============================

' use +,#,- instead of icons
'skinparam classAttributeIconSize 0

' horizontal distance in px
skinparam nodesep 100 

' vertical distance in px
skinparam ranksep 100

' use only straight lines (ortho/polyline)
skinparam linetype polyline

' title
title MATH

' The fundamental
' ============================
class Fundamental

class Algebra{
    Matrices Analysis
    Coordinate Transformation

}

class Calculus{
    Fourier Analysis
}

class Stochastic
class GameTheory #red
class GraphTheory #red

Algebra -r-|> Fundamental
Calculus -r-|> Fundamental
Stochastic -r-|> Fundamental
GameTheory -r-|> Fundamental
GraphTheory -r-|> Fundamental

' The resources
' ============================
class Tools
Tools -u-|> Fundamental

class Numeric{
    Interpolation
    Extraplation
    ODE Solvers
}

class Computation{
    Algorithms
    Machine Learning 
}

class Optimization{
    Convex Optimization
}

Numeric -l-|> Tools
Computation -l-|> Tools
Optimization -l-|> Tools

' The engineering math
' ============================
class AppliedMathemmatics
AppliedMathemmatics -u-|> Fundamental
AppliedMathemmatics -u-|> Tools

class Analysis
class ControlTheory{
    Linear Control
    Non-linear Control
    Model-based Control
    Information-oriented Control
    Multi-Agent System 

    -Adaptive Control
    -Robust Control
}
class SignalProcessing{
    FFT Analysis
    Correlation
    Filtering    
}

class MicrowavesEngineering{
    Circuit Analysis
}

Analysis -r-|> AppliedMathemmatics
ControlTheory -r-|> AppliedMathemmatics
SignalProcessing -r-|> AppliedMathemmatics
MicrowavesEngineering -r-|> AppliedMathemmatics


' The applications
' ============================
class Applications


class RadarProcessing{
    Detection
    Tracking
}

RadarProcessing -r-|> Applications
RadarProcessing -u-|> MicrowavesEngineering

class Navigation{
    -Trajectory Planning 
}
Navigation -r-|> Applications
Navigation -u-|> SignalProcessing

class SystemControl{

}
SystemControl -r-|> Applications
SystemControl -u-|> ControlTheory
SystemControl -u-|> SignalProcessing


Applications -u-|> AppliedMathemmatics
@enduml

@startuml


skinparam nodesep 100 

skinparam ranksep 100

skinparam linetype polyline

title MATH

class Fundamental

class Algebra{
    Matrices Analysis
    Coordinate Transformation

}

class Calculus{
    Fourier Analysis
}

class Stochastic
class GameTheory #red
class GraphTheory #red

Algebra -r-|> Fundamental
Calculus -r-|> Fundamental
Stochastic -r-|> Fundamental
GameTheory -r-|> Fundamental
GraphTheory -r-|> Fundamental

class Tools
Tools -u-|> Fundamental

class Numeric{
    Interpolation
    Extraplation
    ODE Solvers
}

class Computation{
    Algorithms
    Machine Learning 
}

class Optimization{
    Convex Optimization
}

Numeric -l-|> Tools
Computation -l-|> Tools
Optimization -l-|> Tools

class AppliedMathemmatics
AppliedMathemmatics -u-|> Fundamental
AppliedMathemmatics -u-|> Tools

class Analysis
class ControlTheory{
    Linear Control
    Non-linear Control
    Model-based Control
    Information-oriented Control
    Multi-Agent System 

    -Adaptive Control
    -Robust Control
}
class SignalProcessing{
    FFT Analysis
    Correlation
    Filtering    
}

class MicrowavesEngineering{
    Circuit Analysis
}

Analysis -r-|> AppliedMathemmatics
ControlTheory -r-|> AppliedMathemmatics
SignalProcessing -r-|> AppliedMathemmatics
MicrowavesEngineering -r-|> AppliedMathemmatics


class Applications


class RadarProcessing{
    Detection
    Tracking
}

RadarProcessing -r-|> Applications
RadarProcessing -u-|> MicrowavesEngineering

class Navigation{
    -Trajectory Planning 
}
Navigation -r-|> Applications
Navigation -u-|> SignalProcessing

class SystemControl{

}
SystemControl -r-|> Applications
SystemControl -u-|> ControlTheory
SystemControl -u-|> SignalProcessing


Applications -u-|> AppliedMathemmatics
@enduml

PlantUML version 1.2022.1(Tue Feb 01 18:19:58 UTC 2022)
(GPL source distribution)
Java Runtime: OpenJDK Runtime Environment
JVM: OpenJDK 64-Bit Server VM
Default Encoding: UTF-8
Language: en
Country: null
--></g></svg>