<?xml version="1.0" encoding="UTF-8" standalone="no"?><svg xmlns="http://www.w3.org/2000/svg" xmlns:xlink="http://www.w3.org/1999/xlink" contentScriptType="application/ecmascript" contentStyleType="text/css" height="781px" preserveAspectRatio="none" style="width:1383px;height:781px;background:#FFFFFF;" version="1.1" viewBox="0 0 1383 781" width="1383px" zoomAndPan="magnify"><defs><filter height="300%" id="f18o56rk52kurh" width="300%" x="-1" y="-1"><feGaussianBlur result="blurOut" stdDeviation="2.0"/><feColorMatrix in="blurOut" result="blurOut2" type="matrix" values="0 0 0 0 0 0 0 0 0 0 0 0 0 0 0 0 0 0 .4 0"/><feOffset dx="4.0" dy="4.0" in="blurOut2" result="blurOut3"/><feBlend in="SourceGraphic" in2="blurOut3" mode="normal"/></filter></defs><g><text fill="#000000" font-family="sans-serif" font-size="18" lengthAdjust="spacing" textLength="170" x="600.25" y="16.708">1-2-2 UML Objects</text><!--MD5=[c46ae90ce51194a21ad024ae1dce56fb]
class MultipleLightBase--><rect codeLine="23" fill="#FEFECE" filter="url(#f18o56rk52kurh)" height="150.4375" id="MultipleLightBase" style="stroke:#A80036;stroke-width:1.5;" width="249" x="284" y="322.9531"/><ellipse cx="352.25" cy="338.9531" fill="#ADD1B2" rx="11" ry="11" style="stroke:#A80036;stroke-width:1.0;"/><path d="M354.5938,334.625 C353.6563,334.1875 353.0625,334.0469 352.1875,334.0469 C349.5625,334.0469 347.5625,336.125 347.5625,338.8438 L347.5625,339.9688 C347.5625,342.5469 349.6719,344.4375 352.5625,344.4375 C353.7813,344.4375 354.9375,344.1406 355.6875,343.5938 C356.2656,343.1875 356.5938,342.7344 356.5938,342.3438 C356.5938,341.8906 356.2031,341.5 355.7344,341.5 C355.5156,341.5 355.3125,341.5781 355.125,341.7656 C354.6719,342.25 354.6719,342.25 354.4844,342.3438 C354.0625,342.6094 353.375,342.7344 352.6094,342.7344 C350.5625,342.7344 349.2656,341.6406 349.2656,339.9375 L349.2656,338.8438 C349.2656,337.0625 350.5156,335.75 352.25,335.75 C352.8281,335.75 353.4375,335.9063 353.9063,336.1563 C354.3906,336.4375 354.5625,336.6563 354.6563,337.0625 C354.7188,337.4688 354.75,337.5938 354.8906,337.7188 C355.0313,337.8594 355.2656,337.9688 355.4844,337.9688 C355.75,337.9688 356.0156,337.8281 356.1875,337.6094 C356.2969,337.4531 356.3281,337.2656 356.3281,336.8438 L356.3281,335.4219 C356.3281,334.9844 356.3125,334.8594 356.2188,334.7031 C356.0625,334.4375 355.7813,334.2969 355.4844,334.2969 C355.1875,334.2969 354.9844,334.3906 354.7656,334.7031 L354.5938,334.625 Z " fill="#000000"/><text fill="#000000" font-family="sans-serif" font-size="12" lengthAdjust="spacing" textLength="104" x="372.75" y="343.1074">MultipleLightBase</text><line style="stroke:#A80036;stroke-width:1.5;" x1="285" x2="532" y1="354.9531" y2="354.9531"/><rect fill="none" height="6" style="stroke:#C82930;stroke-width:1.0;" width="6" x="292" y="362.9531"/><text fill="#000000" font-family="sans-serif" font-size="11" lengthAdjust="spacing" textLength="74" x="304" y="369.1636">Name: String</text><polygon fill="none" points="295,373.7578,299,377.7578,295,381.7578,291,377.7578" style="stroke:#B38D22;stroke-width:1.0;"/><text fill="#000000" font-family="sans-serif" font-size="11" lengthAdjust="spacing" textLength="153" x="304" y="381.9683">handle: List&lt;SwitchLight*&gt;</text><polygon fill="none" points="295,386.5625,299,390.5625,295,394.5625,291,390.5625" style="stroke:#B38D22;stroke-width:1.0;"/><text fill="#000000" font-family="sans-serif" font-size="11" lengthAdjust="spacing" textLength="223" x="304" y="394.7729">configHandle: List&lt;ConfigurableLight*&gt;</text><line style="stroke:#A80036;stroke-width:1.5;" x1="285" x2="532" y1="401.3672" y2="401.3672"/><ellipse cx="295" cy="412.3672" fill="#84BE84" rx="3" ry="3" style="stroke:#038048;stroke-width:1.0;"/><text fill="#000000" font-family="sans-serif" font-size="11" lengthAdjust="spacing" textLength="115" x="304" y="415.5776">appendSwitchLight()</text><ellipse cx="295" cy="425.1719" fill="#84BE84" rx="3" ry="3" style="stroke:#038048;stroke-width:1.0;"/><text fill="#000000" font-family="sans-serif" font-size="11" lengthAdjust="spacing" textLength="150" x="304" y="428.3823">appendConfigurableLight()</text><ellipse cx="295" cy="437.9766" fill="#84BE84" rx="3" ry="3" style="stroke:#038048;stroke-width:1.0;"/><text fill="#000000" font-family="sans-serif" font-size="11" lengthAdjust="spacing" textLength="73" x="304" y="441.187">setupLights()</text><ellipse cx="295" cy="450.7813" fill="#84BE84" rx="3" ry="3" style="stroke:#038048;stroke-width:1.0;"/><text fill="#000000" font-family="sans-serif" font-size="11" lengthAdjust="spacing" textLength="22" x="304" y="453.9917">on()</text><ellipse cx="295" cy="463.5859" fill="#84BE84" rx="3" ry="3" style="stroke:#038048;stroke-width:1.0;"/><text fill="#000000" font-family="sans-serif" font-size="11" lengthAdjust="spacing" textLength="23" x="304" y="466.7964">off()</text><!--MD5=[7400da8a0c24ae3c05718233195d1204]
class SensorBase--><rect codeLine="34" fill="#FEFECE" filter="url(#f18o56rk52kurh)" height="86.4141" id="SensorBase" style="stroke:#A80036;stroke-width:1.5;" width="105" x="822" y="354.9531"/><ellipse cx="837" cy="370.9531" fill="#ADD1B2" rx="11" ry="11" style="stroke:#A80036;stroke-width:1.0;"/><path d="M839.3438,366.625 C838.4063,366.1875 837.8125,366.0469 836.9375,366.0469 C834.3125,366.0469 832.3125,368.125 832.3125,370.8438 L832.3125,371.9688 C832.3125,374.5469 834.4219,376.4375 837.3125,376.4375 C838.5313,376.4375 839.6875,376.1406 840.4375,375.5938 C841.0156,375.1875 841.3438,374.7344 841.3438,374.3438 C841.3438,373.8906 840.9531,373.5 840.4844,373.5 C840.2656,373.5 840.0625,373.5781 839.875,373.7656 C839.4219,374.25 839.4219,374.25 839.2344,374.3438 C838.8125,374.6094 838.125,374.7344 837.3594,374.7344 C835.3125,374.7344 834.0156,373.6406 834.0156,371.9375 L834.0156,370.8438 C834.0156,369.0625 835.2656,367.75 837,367.75 C837.5781,367.75 838.1875,367.9063 838.6563,368.1563 C839.1406,368.4375 839.3125,368.6563 839.4063,369.0625 C839.4688,369.4688 839.5,369.5938 839.6406,369.7188 C839.7813,369.8594 840.0156,369.9688 840.2344,369.9688 C840.5,369.9688 840.7656,369.8281 840.9375,369.6094 C841.0469,369.4531 841.0781,369.2656 841.0781,368.8438 L841.0781,367.4219 C841.0781,366.9844 841.0625,366.8594 840.9688,366.7031 C840.8125,366.4375 840.5313,366.2969 840.2344,366.2969 C839.9375,366.2969 839.7344,366.3906 839.5156,366.7031 L839.3438,366.625 Z " fill="#000000"/><text fill="#000000" font-family="sans-serif" font-size="12" lengthAdjust="spacing" textLength="73" x="851" y="375.1074">SensorBase</text><line style="stroke:#A80036;stroke-width:1.5;" x1="823" x2="926" y1="386.9531" y2="386.9531"/><rect fill="none" height="6" style="stroke:#C82930;stroke-width:1.0;" width="6" x="830" y="394.9531"/><text fill="#000000" font-family="sans-serif" font-size="11" lengthAdjust="spacing" textLength="60" x="842" y="401.1636">ID: Integer</text><rect fill="none" height="6" style="stroke:#C82930;stroke-width:1.0;" width="6" x="830" y="407.7578"/><text fill="#000000" font-family="sans-serif" font-size="11" lengthAdjust="spacing" textLength="74" x="842" y="413.9683">Name: String</text><line style="stroke:#A80036;stroke-width:1.5;" x1="823" x2="926" y1="420.5625" y2="420.5625"/><polygon fill="#FFFF44" points="833,426.5625,837,430.5625,833,434.5625,829,430.5625" style="stroke:#B38D22;stroke-width:1.0;"/><text fill="#000000" font-family="sans-serif" font-size="11" lengthAdjust="spacing" textLength="59" x="842" y="434.7729">sampling()</text><!--MD5=[d3822c7e40ce664bf74f666f59564e7b]
class TriggerSensor_Base--><rect codeLine="40" fill="#FEFECE" filter="url(#f18o56rk52kurh)" height="73.6094" id="TriggerSensor_Base" style="stroke:#A80036;stroke-width:1.5;" width="155" x="1038" y="552.9531"/><ellipse cx="1053" cy="568.9531" fill="#ADD1B2" rx="11" ry="11" style="stroke:#A80036;stroke-width:1.0;"/><path d="M1055.3438,564.625 C1054.4063,564.1875 1053.8125,564.0469 1052.9375,564.0469 C1050.3125,564.0469 1048.3125,566.125 1048.3125,568.8438 L1048.3125,569.9688 C1048.3125,572.5469 1050.4219,574.4375 1053.3125,574.4375 C1054.5313,574.4375 1055.6875,574.1406 1056.4375,573.5938 C1057.0156,573.1875 1057.3438,572.7344 1057.3438,572.3438 C1057.3438,571.8906 1056.9531,571.5 1056.4844,571.5 C1056.2656,571.5 1056.0625,571.5781 1055.875,571.7656 C1055.4219,572.25 1055.4219,572.25 1055.2344,572.3438 C1054.8125,572.6094 1054.125,572.7344 1053.3594,572.7344 C1051.3125,572.7344 1050.0156,571.6406 1050.0156,569.9375 L1050.0156,568.8438 C1050.0156,567.0625 1051.2656,565.75 1053,565.75 C1053.5781,565.75 1054.1875,565.9063 1054.6563,566.1563 C1055.1406,566.4375 1055.3125,566.6563 1055.4063,567.0625 C1055.4688,567.4688 1055.5,567.5938 1055.6406,567.7188 C1055.7813,567.8594 1056.0156,567.9688 1056.2344,567.9688 C1056.5,567.9688 1056.7656,567.8281 1056.9375,567.6094 C1057.0469,567.4531 1057.0781,567.2656 1057.0781,566.8438 L1057.0781,565.4219 C1057.0781,564.9844 1057.0625,564.8594 1056.9688,564.7031 C1056.8125,564.4375 1056.5313,564.2969 1056.2344,564.2969 C1055.9375,564.2969 1055.7344,564.3906 1055.5156,564.7031 L1055.3438,564.625 Z " fill="#000000"/><text fill="#000000" font-family="sans-serif" font-size="12" lengthAdjust="spacing" textLength="123" x="1067" y="573.1074">TriggerSensor_Base</text><line style="stroke:#A80036;stroke-width:1.5;" x1="1039" x2="1192" y1="584.9531" y2="584.9531"/><polygon fill="none" points="1049,590.9531,1053,594.9531,1049,598.9531,1045,594.9531" style="stroke:#B38D22;stroke-width:1.0;"/><text fill="#000000" font-family="sans-serif" font-size="11" lengthAdjust="spacing" textLength="61" x="1058" y="599.1636">state: Bool</text><line style="stroke:#A80036;stroke-width:1.5;" x1="1039" x2="1192" y1="605.7578" y2="605.7578"/><polygon fill="#FFFF44" points="1049,611.7578,1053,615.7578,1049,619.7578,1045,615.7578" style="stroke:#B38D22;stroke-width:1.0;"/><text fill="#000000" font-family="sans-serif" font-size="11" lengthAdjust="spacing" textLength="62" x="1058" y="619.9683">isPressed()</text><!--MD5=[8f52c63a08f7cb65f8b754ebca7a4a87]
class SamplingSensor_Base--><rect codeLine="45" fill="#FEFECE" filter="url(#f18o56rk52kurh)" height="60.8047" id="SamplingSensor_Base" style="stroke:#A80036;stroke-width:1.5;" width="166" x="791.5" y="559.4531"/><ellipse cx="806.5" cy="575.4531" fill="#ADD1B2" rx="11" ry="11" style="stroke:#A80036;stroke-width:1.0;"/><path d="M808.8438,571.125 C807.9063,570.6875 807.3125,570.5469 806.4375,570.5469 C803.8125,570.5469 801.8125,572.625 801.8125,575.3438 L801.8125,576.4688 C801.8125,579.0469 803.9219,580.9375 806.8125,580.9375 C808.0313,580.9375 809.1875,580.6406 809.9375,580.0938 C810.5156,579.6875 810.8438,579.2344 810.8438,578.8438 C810.8438,578.3906 810.4531,578 809.9844,578 C809.7656,578 809.5625,578.0781 809.375,578.2656 C808.9219,578.75 808.9219,578.75 808.7344,578.8438 C808.3125,579.1094 807.625,579.2344 806.8594,579.2344 C804.8125,579.2344 803.5156,578.1406 803.5156,576.4375 L803.5156,575.3438 C803.5156,573.5625 804.7656,572.25 806.5,572.25 C807.0781,572.25 807.6875,572.4063 808.1563,572.6563 C808.6406,572.9375 808.8125,573.1563 808.9063,573.5625 C808.9688,573.9688 809,574.0938 809.1406,574.2188 C809.2813,574.3594 809.5156,574.4688 809.7344,574.4688 C810,574.4688 810.2656,574.3281 810.4375,574.1094 C810.5469,573.9531 810.5781,573.7656 810.5781,573.3438 L810.5781,571.9219 C810.5781,571.4844 810.5625,571.3594 810.4688,571.2031 C810.3125,570.9375 810.0313,570.7969 809.7344,570.7969 C809.4375,570.7969 809.2344,570.8906 809.0156,571.2031 L808.8438,571.125 Z " fill="#000000"/><text fill="#000000" font-family="sans-serif" font-size="12" lengthAdjust="spacing" textLength="134" x="820.5" y="579.6074">SamplingSensor_Base</text><line style="stroke:#A80036;stroke-width:1.5;" x1="792.5" x2="956.5" y1="591.4531" y2="591.4531"/><line style="stroke:#A80036;stroke-width:1.5;" x1="792.5" x2="956.5" y1="599.4531" y2="599.4531"/><polygon fill="#FFFF44" points="802.5,605.4531,806.5,609.4531,802.5,613.4531,798.5,609.4531" style="stroke:#B38D22;stroke-width:1.0;"/><text fill="#000000" font-family="sans-serif" font-size="11" lengthAdjust="spacing" textLength="86" x="811.5" y="613.6636">isNewSample()</text><!--MD5=[4867a1bb6ec1ef487bf262ea43213ad2]
class ControllerBase--><rect codeLine="49" fill="#FEFECE" filter="url(#f18o56rk52kurh)" height="86.4141" id="ControllerBase" style="stroke:#A80036;stroke-width:1.5;" width="121" x="613" y="354.9531"/><ellipse cx="628" cy="370.9531" fill="#ADD1B2" rx="11" ry="11" style="stroke:#A80036;stroke-width:1.0;"/><path d="M630.3438,366.625 C629.4063,366.1875 628.8125,366.0469 627.9375,366.0469 C625.3125,366.0469 623.3125,368.125 623.3125,370.8438 L623.3125,371.9688 C623.3125,374.5469 625.4219,376.4375 628.3125,376.4375 C629.5313,376.4375 630.6875,376.1406 631.4375,375.5938 C632.0156,375.1875 632.3438,374.7344 632.3438,374.3438 C632.3438,373.8906 631.9531,373.5 631.4844,373.5 C631.2656,373.5 631.0625,373.5781 630.875,373.7656 C630.4219,374.25 630.4219,374.25 630.2344,374.3438 C629.8125,374.6094 629.125,374.7344 628.3594,374.7344 C626.3125,374.7344 625.0156,373.6406 625.0156,371.9375 L625.0156,370.8438 C625.0156,369.0625 626.2656,367.75 628,367.75 C628.5781,367.75 629.1875,367.9063 629.6563,368.1563 C630.1406,368.4375 630.3125,368.6563 630.4063,369.0625 C630.4688,369.4688 630.5,369.5938 630.6406,369.7188 C630.7813,369.8594 631.0156,369.9688 631.2344,369.9688 C631.5,369.9688 631.7656,369.8281 631.9375,369.6094 C632.0469,369.4531 632.0781,369.2656 632.0781,368.8438 L632.0781,367.4219 C632.0781,366.9844 632.0625,366.8594 631.9688,366.7031 C631.8125,366.4375 631.5313,366.2969 631.2344,366.2969 C630.9375,366.2969 630.7344,366.3906 630.5156,366.7031 L630.3438,366.625 Z " fill="#000000"/><text fill="#000000" font-family="sans-serif" font-size="12" lengthAdjust="spacing" textLength="89" x="642" y="375.1074">ControllerBase</text><line style="stroke:#A80036;stroke-width:1.5;" x1="614" x2="733" y1="386.9531" y2="386.9531"/><ellipse cx="624" cy="397.9531" rx="3" ry="3" style="stroke:#038048;stroke-width:1.0;fill:none;"/><text fill="#000000" font-family="sans-serif" font-size="11" lengthAdjust="spacing" textLength="60" x="633" y="401.1636">ID: Integer</text><polygon fill="none" points="624,405.7578,628,409.7578,624,413.7578,620,409.7578" style="stroke:#B38D22;stroke-width:1.0;"/><text fill="#000000" font-family="sans-serif" font-size="11" lengthAdjust="spacing" textLength="90" x="633" y="413.9683">sensor: Generic</text><line style="stroke:#A80036;stroke-width:1.5;" x1="614" x2="733" y1="420.5625" y2="420.5625"/><polygon fill="#FFFF44" points="624,426.5625,628,430.5625,624,434.5625,620,430.5625" style="stroke:#B38D22;stroke-width:1.0;"/><text fill="#000000" font-family="sans-serif" font-size="11" lengthAdjust="spacing" textLength="72" x="633" y="434.7729">isTriggered()</text><!--MD5=[87bfd90d1020d53ed2973905772335ab]
class ConfigurableLight--><rect codeLine="55" fill="#FEFECE" filter="url(#f18o56rk52kurh)" height="60.8047" id="ConfigurableLight" style="stroke:#A80036;stroke-width:1.5;" width="136" x="60.5" y="27.9531"/><ellipse cx="75.5" cy="43.9531" fill="#ADD1B2" rx="11" ry="11" style="stroke:#A80036;stroke-width:1.0;"/><path d="M77.8438,39.625 C76.9063,39.1875 76.3125,39.0469 75.4375,39.0469 C72.8125,39.0469 70.8125,41.125 70.8125,43.8438 L70.8125,44.9688 C70.8125,47.5469 72.9219,49.4375 75.8125,49.4375 C77.0313,49.4375 78.1875,49.1406 78.9375,48.5938 C79.5156,48.1875 79.8438,47.7344 79.8438,47.3438 C79.8438,46.8906 79.4531,46.5 78.9844,46.5 C78.7656,46.5 78.5625,46.5781 78.375,46.7656 C77.9219,47.25 77.9219,47.25 77.7344,47.3438 C77.3125,47.6094 76.625,47.7344 75.8594,47.7344 C73.8125,47.7344 72.5156,46.6406 72.5156,44.9375 L72.5156,43.8438 C72.5156,42.0625 73.7656,40.75 75.5,40.75 C76.0781,40.75 76.6875,40.9063 77.1563,41.1563 C77.6406,41.4375 77.8125,41.6563 77.9063,42.0625 C77.9688,42.4688 78,42.5938 78.1406,42.7188 C78.2813,42.8594 78.5156,42.9688 78.7344,42.9688 C79,42.9688 79.2656,42.8281 79.4375,42.6094 C79.5469,42.4531 79.5781,42.2656 79.5781,41.8438 L79.5781,40.4219 C79.5781,39.9844 79.5625,39.8594 79.4688,39.7031 C79.3125,39.4375 79.0313,39.2969 78.7344,39.2969 C78.4375,39.2969 78.2344,39.3906 78.0156,39.7031 L77.8438,39.625 Z " fill="#000000"/><text fill="#000000" font-family="sans-serif" font-size="12" lengthAdjust="spacing" textLength="104" x="89.5" y="48.1074">ConfigurableLight</text><line style="stroke:#A80036;stroke-width:1.5;" x1="61.5" x2="195.5" y1="59.9531" y2="59.9531"/><line style="stroke:#A80036;stroke-width:1.5;" x1="61.5" x2="195.5" y1="67.9531" y2="67.9531"/><ellipse cx="71.5" cy="78.9531" fill="#84BE84" rx="3" ry="3" style="stroke:#038048;stroke-width:1.0;"/><text fill="#000000" font-family="sans-serif" font-size="11" lengthAdjust="spacing" textLength="61" x="80.5" y="82.1636">configure()</text><!--MD5=[999e49f72af8639b360af99f8c1ff713]
class SwitchLight--><rect codeLine="60" fill="#FEFECE" filter="url(#f18o56rk52kurh)" height="99.2188" id="SwitchLight" style="stroke:#A80036;stroke-width:1.5;" width="150" x="53.5" y="348.4531"/><ellipse cx="91.45" cy="364.4531" fill="#ADD1B2" rx="11" ry="11" style="stroke:#A80036;stroke-width:1.0;"/><path d="M93.7938,360.125 C92.8563,359.6875 92.2625,359.5469 91.3875,359.5469 C88.7625,359.5469 86.7625,361.625 86.7625,364.3438 L86.7625,365.4688 C86.7625,368.0469 88.8719,369.9375 91.7625,369.9375 C92.9813,369.9375 94.1375,369.6406 94.8875,369.0938 C95.4656,368.6875 95.7938,368.2344 95.7938,367.8438 C95.7938,367.3906 95.4031,367 94.9344,367 C94.7156,367 94.5125,367.0781 94.325,367.2656 C93.8719,367.75 93.8719,367.75 93.6844,367.8438 C93.2625,368.1094 92.575,368.2344 91.8094,368.2344 C89.7625,368.2344 88.4656,367.1406 88.4656,365.4375 L88.4656,364.3438 C88.4656,362.5625 89.7156,361.25 91.45,361.25 C92.0281,361.25 92.6375,361.4063 93.1063,361.6563 C93.5906,361.9375 93.7625,362.1563 93.8563,362.5625 C93.9188,362.9688 93.95,363.0938 94.0906,363.2188 C94.2313,363.3594 94.4656,363.4688 94.6844,363.4688 C94.95,363.4688 95.2156,363.3281 95.3875,363.1094 C95.4969,362.9531 95.5281,362.7656 95.5281,362.3438 L95.5281,360.9219 C95.5281,360.4844 95.5125,360.3594 95.4188,360.2031 C95.2625,359.9375 94.9813,359.7969 94.6844,359.7969 C94.3875,359.7969 94.1844,359.8906 93.9656,360.2031 L93.7938,360.125 Z " fill="#000000"/><text fill="#000000" font-family="sans-serif" font-size="12" lengthAdjust="spacing" textLength="67" x="110.55" y="368.6074">SwitchLight</text><line style="stroke:#A80036;stroke-width:1.5;" x1="54.5" x2="202.5" y1="380.4531" y2="380.4531"/><rect fill="none" height="6" style="stroke:#C82930;stroke-width:1.0;" width="6" x="61.5" y="388.4531"/><text fill="#000000" font-family="sans-serif" font-size="11" lengthAdjust="spacing" textLength="69" x="73.5" y="394.6636">state: on/off</text><rect fill="none" height="6" style="stroke:#C82930;stroke-width:1.0;" width="6" x="61.5" y="401.2578"/><text fill="#000000" font-family="sans-serif" font-size="11" lengthAdjust="spacing" textLength="124" x="73.5" y="407.4683">brightness: 100, const</text><polygon fill="none" points="64.5,412.0625,68.5,416.0625,64.5,420.0625,60.5,416.0625" style="stroke:#B38D22;stroke-width:1.0;"/><text fill="#000000" font-family="sans-serif" font-size="11" lengthAdjust="spacing" textLength="84" x="73.5" y="420.2729">lightID: Integer</text><line style="stroke:#A80036;stroke-width:1.5;" x1="54.5" x2="202.5" y1="426.8672" y2="426.8672"/><ellipse cx="64.5" cy="437.8672" fill="#84BE84" rx="3" ry="3" style="stroke:#038048;stroke-width:1.0;"/><text fill="#000000" font-family="sans-serif" font-size="11" lengthAdjust="spacing" textLength="103" x="73.5" y="441.0776">switch(state: bool)</text><!--MD5=[a54edd4c870d7b3a603adac8183ae883]
class DimmLight--><rect codeLine="67" fill="#FEFECE" filter="url(#f18o56rk52kurh)" height="73.6094" id="DimmLight" style="stroke:#A80036;stroke-width:1.5;" width="133" x="62" y="168.9531"/><ellipse cx="94.55" cy="184.9531" fill="#ADD1B2" rx="11" ry="11" style="stroke:#A80036;stroke-width:1.0;"/><path d="M96.8938,180.625 C95.9563,180.1875 95.3625,180.0469 94.4875,180.0469 C91.8625,180.0469 89.8625,182.125 89.8625,184.8438 L89.8625,185.9688 C89.8625,188.5469 91.9719,190.4375 94.8625,190.4375 C96.0813,190.4375 97.2375,190.1406 97.9875,189.5938 C98.5656,189.1875 98.8938,188.7344 98.8938,188.3438 C98.8938,187.8906 98.5031,187.5 98.0344,187.5 C97.8156,187.5 97.6125,187.5781 97.425,187.7656 C96.9719,188.25 96.9719,188.25 96.7844,188.3438 C96.3625,188.6094 95.675,188.7344 94.9094,188.7344 C92.8625,188.7344 91.5656,187.6406 91.5656,185.9375 L91.5656,184.8438 C91.5656,183.0625 92.8156,181.75 94.55,181.75 C95.1281,181.75 95.7375,181.9063 96.2063,182.1563 C96.6906,182.4375 96.8625,182.6563 96.9563,183.0625 C97.0188,183.4688 97.05,183.5938 97.1906,183.7188 C97.3313,183.8594 97.5656,183.9688 97.7844,183.9688 C98.05,183.9688 98.3156,183.8281 98.4875,183.6094 C98.5969,183.4531 98.6281,183.2656 98.6281,182.8438 L98.6281,181.4219 C98.6281,180.9844 98.6125,180.8594 98.5188,180.7031 C98.3625,180.4375 98.0813,180.2969 97.7844,180.2969 C97.4875,180.2969 97.2844,180.3906 97.0656,180.7031 L96.8938,180.625 Z " fill="#000000"/><text fill="#000000" font-family="sans-serif" font-size="12" lengthAdjust="spacing" textLength="62" x="112.45" y="189.1074">DimmLight</text><line style="stroke:#A80036;stroke-width:1.5;" x1="63" x2="194" y1="200.9531" y2="200.9531"/><rect fill="none" height="6" style="stroke:#C82930;stroke-width:1.0;" width="6" x="70" y="208.9531"/><text fill="#000000" font-family="sans-serif" font-size="11" lengthAdjust="spacing" textLength="107" x="82" y="215.1636">brightness: Integer</text><line style="stroke:#A80036;stroke-width:1.5;" x1="63" x2="194" y1="221.7578" y2="221.7578"/><ellipse cx="73" cy="232.7578" fill="#84BE84" rx="3" ry="3" style="stroke:#038048;stroke-width:1.0;"/><text fill="#000000" font-family="sans-serif" font-size="11" lengthAdjust="spacing" textLength="61" x="82" y="235.9683">configure()</text><!--MD5=[41314a0efc36828092cff9ebad2fcafd]
class Group--><rect codeLine="72" fill="#FEFECE" filter="url(#f18o56rk52kurh)" height="73.6094" id="Group" style="stroke:#A80036;stroke-width:1.5;" width="165" x="330" y="552.9531"/><ellipse cx="389.75" cy="568.9531" fill="#ADD1B2" rx="11" ry="11" style="stroke:#A80036;stroke-width:1.0;"/><path d="M392.0938,564.625 C391.1563,564.1875 390.5625,564.0469 389.6875,564.0469 C387.0625,564.0469 385.0625,566.125 385.0625,568.8438 L385.0625,569.9688 C385.0625,572.5469 387.1719,574.4375 390.0625,574.4375 C391.2813,574.4375 392.4375,574.1406 393.1875,573.5938 C393.7656,573.1875 394.0938,572.7344 394.0938,572.3438 C394.0938,571.8906 393.7031,571.5 393.2344,571.5 C393.0156,571.5 392.8125,571.5781 392.625,571.7656 C392.1719,572.25 392.1719,572.25 391.9844,572.3438 C391.5625,572.6094 390.875,572.7344 390.1094,572.7344 C388.0625,572.7344 386.7656,571.6406 386.7656,569.9375 L386.7656,568.8438 C386.7656,567.0625 388.0156,565.75 389.75,565.75 C390.3281,565.75 390.9375,565.9063 391.4063,566.1563 C391.8906,566.4375 392.0625,566.6563 392.1563,567.0625 C392.2188,567.4688 392.25,567.5938 392.3906,567.7188 C392.5313,567.8594 392.7656,567.9688 392.9844,567.9688 C393.25,567.9688 393.5156,567.8281 393.6875,567.6094 C393.7969,567.4531 393.8281,567.2656 393.8281,566.8438 L393.8281,565.4219 C393.8281,564.9844 393.8125,564.8594 393.7188,564.7031 C393.5625,564.4375 393.2813,564.2969 392.9844,564.2969 C392.6875,564.2969 392.4844,564.3906 392.2656,564.7031 L392.0938,564.625 Z " fill="#000000"/><text fill="#000000" font-family="sans-serif" font-size="12" lengthAdjust="spacing" textLength="37" x="410.25" y="573.1074">Group</text><line style="stroke:#A80036;stroke-width:1.5;" x1="331" x2="494" y1="584.9531" y2="584.9531"/><rect fill="none" height="6" style="stroke:#C82930;stroke-width:1.0;" width="6" x="338" y="592.9531"/><text fill="#000000" font-family="sans-serif" font-size="11" lengthAdjust="spacing" textLength="107" x="350" y="599.1636">brightness: Integer</text><line style="stroke:#A80036;stroke-width:1.5;" x1="331" x2="494" y1="605.7578" y2="605.7578"/><ellipse cx="341" cy="616.7578" fill="#84BE84" rx="3" ry="3" style="stroke:#038048;stroke-width:1.0;"/><text fill="#000000" font-family="sans-serif" font-size="11" lengthAdjust="spacing" textLength="139" x="350" y="619.9683">setupLights(): brightness</text><!--MD5=[e4faacc5b8aef66b11ab0c816bbbc7f8]
class Scene--><rect codeLine="77" fill="#FEFECE" filter="url(#f18o56rk52kurh)" height="73.6094" id="Scene" style="stroke:#A80036;stroke-width:1.5;" width="243" x="7" y="552.9531"/><ellipse cx="105.25" cy="568.9531" fill="#ADD1B2" rx="11" ry="11" style="stroke:#A80036;stroke-width:1.0;"/><path d="M107.5938,564.625 C106.6563,564.1875 106.0625,564.0469 105.1875,564.0469 C102.5625,564.0469 100.5625,566.125 100.5625,568.8438 L100.5625,569.9688 C100.5625,572.5469 102.6719,574.4375 105.5625,574.4375 C106.7813,574.4375 107.9375,574.1406 108.6875,573.5938 C109.2656,573.1875 109.5938,572.7344 109.5938,572.3438 C109.5938,571.8906 109.2031,571.5 108.7344,571.5 C108.5156,571.5 108.3125,571.5781 108.125,571.7656 C107.6719,572.25 107.6719,572.25 107.4844,572.3438 C107.0625,572.6094 106.375,572.7344 105.6094,572.7344 C103.5625,572.7344 102.2656,571.6406 102.2656,569.9375 L102.2656,568.8438 C102.2656,567.0625 103.5156,565.75 105.25,565.75 C105.8281,565.75 106.4375,565.9063 106.9063,566.1563 C107.3906,566.4375 107.5625,566.6563 107.6563,567.0625 C107.7188,567.4688 107.75,567.5938 107.8906,567.7188 C108.0313,567.8594 108.2656,567.9688 108.4844,567.9688 C108.75,567.9688 109.0156,567.8281 109.1875,567.6094 C109.2969,567.4531 109.3281,567.2656 109.3281,566.8438 L109.3281,565.4219 C109.3281,564.9844 109.3125,564.8594 109.2188,564.7031 C109.0625,564.4375 108.7813,564.2969 108.4844,564.2969 C108.1875,564.2969 107.9844,564.3906 107.7656,564.7031 L107.5938,564.625 Z " fill="#000000"/><text fill="#000000" font-family="sans-serif" font-size="12" lengthAdjust="spacing" textLength="38" x="125.75" y="573.1074">Scene</text><line style="stroke:#A80036;stroke-width:1.5;" x1="8" x2="249" y1="584.9531" y2="584.9531"/><rect fill="none" height="6" style="stroke:#C82930;stroke-width:1.0;" width="6" x="15" y="592.9531"/><text fill="#000000" font-family="sans-serif" font-size="11" lengthAdjust="spacing" textLength="217" x="27" y="599.1636">lightSettings: List&lt;lightID, brightness&gt;</text><line style="stroke:#A80036;stroke-width:1.5;" x1="8" x2="249" y1="605.7578" y2="605.7578"/><ellipse cx="18" cy="616.7578" fill="#84BE84" rx="3" ry="3" style="stroke:#038048;stroke-width:1.0;"/><text fill="#000000" font-family="sans-serif" font-size="11" lengthAdjust="spacing" textLength="151" x="27" y="619.9683">setupLights(): lightSettings</text><!--MD5=[80a979c5cb1fa74e07dd1637efa6e0a9]
class DayLightSensor--><rect codeLine="82" fill="#FEFECE" filter="url(#f18o56rk52kurh)" height="60.8047" id="DayLightSensor" style="stroke:#A80036;stroke-width:1.5;" width="126" x="811.5" y="706.9531"/><ellipse cx="826.5" cy="722.9531" fill="#ADD1B2" rx="11" ry="11" style="stroke:#A80036;stroke-width:1.0;"/><path d="M828.8438,718.625 C827.9063,718.1875 827.3125,718.0469 826.4375,718.0469 C823.8125,718.0469 821.8125,720.125 821.8125,722.8438 L821.8125,723.9688 C821.8125,726.5469 823.9219,728.4375 826.8125,728.4375 C828.0313,728.4375 829.1875,728.1406 829.9375,727.5938 C830.5156,727.1875 830.8438,726.7344 830.8438,726.3438 C830.8438,725.8906 830.4531,725.5 829.9844,725.5 C829.7656,725.5 829.5625,725.5781 829.375,725.7656 C828.9219,726.25 828.9219,726.25 828.7344,726.3438 C828.3125,726.6094 827.625,726.7344 826.8594,726.7344 C824.8125,726.7344 823.5156,725.6406 823.5156,723.9375 L823.5156,722.8438 C823.5156,721.0625 824.7656,719.75 826.5,719.75 C827.0781,719.75 827.6875,719.9063 828.1563,720.1563 C828.6406,720.4375 828.8125,720.6563 828.9063,721.0625 C828.9688,721.4688 829,721.5938 829.1406,721.7188 C829.2813,721.8594 829.5156,721.9688 829.7344,721.9688 C830,721.9688 830.2656,721.8281 830.4375,721.6094 C830.5469,721.4531 830.5781,721.2656 830.5781,720.8438 L830.5781,719.4219 C830.5781,718.9844 830.5625,718.8594 830.4688,718.7031 C830.3125,718.4375 830.0313,718.2969 829.7344,718.2969 C829.4375,718.2969 829.2344,718.3906 829.0156,718.7031 L828.8438,718.625 Z " fill="#000000"/><text fill="#000000" font-family="sans-serif" font-size="12" lengthAdjust="spacing" textLength="94" x="840.5" y="727.1074">DayLightSensor</text><line style="stroke:#A80036;stroke-width:1.5;" x1="812.5" x2="936.5" y1="738.9531" y2="738.9531"/><rect fill="none" height="6" style="stroke:#C82930;stroke-width:1.0;" width="6" x="819.5" y="746.9531"/><text fill="#000000" font-family="sans-serif" font-size="11" lengthAdjust="spacing" textLength="54" x="831.5" y="753.1636">Lux: Float</text><line style="stroke:#A80036;stroke-width:1.5;" x1="812.5" x2="936.5" y1="759.7578" y2="759.7578"/><!--MD5=[79d86d11b376658584aaf6110ce7a55f]
class HardwareSwitch--><rect codeLine="86" fill="#FEFECE" filter="url(#f18o56rk52kurh)" height="48" id="HardwareSwitch" style="stroke:#A80036;stroke-width:1.5;" width="130" x="1239.5" y="713.4531"/><ellipse cx="1254.5" cy="729.4531" fill="#ADD1B2" rx="11" ry="11" style="stroke:#A80036;stroke-width:1.0;"/><path d="M1256.8438,725.125 C1255.9063,724.6875 1255.3125,724.5469 1254.4375,724.5469 C1251.8125,724.5469 1249.8125,726.625 1249.8125,729.3438 L1249.8125,730.4688 C1249.8125,733.0469 1251.9219,734.9375 1254.8125,734.9375 C1256.0313,734.9375 1257.1875,734.6406 1257.9375,734.0938 C1258.5156,733.6875 1258.8438,733.2344 1258.8438,732.8438 C1258.8438,732.3906 1258.4531,732 1257.9844,732 C1257.7656,732 1257.5625,732.0781 1257.375,732.2656 C1256.9219,732.75 1256.9219,732.75 1256.7344,732.8438 C1256.3125,733.1094 1255.625,733.2344 1254.8594,733.2344 C1252.8125,733.2344 1251.5156,732.1406 1251.5156,730.4375 L1251.5156,729.3438 C1251.5156,727.5625 1252.7656,726.25 1254.5,726.25 C1255.0781,726.25 1255.6875,726.4063 1256.1563,726.6563 C1256.6406,726.9375 1256.8125,727.1563 1256.9063,727.5625 C1256.9688,727.9688 1257,728.0938 1257.1406,728.2188 C1257.2813,728.3594 1257.5156,728.4688 1257.7344,728.4688 C1258,728.4688 1258.2656,728.3281 1258.4375,728.1094 C1258.5469,727.9531 1258.5781,727.7656 1258.5781,727.3438 L1258.5781,725.9219 C1258.5781,725.4844 1258.5625,725.3594 1258.4688,725.2031 C1258.3125,724.9375 1258.0313,724.7969 1257.7344,724.7969 C1257.4375,724.7969 1257.2344,724.8906 1257.0156,725.2031 L1256.8438,725.125 Z " fill="#000000"/><text fill="#000000" font-family="sans-serif" font-size="12" lengthAdjust="spacing" textLength="98" x="1268.5" y="733.6074">HardwareSwitch</text><line style="stroke:#A80036;stroke-width:1.5;" x1="1240.5" x2="1368.5" y1="745.4531" y2="745.4531"/><line style="stroke:#A80036;stroke-width:1.5;" x1="1240.5" x2="1368.5" y1="753.4531" y2="753.4531"/><!--MD5=[e693a0ef36dc6bb4f0b0773d300e137a]
class SoftwareButton--><rect codeLine="90" fill="#FEFECE" filter="url(#f18o56rk52kurh)" height="48" id="SoftwareButton" style="stroke:#A80036;stroke-width:1.5;" width="124" x="1035.5" y="713.4531"/><ellipse cx="1050.5" cy="729.4531" fill="#ADD1B2" rx="11" ry="11" style="stroke:#A80036;stroke-width:1.0;"/><path d="M1052.8438,725.125 C1051.9063,724.6875 1051.3125,724.5469 1050.4375,724.5469 C1047.8125,724.5469 1045.8125,726.625 1045.8125,729.3438 L1045.8125,730.4688 C1045.8125,733.0469 1047.9219,734.9375 1050.8125,734.9375 C1052.0313,734.9375 1053.1875,734.6406 1053.9375,734.0938 C1054.5156,733.6875 1054.8438,733.2344 1054.8438,732.8438 C1054.8438,732.3906 1054.4531,732 1053.9844,732 C1053.7656,732 1053.5625,732.0781 1053.375,732.2656 C1052.9219,732.75 1052.9219,732.75 1052.7344,732.8438 C1052.3125,733.1094 1051.625,733.2344 1050.8594,733.2344 C1048.8125,733.2344 1047.5156,732.1406 1047.5156,730.4375 L1047.5156,729.3438 C1047.5156,727.5625 1048.7656,726.25 1050.5,726.25 C1051.0781,726.25 1051.6875,726.4063 1052.1563,726.6563 C1052.6406,726.9375 1052.8125,727.1563 1052.9063,727.5625 C1052.9688,727.9688 1053,728.0938 1053.1406,728.2188 C1053.2813,728.3594 1053.5156,728.4688 1053.7344,728.4688 C1054,728.4688 1054.2656,728.3281 1054.4375,728.1094 C1054.5469,727.9531 1054.5781,727.7656 1054.5781,727.3438 L1054.5781,725.9219 C1054.5781,725.4844 1054.5625,725.3594 1054.4688,725.2031 C1054.3125,724.9375 1054.0313,724.7969 1053.7344,724.7969 C1053.4375,724.7969 1053.2344,724.8906 1053.0156,725.2031 L1052.8438,725.125 Z " fill="#000000"/><text fill="#000000" font-family="sans-serif" font-size="12" lengthAdjust="spacing" textLength="92" x="1064.5" y="733.6074">SoftwareButton</text><line style="stroke:#A80036;stroke-width:1.5;" x1="1036.5" x2="1158.5" y1="745.4531" y2="745.4531"/><line style="stroke:#A80036;stroke-width:1.5;" x1="1036.5" x2="1158.5" y1="753.4531" y2="753.4531"/><!--MD5=[1d7ba1c7002d54515419844fbd155368]
class Controller--><rect codeLine="99" fill="#FEFECE" filter="url(#f18o56rk52kurh)" height="60.8047" id="Controller" style="stroke:#A80036;stroke-width:1.5;" width="91" x="620" y="559.4531"/><ellipse cx="635" cy="575.4531" fill="#ADD1B2" rx="11" ry="11" style="stroke:#A80036;stroke-width:1.0;"/><path d="M637.3438,571.125 C636.4063,570.6875 635.8125,570.5469 634.9375,570.5469 C632.3125,570.5469 630.3125,572.625 630.3125,575.3438 L630.3125,576.4688 C630.3125,579.0469 632.4219,580.9375 635.3125,580.9375 C636.5313,580.9375 637.6875,580.6406 638.4375,580.0938 C639.0156,579.6875 639.3438,579.2344 639.3438,578.8438 C639.3438,578.3906 638.9531,578 638.4844,578 C638.2656,578 638.0625,578.0781 637.875,578.2656 C637.4219,578.75 637.4219,578.75 637.2344,578.8438 C636.8125,579.1094 636.125,579.2344 635.3594,579.2344 C633.3125,579.2344 632.0156,578.1406 632.0156,576.4375 L632.0156,575.3438 C632.0156,573.5625 633.2656,572.25 635,572.25 C635.5781,572.25 636.1875,572.4063 636.6563,572.6563 C637.1406,572.9375 637.3125,573.1563 637.4063,573.5625 C637.4688,573.9688 637.5,574.0938 637.6406,574.2188 C637.7813,574.3594 638.0156,574.4688 638.2344,574.4688 C638.5,574.4688 638.7656,574.3281 638.9375,574.1094 C639.0469,573.9531 639.0781,573.7656 639.0781,573.3438 L639.0781,571.9219 C639.0781,571.4844 639.0625,571.3594 638.9688,571.2031 C638.8125,570.9375 638.5313,570.7969 638.2344,570.7969 C637.9375,570.7969 637.7344,570.8906 637.5156,571.2031 L637.3438,571.125 Z " fill="#000000"/><text fill="#000000" font-family="sans-serif" font-size="12" lengthAdjust="spacing" textLength="59" x="649" y="579.6074">Controller</text><line style="stroke:#A80036;stroke-width:1.5;" x1="621" x2="710" y1="591.4531" y2="591.4531"/><line style="stroke:#A80036;stroke-width:1.5;" x1="621" x2="710" y1="599.4531" y2="599.4531"/><text fill="#000000" font-family="sans-serif" font-size="11" lengthAdjust="spacing" textLength="56" x="626" y="613.6636">execute()</text><!--MD5=[cb01a8692b2cc59b104ca1105e19224b]
link DimmLight to SwitchLight--><path codeLine="105" d="M128.5,242.9731 C128.5,242.9731 128.5,328.3371 128.5,328.3371 " fill="none" id="DimmLight-to-SwitchLight" style="stroke:#A80036;stroke-width:1.0;"/><polygon fill="none" points="135.5,328.3371,128.5,348.3371,121.5,328.3371,135.5,328.3371" style="stroke:#A80036;stroke-width:1.0;"/><!--MD5=[1aaec5138a4b9357a6d8e4047695cafd]
reverse link ConfigurableLight to DimmLight--><path codeLine="106" d="M128.5,109.0151 C128.5,109.0151 128.5,168.8981 128.5,168.8981 " fill="none" id="ConfigurableLight-backto-DimmLight" style="stroke:#A80036;stroke-width:1.0;"/><polygon fill="none" points="121.5,109.0151,128.5,89.0151,135.5,109.0151,121.5,109.0151" style="stroke:#A80036;stroke-width:1.0;"/><!--MD5=[6446f8fdd0b8835ccc6a9a22414c0998]
link SwitchLight to MultipleLightBase--><path codeLine="107" d="M216.535,397.9531 C216.535,397.9531 271.791,397.9531 271.791,397.9531 " fill="none" id="SwitchLight-MultipleLightBase" style="stroke:#A80036;stroke-width:1.0;"/><polygon fill="#FFFFFF" points="283.791,397.9531,277.791,393.9531,271.791,397.9531,277.791,401.9531,283.791,397.9531" style="stroke:#A80036;stroke-width:1.0;"/><polygon fill="#A80036" points="203.535,397.9531,212.535,401.9531,208.535,397.9531,212.535,393.9531,203.535,397.9531" style="stroke:#A80036;stroke-width:1.0;"/><line style="stroke:#A80036;stroke-width:1.0;" x1="208.535" x2="216.535" y1="397.9531" y2="397.9531"/><text fill="#000000" font-family="sans-serif" font-size="13" lengthAdjust="spacing" textLength="24" x="251.8875" y="394.5776">1..1</text><text fill="#000000" font-family="sans-serif" font-size="13" lengthAdjust="spacing" textLength="23" x="211.5124" y="394.3247">1..*</text><!--MD5=[6c203e18e9e22b71a7cc0ed3be7dc826]
reverse link MultipleLightBase to Scene--><path codeLine="109" d="M263.758,460.9531 C263.758,460.9531 226.75,460.9531 226.75,460.9531 C226.75,460.9531 226.75,514.5421 226.75,552.6411 " fill="none" id="MultipleLightBase-backto-Scene" style="stroke:#A80036;stroke-width:1.0;"/><polygon fill="none" points="263.758,453.9531,283.758,460.9531,263.758,467.9531,263.758,453.9531" style="stroke:#A80036;stroke-width:1.0;"/><!--MD5=[1a6698b5bd5b3ddc178d7e4b964139e2]
reverse link MultipleLightBase to Group--><path codeLine="110" d="M412.5,493.0101 C412.5,493.0101 412.5,552.7251 412.5,552.7251 " fill="none" id="MultipleLightBase-backto-Group" style="stroke:#A80036;stroke-width:1.0;"/><polygon fill="none" points="405.5,493.0101,412.5,473.0101,419.5,493.0101,405.5,493.0101" style="stroke:#A80036;stroke-width:1.0;"/><!--MD5=[11c7a865d013f8f906f21b7b42d589b6]
reverse link MultipleLightBase to ControllerBase--><path codeLine="112" d="M538.24,397.9531 C538.24,397.9531 612.719,397.9531 612.719,397.9531 " fill="none" id="MultipleLightBase-backto-ControllerBase" style="stroke:#A80036;stroke-width:1.0;"/><polygon fill="#A80036" points="533.24,397.9531,542.24,401.9531,538.24,397.9531,542.24,393.9531,533.24,397.9531" style="stroke:#A80036;stroke-width:1.0;"/><!--MD5=[6552e1941b831056a5a38268f10f8db2]
link ControllerBase to SensorBase--><path codeLine="113" d="M734.079,397.9531 C734.079,397.9531 816.873,397.9531 816.873,397.9531 " fill="none" id="ControllerBase-to-SensorBase" style="stroke:#A80036;stroke-width:1.0;"/><polygon fill="#A80036" points="821.873,397.9531,812.873,393.9531,816.873,397.9531,812.873,401.9531,821.873,397.9531" style="stroke:#A80036;stroke-width:1.0;"/><!--MD5=[7ac100b955170c5645d84465e7735958]
reverse link ControllerBase to Controller--><path codeLine="114" d="M665.5,461.0421 C665.5,461.0421 665.5,559.2501 665.5,559.2501 " fill="none" id="ControllerBase-backto-Controller" style="stroke:#A80036;stroke-width:1.0;"/><polygon fill="none" points="658.5,461.0421,665.5,441.0421,672.5,461.0421,658.5,461.0421" style="stroke:#A80036;stroke-width:1.0;"/><!--MD5=[e182ec2800077731ec4b05ac74542c77]
reverse link SensorBase to TriggerSensor_Base--><path codeLine="116" d="M947.091,397.9531 C947.091,397.9531 1115.5,397.9531 1115.5,397.9531 C1115.5,397.9531 1115.5,497.1411 1115.5,552.9331 " fill="none" id="SensorBase-backto-TriggerSensor_Base" style="stroke:#A80036;stroke-width:1.0;"/><polygon fill="none" points="947.091,404.9531,927.091,397.9531,947.091,390.9531,947.091,404.9531" style="stroke:#A80036;stroke-width:1.0;"/><!--MD5=[327fd8defcd5a0e8f5f74e633b4192be]
reverse link SensorBase to SamplingSensor_Base--><path codeLine="117" d="M874.5,461.0421 C874.5,461.0421 874.5,559.2501 874.5,559.2501 " fill="none" id="SensorBase-backto-SamplingSensor_Base" style="stroke:#A80036;stroke-width:1.0;"/><polygon fill="none" points="867.5,461.0421,874.5,441.0421,881.5,461.0421,867.5,461.0421" style="stroke:#A80036;stroke-width:1.0;"/><!--MD5=[b6d8123e494df3a217ece147fa744bbd]
reverse link TriggerSensor_Base to HardwareSwitch--><path codeLine="118" d="M1176.25,647.3001 C1176.25,647.3001 1176.25,737.9531 1176.25,737.9531 C1176.25,737.9531 1207.57,737.9531 1239.25,737.9531 " fill="none" id="TriggerSensor_Base-backto-HardwareSwitch" style="stroke:#A80036;stroke-width:1.0;"/><polygon fill="none" points="1169.25,647.3001,1176.25,627.3001,1183.25,647.3001,1169.25,647.3001" style="stroke:#A80036;stroke-width:1.0;"/><!--MD5=[8450e11ae1255b9519b4209fa8c88537]
reverse link TriggerSensor_Base to SoftwareButton--><path codeLine="119" d="M1098.75,647.1731 C1098.75,647.1731 1098.75,713.1998 1098.75,713.1998 " fill="none" id="TriggerSensor_Base-backto-SoftwareButton" style="stroke:#A80036;stroke-width:1.0;"/><polygon fill="none" points="1091.75,647.1741,1098.75,627.1731,1105.75,647.1731,1091.75,647.1741" style="stroke:#A80036;stroke-width:1.0;"/><!--MD5=[94d6e7c2960564ac6abc44038f6976eb]
reverse link SamplingSensor_Base to DayLightSensor--><path codeLine="120" d="M874.5,640.5151 C874.5,640.5151 874.5,706.9302 874.5,706.9302 " fill="none" id="SamplingSensor_Base-backto-DayLightSensor" style="stroke:#A80036;stroke-width:1.0;"/><polygon fill="none" points="867.5,640.5151,874.5,620.5151,881.5,640.5151,867.5,640.5151" style="stroke:#A80036;stroke-width:1.0;"/><!--MD5=[d54354760f2ccdf95d38596c8ba9808b]
link SwitchLight to Scene--><!--MD5=[e3aa98a33896cdf642cf200fbc98918d]
@startuml
' Settings
' ============================

' use +,#,- instead of icons
'skinparam classAttributeIconSize 0

' horizontal distance in px
skinparam nodesep 80 

' vertical distance in px
skinparam ranksep 80

' use only straight lines (ortho/polyline)
skinparam linetype ortho

' title
title 1-2-2 UML Objects



' Abstract Classes
' ============================
class MultipleLightBase{
    -Name: String
    #handle: List<SwitchLight*>
    #configHandle: List<ConfigurableLight*>
    +appendSwitchLight()
    +appendConfigurableLight()
    +setupLights()
    +on()
    +off()
}

class SensorBase{
    -ID: Integer
    -Name: String
    #sampling()
}

class TriggerSensor_Base{
    #isPressed()
    #state: Bool
}

class SamplingSensor_Base{
    #isNewSample()
}

class ControllerBase{
    +ID: Integer
    #sensor: Generic
    #isTriggered()
}

class ConfigurableLight{
    +configure()
}
' Concrete Classes
' ============================
class SwitchLight{
    -state: on/off
    -brightness: 100, const
    #lightID: Integer
    +switch(state: bool)
}

class DimmLight{
    -brightness: Integer
    +configure()
}

class Group{
    -brightness: Integer
    +setupLights(): brightness 
}

class Scene{
    -lightSettings: List<lightID, brightness>
    +setupLights(): lightSettings
}

class DayLightSensor{
    - Lux: Float
}

class HardwareSwitch{
    
}

class SoftwareButton{
    
}


'class GroupController{}

'class SceneController{}

class Controller{
    execute()
}

' Relations
' ================================
DimmLight - -|> SwitchLight  
DimmLight -u-|> ConfigurableLight  
MultipleLightBase "1..*" o-l-> "1..1"SwitchLight

MultipleLightBase <|-d- Scene
MultipleLightBase <|-d- Group

MultipleLightBase <-r- ControllerBase
ControllerBase -r-> SensorBase
Controller -u-|> ControllerBase

SensorBase <|- - TriggerSensor_Base
SensorBase <|- - SamplingSensor_Base
TriggerSensor_Base <|- - HardwareSwitch
TriggerSensor_Base <|-d- SoftwareButton
SamplingSensor_Base <|- - DayLightSensor


' This is just for better graph allignment
Scene -[hidden]l- SwitchLight
@enduml

@startuml


skinparam nodesep 80 

skinparam ranksep 80

skinparam linetype ortho

title 1-2-2 UML Objects



class MultipleLightBase{
    -Name: String
    #handle: List<SwitchLight*>
    #configHandle: List<ConfigurableLight*>
    +appendSwitchLight()
    +appendConfigurableLight()
    +setupLights()
    +on()
    +off()
}

class SensorBase{
    -ID: Integer
    -Name: String
    #sampling()
}

class TriggerSensor_Base{
    #isPressed()
    #state: Bool
}

class SamplingSensor_Base{
    #isNewSample()
}

class ControllerBase{
    +ID: Integer
    #sensor: Generic
    #isTriggered()
}

class ConfigurableLight{
    +configure()
}
class SwitchLight{
    -state: on/off
    -brightness: 100, const
    #lightID: Integer
    +switch(state: bool)
}

class DimmLight{
    -brightness: Integer
    +configure()
}

class Group{
    -brightness: Integer
    +setupLights(): brightness 
}

class Scene{
    -lightSettings: List<lightID, brightness>
    +setupLights(): lightSettings
}

class DayLightSensor{
    - Lux: Float
}

class HardwareSwitch{
    
}

class SoftwareButton{
    
}




class Controller{
    execute()
}

DimmLight - -|> SwitchLight  
DimmLight -u-|> ConfigurableLight  
MultipleLightBase "1..*" o-l-> "1..1"SwitchLight

MultipleLightBase <|-d- Scene
MultipleLightBase <|-d- Group

MultipleLightBase <-r- ControllerBase
ControllerBase -r-> SensorBase
Controller -u-|> ControllerBase

SensorBase <|- - TriggerSensor_Base
SensorBase <|- - SamplingSensor_Base
TriggerSensor_Base <|- - HardwareSwitch
TriggerSensor_Base <|-d- SoftwareButton
SamplingSensor_Base <|- - DayLightSensor


Scene -[hidden]l- SwitchLight
@enduml

PlantUML version 1.2021.15(Tue Nov 30 16:45:34 UTC 2021)
(GPL source distribution)
Java Runtime: Java(TM) SE Runtime Environment
JVM: Java HotSpot(TM) 64-Bit Server VM
Default Encoding: UTF-8
Language: en
Country: US
--></g></svg>