<?xml version="1.0" encoding="UTF-8" standalone="no"?><svg xmlns="http://www.w3.org/2000/svg" xmlns:xlink="http://www.w3.org/1999/xlink" contentScriptType="application/ecmascript" contentStyleType="text/css" height="883px" preserveAspectRatio="none" style="width:1470px;height:883px;background:#FFFFFF;" version="1.1" viewBox="0 0 1470 883" width="1470px" zoomAndPan="magnify"><defs><filter height="300%" id="fyvma2ox3xpcd" width="300%" x="-1" y="-1"><feGaussianBlur result="blurOut" stdDeviation="2.0"/><feColorMatrix in="blurOut" result="blurOut2" type="matrix" values="0 0 0 0 0 0 0 0 0 0 0 0 0 0 0 0 0 0 .4 0"/><feOffset dx="4.0" dy="4.0" in="blurOut2" result="blurOut3"/><feBlend in="SourceGraphic" in2="blurOut3" mode="normal"/></filter></defs><g><text fill="#000000" font-family="sans-serif" font-size="18" lengthAdjust="spacing" textLength="171" x="643.25" y="16.708">1-2-4 UML Objects</text><!--MD5=[c46ae90ce51194a21ad024ae1dce56fb]
class MultipleLightBase--><rect codeLine="23" fill="#FEFECE" filter="url(#fyvma2ox3xpcd)" height="150.4375" id="MultipleLightBase" style="stroke:#A80036;stroke-width:1.5;" width="249" x="380.5" y="424.9531"/><ellipse cx="448.75" cy="440.9531" fill="#ADD1B2" rx="11" ry="11" style="stroke:#A80036;stroke-width:1.0;"/><path d="M451.0938,436.625 C450.1563,436.1875 449.5625,436.0469 448.6875,436.0469 C446.0625,436.0469 444.0625,438.125 444.0625,440.8438 L444.0625,441.9688 C444.0625,444.5469 446.1719,446.4375 449.0625,446.4375 C450.2813,446.4375 451.4375,446.1406 452.1875,445.5938 C452.7656,445.1875 453.0938,444.7344 453.0938,444.3438 C453.0938,443.8906 452.7031,443.5 452.2344,443.5 C452.0156,443.5 451.8125,443.5781 451.625,443.7656 C451.1719,444.25 451.1719,444.25 450.9844,444.3438 C450.5625,444.6094 449.875,444.7344 449.1094,444.7344 C447.0625,444.7344 445.7656,443.6406 445.7656,441.9375 L445.7656,440.8438 C445.7656,439.0625 447.0156,437.75 448.75,437.75 C449.3281,437.75 449.9375,437.9063 450.4063,438.1563 C450.8906,438.4375 451.0625,438.6563 451.1563,439.0625 C451.2188,439.4688 451.25,439.5938 451.3906,439.7188 C451.5313,439.8594 451.7656,439.9688 451.9844,439.9688 C452.25,439.9688 452.5156,439.8281 452.6875,439.6094 C452.7969,439.4531 452.8281,439.2656 452.8281,438.8438 L452.8281,437.4219 C452.8281,436.9844 452.8125,436.8594 452.7188,436.7031 C452.5625,436.4375 452.2813,436.2969 451.9844,436.2969 C451.6875,436.2969 451.4844,436.3906 451.2656,436.7031 L451.0938,436.625 Z " fill="#000000"/><text fill="#000000" font-family="sans-serif" font-size="12" lengthAdjust="spacing" textLength="104" x="469.25" y="445.1074">MultipleLightBase</text><line style="stroke:#A80036;stroke-width:1.5;" x1="381.5" x2="628.5" y1="456.9531" y2="456.9531"/><rect fill="none" height="6" style="stroke:#C82930;stroke-width:1.0;" width="6" x="388.5" y="464.9531"/><text fill="#000000" font-family="sans-serif" font-size="11" lengthAdjust="spacing" textLength="74" x="400.5" y="471.1636">Name: String</text><polygon fill="none" points="391.5,475.7578,395.5,479.7578,391.5,483.7578,387.5,479.7578" style="stroke:#B38D22;stroke-width:1.0;"/><text fill="#000000" font-family="sans-serif" font-size="11" lengthAdjust="spacing" textLength="153" x="400.5" y="483.9683">handle: List&lt;SwitchLight*&gt;</text><polygon fill="none" points="391.5,488.5625,395.5,492.5625,391.5,496.5625,387.5,492.5625" style="stroke:#B38D22;stroke-width:1.0;"/><text fill="#000000" font-family="sans-serif" font-size="11" lengthAdjust="spacing" textLength="223" x="400.5" y="496.7729">configHandle: List&lt;ConfigurableLight*&gt;</text><line style="stroke:#A80036;stroke-width:1.5;" x1="381.5" x2="628.5" y1="503.3672" y2="503.3672"/><ellipse cx="391.5" cy="514.3672" fill="#84BE84" rx="3" ry="3" style="stroke:#038048;stroke-width:1.0;"/><text fill="#000000" font-family="sans-serif" font-size="11" lengthAdjust="spacing" textLength="115" x="400.5" y="517.5776">appendSwitchLight()</text><ellipse cx="391.5" cy="527.1719" fill="#84BE84" rx="3" ry="3" style="stroke:#038048;stroke-width:1.0;"/><text fill="#000000" font-family="sans-serif" font-size="11" lengthAdjust="spacing" textLength="150" x="400.5" y="530.3823">appendConfigurableLight()</text><ellipse cx="391.5" cy="539.9766" fill="#84BE84" rx="3" ry="3" style="stroke:#038048;stroke-width:1.0;"/><text fill="#000000" font-family="sans-serif" font-size="11" lengthAdjust="spacing" textLength="73" x="400.5" y="543.187">setupLights()</text><ellipse cx="391.5" cy="552.7813" fill="#84BE84" rx="3" ry="3" style="stroke:#038048;stroke-width:1.0;"/><text fill="#000000" font-family="sans-serif" font-size="11" lengthAdjust="spacing" textLength="22" x="400.5" y="555.9917">on()</text><ellipse cx="391.5" cy="565.5859" fill="#84BE84" rx="3" ry="3" style="stroke:#038048;stroke-width:1.0;"/><text fill="#000000" font-family="sans-serif" font-size="11" lengthAdjust="spacing" textLength="23" x="400.5" y="568.7964">off()</text><!--MD5=[7400da8a0c24ae3c05718233195d1204]
class SensorBase--><rect codeLine="34" fill="#FEFECE" filter="url(#fyvma2ox3xpcd)" height="124.8281" id="SensorBase" style="stroke:#A80036;stroke-width:1.5;" width="126" x="791" y="437.4531"/><ellipse cx="815.45" cy="453.4531" fill="#ADD1B2" rx="11" ry="11" style="stroke:#A80036;stroke-width:1.0;"/><path d="M817.7938,449.125 C816.8563,448.6875 816.2625,448.5469 815.3875,448.5469 C812.7625,448.5469 810.7625,450.625 810.7625,453.3438 L810.7625,454.4688 C810.7625,457.0469 812.8719,458.9375 815.7625,458.9375 C816.9813,458.9375 818.1375,458.6406 818.8875,458.0938 C819.4656,457.6875 819.7938,457.2344 819.7938,456.8438 C819.7938,456.3906 819.4031,456 818.9344,456 C818.7156,456 818.5125,456.0781 818.325,456.2656 C817.8719,456.75 817.8719,456.75 817.6844,456.8438 C817.2625,457.1094 816.575,457.2344 815.8094,457.2344 C813.7625,457.2344 812.4656,456.1406 812.4656,454.4375 L812.4656,453.3438 C812.4656,451.5625 813.7156,450.25 815.45,450.25 C816.0281,450.25 816.6375,450.4063 817.1063,450.6563 C817.5906,450.9375 817.7625,451.1563 817.8563,451.5625 C817.9188,451.9688 817.95,452.0938 818.0906,452.2188 C818.2313,452.3594 818.4656,452.4688 818.6844,452.4688 C818.95,452.4688 819.2156,452.3281 819.3875,452.1094 C819.4969,451.9531 819.5281,451.7656 819.5281,451.3438 L819.5281,449.9219 C819.5281,449.4844 819.5125,449.3594 819.4188,449.2031 C819.2625,448.9375 818.9813,448.7969 818.6844,448.7969 C818.3875,448.7969 818.1844,448.8906 817.9656,449.2031 L817.7938,449.125 Z " fill="#000000"/><text fill="#000000" font-family="sans-serif" font-size="12" lengthAdjust="spacing" textLength="73" x="831.55" y="457.6074">SensorBase</text><line style="stroke:#A80036;stroke-width:1.5;" x1="792" x2="916" y1="469.4531" y2="469.4531"/><rect fill="none" height="6" style="stroke:#C82930;stroke-width:1.0;" width="6" x="799" y="477.4531"/><text fill="#000000" font-family="sans-serif" font-size="11" lengthAdjust="spacing" textLength="60" x="811" y="483.6636">ID: Integer</text><rect fill="none" height="6" style="stroke:#C82930;stroke-width:1.0;" width="6" x="799" y="490.2578"/><text fill="#000000" font-family="sans-serif" font-size="11" lengthAdjust="spacing" textLength="74" x="811" y="496.4683">Name: String</text><line style="stroke:#A80036;stroke-width:1.5;" x1="792" x2="916" y1="503.0625" y2="503.0625"/><polygon fill="#FFFF44" points="802,509.0625,806,513.0625,802,517.0625,798,513.0625" style="stroke:#B38D22;stroke-width:1.0;"/><text fill="#000000" font-family="sans-serif" font-size="11" lengthAdjust="spacing" textLength="59" x="811" y="517.2729">sampling()</text><rect fill="#F24D5C" height="6" style="stroke:#C82930;stroke-width:1.0;" width="6" x="799" y="523.8672"/><text fill="#000000" font-family="sans-serif" font-size="11" lengthAdjust="spacing" textLength="40" x="811" y="530.0776">notify()</text><ellipse cx="802" cy="539.6719" fill="#84BE84" rx="3" ry="3" style="stroke:#038048;stroke-width:1.0;"/><text fill="#000000" font-family="sans-serif" font-size="11" lengthAdjust="spacing" textLength="96" x="811" y="542.8823">attach(Observer)</text><ellipse cx="802" cy="552.4766" fill="#84BE84" rx="3" ry="3" style="stroke:#038048;stroke-width:1.0;"/><text fill="#000000" font-family="sans-serif" font-size="11" lengthAdjust="spacing" textLength="100" x="811" y="555.687">detach(Observer)</text><!--MD5=[d3822c7e40ce664bf74f666f59564e7b]
class TriggerSensor_Base--><rect codeLine="43" fill="#FEFECE" filter="url(#fyvma2ox3xpcd)" height="73.6094" id="TriggerSensor_Base" style="stroke:#A80036;stroke-width:1.5;" width="155" x="776.5" y="654.9531"/><ellipse cx="791.5" cy="670.9531" fill="#ADD1B2" rx="11" ry="11" style="stroke:#A80036;stroke-width:1.0;"/><path d="M793.8438,666.625 C792.9063,666.1875 792.3125,666.0469 791.4375,666.0469 C788.8125,666.0469 786.8125,668.125 786.8125,670.8438 L786.8125,671.9688 C786.8125,674.5469 788.9219,676.4375 791.8125,676.4375 C793.0313,676.4375 794.1875,676.1406 794.9375,675.5938 C795.5156,675.1875 795.8438,674.7344 795.8438,674.3438 C795.8438,673.8906 795.4531,673.5 794.9844,673.5 C794.7656,673.5 794.5625,673.5781 794.375,673.7656 C793.9219,674.25 793.9219,674.25 793.7344,674.3438 C793.3125,674.6094 792.625,674.7344 791.8594,674.7344 C789.8125,674.7344 788.5156,673.6406 788.5156,671.9375 L788.5156,670.8438 C788.5156,669.0625 789.7656,667.75 791.5,667.75 C792.0781,667.75 792.6875,667.9063 793.1563,668.1563 C793.6406,668.4375 793.8125,668.6563 793.9063,669.0625 C793.9688,669.4688 794,669.5938 794.1406,669.7188 C794.2813,669.8594 794.5156,669.9688 794.7344,669.9688 C795,669.9688 795.2656,669.8281 795.4375,669.6094 C795.5469,669.4531 795.5781,669.2656 795.5781,668.8438 L795.5781,667.4219 C795.5781,666.9844 795.5625,666.8594 795.4688,666.7031 C795.3125,666.4375 795.0313,666.2969 794.7344,666.2969 C794.4375,666.2969 794.2344,666.3906 794.0156,666.7031 L793.8438,666.625 Z " fill="#000000"/><text fill="#000000" font-family="sans-serif" font-size="12" lengthAdjust="spacing" textLength="123" x="805.5" y="675.1074">TriggerSensor_Base</text><line style="stroke:#A80036;stroke-width:1.5;" x1="777.5" x2="930.5" y1="686.9531" y2="686.9531"/><polygon fill="none" points="787.5,692.9531,791.5,696.9531,787.5,700.9531,783.5,696.9531" style="stroke:#B38D22;stroke-width:1.0;"/><text fill="#000000" font-family="sans-serif" font-size="11" lengthAdjust="spacing" textLength="61" x="796.5" y="701.1636">state: Bool</text><line style="stroke:#A80036;stroke-width:1.5;" x1="777.5" x2="930.5" y1="707.7578" y2="707.7578"/><polygon fill="#FFFF44" points="787.5,713.7578,791.5,717.7578,787.5,721.7578,783.5,717.7578" style="stroke:#B38D22;stroke-width:1.0;"/><text fill="#000000" font-family="sans-serif" font-size="11" lengthAdjust="spacing" textLength="62" x="796.5" y="721.9683">isPressed()</text><!--MD5=[8f52c63a08f7cb65f8b754ebca7a4a87]
class SamplingSensor_Base--><rect codeLine="49" fill="#FEFECE" filter="url(#fyvma2ox3xpcd)" height="60.8047" id="SamplingSensor_Base" style="stroke:#A80036;stroke-width:1.5;" width="166" x="1127" y="661.4531"/><ellipse cx="1142" cy="677.4531" fill="#ADD1B2" rx="11" ry="11" style="stroke:#A80036;stroke-width:1.0;"/><path d="M1144.3438,673.125 C1143.4063,672.6875 1142.8125,672.5469 1141.9375,672.5469 C1139.3125,672.5469 1137.3125,674.625 1137.3125,677.3438 L1137.3125,678.4688 C1137.3125,681.0469 1139.4219,682.9375 1142.3125,682.9375 C1143.5313,682.9375 1144.6875,682.6406 1145.4375,682.0938 C1146.0156,681.6875 1146.3438,681.2344 1146.3438,680.8438 C1146.3438,680.3906 1145.9531,680 1145.4844,680 C1145.2656,680 1145.0625,680.0781 1144.875,680.2656 C1144.4219,680.75 1144.4219,680.75 1144.2344,680.8438 C1143.8125,681.1094 1143.125,681.2344 1142.3594,681.2344 C1140.3125,681.2344 1139.0156,680.1406 1139.0156,678.4375 L1139.0156,677.3438 C1139.0156,675.5625 1140.2656,674.25 1142,674.25 C1142.5781,674.25 1143.1875,674.4063 1143.6563,674.6563 C1144.1406,674.9375 1144.3125,675.1563 1144.4063,675.5625 C1144.4688,675.9688 1144.5,676.0938 1144.6406,676.2188 C1144.7813,676.3594 1145.0156,676.4688 1145.2344,676.4688 C1145.5,676.4688 1145.7656,676.3281 1145.9375,676.1094 C1146.0469,675.9531 1146.0781,675.7656 1146.0781,675.3438 L1146.0781,673.9219 C1146.0781,673.4844 1146.0625,673.3594 1145.9688,673.2031 C1145.8125,672.9375 1145.5313,672.7969 1145.2344,672.7969 C1144.9375,672.7969 1144.7344,672.8906 1144.5156,673.2031 L1144.3438,673.125 Z " fill="#000000"/><text fill="#000000" font-family="sans-serif" font-size="12" lengthAdjust="spacing" textLength="134" x="1156" y="681.6074">SamplingSensor_Base</text><line style="stroke:#A80036;stroke-width:1.5;" x1="1128" x2="1292" y1="693.4531" y2="693.4531"/><line style="stroke:#A80036;stroke-width:1.5;" x1="1128" x2="1292" y1="701.4531" y2="701.4531"/><polygon fill="#FFFF44" points="1138,707.4531,1142,711.4531,1138,715.4531,1134,711.4531" style="stroke:#B38D22;stroke-width:1.0;"/><text fill="#000000" font-family="sans-serif" font-size="11" lengthAdjust="spacing" textLength="86" x="1147" y="715.6636">isNewSample()</text><!--MD5=[4867a1bb6ec1ef487bf262ea43213ad2]
class ControllerBase--><rect codeLine="54" fill="#FEFECE" filter="url(#fyvma2ox3xpcd)" height="137.6328" id="ControllerBase" style="stroke:#A80036;stroke-width:1.5;" width="136" x="597" y="206.9531"/><ellipse cx="618.75" cy="222.9531" fill="#ADD1B2" rx="11" ry="11" style="stroke:#A80036;stroke-width:1.0;"/><path d="M621.0938,218.625 C620.1563,218.1875 619.5625,218.0469 618.6875,218.0469 C616.0625,218.0469 614.0625,220.125 614.0625,222.8438 L614.0625,223.9688 C614.0625,226.5469 616.1719,228.4375 619.0625,228.4375 C620.2813,228.4375 621.4375,228.1406 622.1875,227.5938 C622.7656,227.1875 623.0938,226.7344 623.0938,226.3438 C623.0938,225.8906 622.7031,225.5 622.2344,225.5 C622.0156,225.5 621.8125,225.5781 621.625,225.7656 C621.1719,226.25 621.1719,226.25 620.9844,226.3438 C620.5625,226.6094 619.875,226.7344 619.1094,226.7344 C617.0625,226.7344 615.7656,225.6406 615.7656,223.9375 L615.7656,222.8438 C615.7656,221.0625 617.0156,219.75 618.75,219.75 C619.3281,219.75 619.9375,219.9063 620.4063,220.1563 C620.8906,220.4375 621.0625,220.6563 621.1563,221.0625 C621.2188,221.4688 621.25,221.5938 621.3906,221.7188 C621.5313,221.8594 621.7656,221.9688 621.9844,221.9688 C622.25,221.9688 622.5156,221.8281 622.6875,221.6094 C622.7969,221.4531 622.8281,221.2656 622.8281,220.8438 L622.8281,219.4219 C622.8281,218.9844 622.8125,218.8594 622.7188,218.7031 C622.5625,218.4375 622.2813,218.2969 621.9844,218.2969 C621.6875,218.2969 621.4844,218.3906 621.2656,218.7031 L621.0938,218.625 Z " fill="#000000"/><text fill="#000000" font-family="sans-serif" font-size="12" lengthAdjust="spacing" textLength="89" x="634.25" y="227.1074">ControllerBase</text><line style="stroke:#A80036;stroke-width:1.5;" x1="598" x2="732" y1="238.9531" y2="238.9531"/><ellipse cx="608" cy="249.9531" rx="3" ry="3" style="stroke:#038048;stroke-width:1.0;fill:none;"/><text fill="#000000" font-family="sans-serif" font-size="11" lengthAdjust="spacing" textLength="60" x="617" y="253.1636">ID: Integer</text><polygon fill="none" points="608,257.7578,612,261.7578,608,265.7578,604,261.7578" style="stroke:#B38D22;stroke-width:1.0;"/><text fill="#000000" font-family="sans-serif" font-size="11" lengthAdjust="spacing" textLength="96" x="617" y="265.9683">Sample: Generic</text><line style="stroke:#A80036;stroke-width:1.5;" x1="598" x2="732" y1="272.5625" y2="272.5625"/><ellipse cx="608" cy="283.5625" fill="#84BE84" rx="3" ry="3" style="stroke:#038048;stroke-width:1.0;"/><text fill="#000000" font-family="sans-serif" font-size="11" lengthAdjust="spacing" textLength="48" x="617" y="286.7729">update()</text><rect fill="#F24D5C" height="6" style="stroke:#C82930;stroke-width:1.0;" width="6" x="605" y="293.3672"/><text fill="#000000" font-family="sans-serif" font-size="11" lengthAdjust="spacing" textLength="110" x="617" y="299.5776">checkSwitch(): Bool</text><ellipse cx="608" cy="309.1719" fill="#84BE84" rx="3" ry="3" style="stroke:#038048;stroke-width:1.0;"/><text fill="#000000" font-family="sans-serif" font-size="11" lengthAdjust="spacing" textLength="54" x="617" y="312.3823">activate()</text><ellipse cx="608" cy="321.9766" fill="#84BE84" rx="3" ry="3" style="stroke:#038048;stroke-width:1.0;"/><text fill="#000000" font-family="sans-serif" font-size="11" lengthAdjust="spacing" textLength="69" x="617" y="325.187">deactivate()</text><polygon fill="#FFFF44" points="608,329.7813,612,333.7813,608,337.7813,604,333.7813" style="stroke:#B38D22;stroke-width:1.0;"/><text fill="#000000" font-family="sans-serif" font-size="11" lengthAdjust="spacing" textLength="56" x="617" y="337.9917">regulate()</text><!--MD5=[87bfd90d1020d53ed2973905772335ab]
class ConfigurableLight--><rect codeLine="65" fill="#FEFECE" filter="url(#fyvma2ox3xpcd)" height="60.8047" id="ConfigurableLight" style="stroke:#A80036;stroke-width:1.5;" width="136" x="156" y="46.9531"/><ellipse cx="171" cy="62.9531" fill="#ADD1B2" rx="11" ry="11" style="stroke:#A80036;stroke-width:1.0;"/><path d="M173.3438,58.625 C172.4063,58.1875 171.8125,58.0469 170.9375,58.0469 C168.3125,58.0469 166.3125,60.125 166.3125,62.8438 L166.3125,63.9688 C166.3125,66.5469 168.4219,68.4375 171.3125,68.4375 C172.5313,68.4375 173.6875,68.1406 174.4375,67.5938 C175.0156,67.1875 175.3438,66.7344 175.3438,66.3438 C175.3438,65.8906 174.9531,65.5 174.4844,65.5 C174.2656,65.5 174.0625,65.5781 173.875,65.7656 C173.4219,66.25 173.4219,66.25 173.2344,66.3438 C172.8125,66.6094 172.125,66.7344 171.3594,66.7344 C169.3125,66.7344 168.0156,65.6406 168.0156,63.9375 L168.0156,62.8438 C168.0156,61.0625 169.2656,59.75 171,59.75 C171.5781,59.75 172.1875,59.9063 172.6563,60.1563 C173.1406,60.4375 173.3125,60.6563 173.4063,61.0625 C173.4688,61.4688 173.5,61.5938 173.6406,61.7188 C173.7813,61.8594 174.0156,61.9688 174.2344,61.9688 C174.5,61.9688 174.7656,61.8281 174.9375,61.6094 C175.0469,61.4531 175.0781,61.2656 175.0781,60.8438 L175.0781,59.4219 C175.0781,58.9844 175.0625,58.8594 174.9688,58.7031 C174.8125,58.4375 174.5313,58.2969 174.2344,58.2969 C173.9375,58.2969 173.7344,58.3906 173.5156,58.7031 L173.3438,58.625 Z " fill="#000000"/><text fill="#000000" font-family="sans-serif" font-size="12" lengthAdjust="spacing" textLength="104" x="185" y="67.1074">ConfigurableLight</text><line style="stroke:#A80036;stroke-width:1.5;" x1="157" x2="291" y1="78.9531" y2="78.9531"/><line style="stroke:#A80036;stroke-width:1.5;" x1="157" x2="291" y1="86.9531" y2="86.9531"/><ellipse cx="167" cy="97.9531" fill="#84BE84" rx="3" ry="3" style="stroke:#038048;stroke-width:1.0;"/><text fill="#000000" font-family="sans-serif" font-size="11" lengthAdjust="spacing" textLength="61" x="176" y="101.1636">configure()</text><!--MD5=[999e49f72af8639b360af99f8c1ff713]
class SwitchLight--><rect codeLine="70" fill="#FEFECE" filter="url(#fyvma2ox3xpcd)" height="99.2188" id="SwitchLight" style="stroke:#A80036;stroke-width:1.5;" width="150" x="149" y="450.4531"/><ellipse cx="186.95" cy="466.4531" fill="#ADD1B2" rx="11" ry="11" style="stroke:#A80036;stroke-width:1.0;"/><path d="M189.2938,462.125 C188.3563,461.6875 187.7625,461.5469 186.8875,461.5469 C184.2625,461.5469 182.2625,463.625 182.2625,466.3438 L182.2625,467.4688 C182.2625,470.0469 184.3719,471.9375 187.2625,471.9375 C188.4813,471.9375 189.6375,471.6406 190.3875,471.0938 C190.9656,470.6875 191.2938,470.2344 191.2938,469.8438 C191.2938,469.3906 190.9031,469 190.4344,469 C190.2156,469 190.0125,469.0781 189.825,469.2656 C189.3719,469.75 189.3719,469.75 189.1844,469.8438 C188.7625,470.1094 188.075,470.2344 187.3094,470.2344 C185.2625,470.2344 183.9656,469.1406 183.9656,467.4375 L183.9656,466.3438 C183.9656,464.5625 185.2156,463.25 186.95,463.25 C187.5281,463.25 188.1375,463.4063 188.6063,463.6563 C189.0906,463.9375 189.2625,464.1563 189.3563,464.5625 C189.4188,464.9688 189.45,465.0938 189.5906,465.2188 C189.7313,465.3594 189.9656,465.4688 190.1844,465.4688 C190.45,465.4688 190.7156,465.3281 190.8875,465.1094 C190.9969,464.9531 191.0281,464.7656 191.0281,464.3438 L191.0281,462.9219 C191.0281,462.4844 191.0125,462.3594 190.9188,462.2031 C190.7625,461.9375 190.4813,461.7969 190.1844,461.7969 C189.8875,461.7969 189.6844,461.8906 189.4656,462.2031 L189.2938,462.125 Z " fill="#000000"/><text fill="#000000" font-family="sans-serif" font-size="12" lengthAdjust="spacing" textLength="67" x="206.05" y="470.6074">SwitchLight</text><line style="stroke:#A80036;stroke-width:1.5;" x1="150" x2="298" y1="482.4531" y2="482.4531"/><rect fill="none" height="6" style="stroke:#C82930;stroke-width:1.0;" width="6" x="157" y="490.4531"/><text fill="#000000" font-family="sans-serif" font-size="11" lengthAdjust="spacing" textLength="69" x="169" y="496.6636">state: on/off</text><rect fill="none" height="6" style="stroke:#C82930;stroke-width:1.0;" width="6" x="157" y="503.2578"/><text fill="#000000" font-family="sans-serif" font-size="11" lengthAdjust="spacing" textLength="124" x="169" y="509.4683">brightness: 100, const</text><polygon fill="none" points="160,514.0625,164,518.0625,160,522.0625,156,518.0625" style="stroke:#B38D22;stroke-width:1.0;"/><text fill="#000000" font-family="sans-serif" font-size="11" lengthAdjust="spacing" textLength="84" x="169" y="522.2729">lightID: Integer</text><line style="stroke:#A80036;stroke-width:1.5;" x1="150" x2="298" y1="528.8672" y2="528.8672"/><ellipse cx="160" cy="539.8672" fill="#84BE84" rx="3" ry="3" style="stroke:#038048;stroke-width:1.0;"/><text fill="#000000" font-family="sans-serif" font-size="11" lengthAdjust="spacing" textLength="103" x="169" y="543.0776">switch(state: bool)</text><!--MD5=[a54edd4c870d7b3a603adac8183ae883]
class DimmLight--><rect codeLine="77" fill="#FEFECE" filter="url(#fyvma2ox3xpcd)" height="73.6094" id="DimmLight" style="stroke:#A80036;stroke-width:1.5;" width="133" x="157.5" y="238.9531"/><ellipse cx="190.05" cy="254.9531" fill="#ADD1B2" rx="11" ry="11" style="stroke:#A80036;stroke-width:1.0;"/><path d="M192.3938,250.625 C191.4563,250.1875 190.8625,250.0469 189.9875,250.0469 C187.3625,250.0469 185.3625,252.125 185.3625,254.8438 L185.3625,255.9688 C185.3625,258.5469 187.4719,260.4375 190.3625,260.4375 C191.5813,260.4375 192.7375,260.1406 193.4875,259.5938 C194.0656,259.1875 194.3938,258.7344 194.3938,258.3438 C194.3938,257.8906 194.0031,257.5 193.5344,257.5 C193.3156,257.5 193.1125,257.5781 192.925,257.7656 C192.4719,258.25 192.4719,258.25 192.2844,258.3438 C191.8625,258.6094 191.175,258.7344 190.4094,258.7344 C188.3625,258.7344 187.0656,257.6406 187.0656,255.9375 L187.0656,254.8438 C187.0656,253.0625 188.3156,251.75 190.05,251.75 C190.6281,251.75 191.2375,251.9063 191.7063,252.1563 C192.1906,252.4375 192.3625,252.6563 192.4563,253.0625 C192.5188,253.4688 192.55,253.5938 192.6906,253.7188 C192.8313,253.8594 193.0656,253.9688 193.2844,253.9688 C193.55,253.9688 193.8156,253.8281 193.9875,253.6094 C194.0969,253.4531 194.1281,253.2656 194.1281,252.8438 L194.1281,251.4219 C194.1281,250.9844 194.1125,250.8594 194.0188,250.7031 C193.8625,250.4375 193.5813,250.2969 193.2844,250.2969 C192.9875,250.2969 192.7844,250.3906 192.5656,250.7031 L192.3938,250.625 Z " fill="#000000"/><text fill="#000000" font-family="sans-serif" font-size="12" lengthAdjust="spacing" textLength="62" x="207.95" y="259.1074">DimmLight</text><line style="stroke:#A80036;stroke-width:1.5;" x1="158.5" x2="289.5" y1="270.9531" y2="270.9531"/><rect fill="none" height="6" style="stroke:#C82930;stroke-width:1.0;" width="6" x="165.5" y="278.9531"/><text fill="#000000" font-family="sans-serif" font-size="11" lengthAdjust="spacing" textLength="107" x="177.5" y="285.1636">brightness: Integer</text><line style="stroke:#A80036;stroke-width:1.5;" x1="158.5" x2="289.5" y1="291.7578" y2="291.7578"/><ellipse cx="168.5" cy="302.7578" fill="#84BE84" rx="3" ry="3" style="stroke:#038048;stroke-width:1.0;"/><text fill="#000000" font-family="sans-serif" font-size="11" lengthAdjust="spacing" textLength="61" x="177.5" y="305.9683">configure()</text><!--MD5=[41314a0efc36828092cff9ebad2fcafd]
class Group--><rect codeLine="82" fill="#FEFECE" filter="url(#fyvma2ox3xpcd)" height="73.6094" id="Group" style="stroke:#A80036;stroke-width:1.5;" width="165" x="424.5" y="654.9531"/><ellipse cx="484.25" cy="670.9531" fill="#ADD1B2" rx="11" ry="11" style="stroke:#A80036;stroke-width:1.0;"/><path d="M486.5938,666.625 C485.6563,666.1875 485.0625,666.0469 484.1875,666.0469 C481.5625,666.0469 479.5625,668.125 479.5625,670.8438 L479.5625,671.9688 C479.5625,674.5469 481.6719,676.4375 484.5625,676.4375 C485.7813,676.4375 486.9375,676.1406 487.6875,675.5938 C488.2656,675.1875 488.5938,674.7344 488.5938,674.3438 C488.5938,673.8906 488.2031,673.5 487.7344,673.5 C487.5156,673.5 487.3125,673.5781 487.125,673.7656 C486.6719,674.25 486.6719,674.25 486.4844,674.3438 C486.0625,674.6094 485.375,674.7344 484.6094,674.7344 C482.5625,674.7344 481.2656,673.6406 481.2656,671.9375 L481.2656,670.8438 C481.2656,669.0625 482.5156,667.75 484.25,667.75 C484.8281,667.75 485.4375,667.9063 485.9063,668.1563 C486.3906,668.4375 486.5625,668.6563 486.6563,669.0625 C486.7188,669.4688 486.75,669.5938 486.8906,669.7188 C487.0313,669.8594 487.2656,669.9688 487.4844,669.9688 C487.75,669.9688 488.0156,669.8281 488.1875,669.6094 C488.2969,669.4531 488.3281,669.2656 488.3281,668.8438 L488.3281,667.4219 C488.3281,666.9844 488.3125,666.8594 488.2188,666.7031 C488.0625,666.4375 487.7813,666.2969 487.4844,666.2969 C487.1875,666.2969 486.9844,666.3906 486.7656,666.7031 L486.5938,666.625 Z " fill="#000000"/><text fill="#000000" font-family="sans-serif" font-size="12" lengthAdjust="spacing" textLength="37" x="504.75" y="675.1074">Group</text><line style="stroke:#A80036;stroke-width:1.5;" x1="425.5" x2="588.5" y1="686.9531" y2="686.9531"/><rect fill="none" height="6" style="stroke:#C82930;stroke-width:1.0;" width="6" x="432.5" y="694.9531"/><text fill="#000000" font-family="sans-serif" font-size="11" lengthAdjust="spacing" textLength="107" x="444.5" y="701.1636">brightness: Integer</text><line style="stroke:#A80036;stroke-width:1.5;" x1="425.5" x2="588.5" y1="707.7578" y2="707.7578"/><ellipse cx="435.5" cy="718.7578" fill="#84BE84" rx="3" ry="3" style="stroke:#038048;stroke-width:1.0;"/><text fill="#000000" font-family="sans-serif" font-size="11" lengthAdjust="spacing" textLength="139" x="444.5" y="721.9683">setupLights(): brightness</text><!--MD5=[e4faacc5b8aef66b11ab0c816bbbc7f8]
class Scene--><rect codeLine="90" fill="#FEFECE" filter="url(#fyvma2ox3xpcd)" height="73.6094" id="Scene" style="stroke:#A80036;stroke-width:1.5;" width="243" x="101.5" y="654.9531"/><ellipse cx="199.75" cy="670.9531" fill="#ADD1B2" rx="11" ry="11" style="stroke:#A80036;stroke-width:1.0;"/><path d="M202.0938,666.625 C201.1563,666.1875 200.5625,666.0469 199.6875,666.0469 C197.0625,666.0469 195.0625,668.125 195.0625,670.8438 L195.0625,671.9688 C195.0625,674.5469 197.1719,676.4375 200.0625,676.4375 C201.2813,676.4375 202.4375,676.1406 203.1875,675.5938 C203.7656,675.1875 204.0938,674.7344 204.0938,674.3438 C204.0938,673.8906 203.7031,673.5 203.2344,673.5 C203.0156,673.5 202.8125,673.5781 202.625,673.7656 C202.1719,674.25 202.1719,674.25 201.9844,674.3438 C201.5625,674.6094 200.875,674.7344 200.1094,674.7344 C198.0625,674.7344 196.7656,673.6406 196.7656,671.9375 L196.7656,670.8438 C196.7656,669.0625 198.0156,667.75 199.75,667.75 C200.3281,667.75 200.9375,667.9063 201.4063,668.1563 C201.8906,668.4375 202.0625,668.6563 202.1563,669.0625 C202.2188,669.4688 202.25,669.5938 202.3906,669.7188 C202.5313,669.8594 202.7656,669.9688 202.9844,669.9688 C203.25,669.9688 203.5156,669.8281 203.6875,669.6094 C203.7969,669.4531 203.8281,669.2656 203.8281,668.8438 L203.8281,667.4219 C203.8281,666.9844 203.8125,666.8594 203.7188,666.7031 C203.5625,666.4375 203.2813,666.2969 202.9844,666.2969 C202.6875,666.2969 202.4844,666.3906 202.2656,666.7031 L202.0938,666.625 Z " fill="#000000"/><text fill="#000000" font-family="sans-serif" font-size="12" lengthAdjust="spacing" textLength="38" x="220.25" y="675.1074">Scene</text><line style="stroke:#A80036;stroke-width:1.5;" x1="102.5" x2="343.5" y1="686.9531" y2="686.9531"/><rect fill="none" height="6" style="stroke:#C82930;stroke-width:1.0;" width="6" x="109.5" y="694.9531"/><text fill="#000000" font-family="sans-serif" font-size="11" lengthAdjust="spacing" textLength="217" x="121.5" y="701.1636">lightSettings: List&lt;lightID, brightness&gt;</text><line style="stroke:#A80036;stroke-width:1.5;" x1="102.5" x2="343.5" y1="707.7578" y2="707.7578"/><ellipse cx="112.5" cy="718.7578" fill="#84BE84" rx="3" ry="3" style="stroke:#038048;stroke-width:1.0;"/><text fill="#000000" font-family="sans-serif" font-size="11" lengthAdjust="spacing" textLength="151" x="121.5" y="721.9683">setupLights(): lightSettings</text><!--MD5=[80a979c5cb1fa74e07dd1637efa6e0a9]
class DayLightSensor--><rect codeLine="97" fill="#FEFECE" filter="url(#fyvma2ox3xpcd)" height="60.8047" id="DayLightSensor" style="stroke:#A80036;stroke-width:1.5;" width="126" x="1147" y="808.9531"/><ellipse cx="1162" cy="824.9531" fill="#ADD1B2" rx="11" ry="11" style="stroke:#A80036;stroke-width:1.0;"/><path d="M1164.3438,820.625 C1163.4063,820.1875 1162.8125,820.0469 1161.9375,820.0469 C1159.3125,820.0469 1157.3125,822.125 1157.3125,824.8438 L1157.3125,825.9688 C1157.3125,828.5469 1159.4219,830.4375 1162.3125,830.4375 C1163.5313,830.4375 1164.6875,830.1406 1165.4375,829.5938 C1166.0156,829.1875 1166.3438,828.7344 1166.3438,828.3438 C1166.3438,827.8906 1165.9531,827.5 1165.4844,827.5 C1165.2656,827.5 1165.0625,827.5781 1164.875,827.7656 C1164.4219,828.25 1164.4219,828.25 1164.2344,828.3438 C1163.8125,828.6094 1163.125,828.7344 1162.3594,828.7344 C1160.3125,828.7344 1159.0156,827.6406 1159.0156,825.9375 L1159.0156,824.8438 C1159.0156,823.0625 1160.2656,821.75 1162,821.75 C1162.5781,821.75 1163.1875,821.9063 1163.6563,822.1563 C1164.1406,822.4375 1164.3125,822.6563 1164.4063,823.0625 C1164.4688,823.4688 1164.5,823.5938 1164.6406,823.7188 C1164.7813,823.8594 1165.0156,823.9688 1165.2344,823.9688 C1165.5,823.9688 1165.7656,823.8281 1165.9375,823.6094 C1166.0469,823.4531 1166.0781,823.2656 1166.0781,822.8438 L1166.0781,821.4219 C1166.0781,820.9844 1166.0625,820.8594 1165.9688,820.7031 C1165.8125,820.4375 1165.5313,820.2969 1165.2344,820.2969 C1164.9375,820.2969 1164.7344,820.3906 1164.5156,820.7031 L1164.3438,820.625 Z " fill="#000000"/><text fill="#000000" font-family="sans-serif" font-size="12" lengthAdjust="spacing" textLength="94" x="1176" y="829.1074">DayLightSensor</text><line style="stroke:#A80036;stroke-width:1.5;" x1="1148" x2="1272" y1="840.9531" y2="840.9531"/><rect fill="none" height="6" style="stroke:#C82930;stroke-width:1.0;" width="6" x="1155" y="848.9531"/><text fill="#000000" font-family="sans-serif" font-size="11" lengthAdjust="spacing" textLength="54" x="1167" y="855.1636">Lux: Float</text><line style="stroke:#A80036;stroke-width:1.5;" x1="1148" x2="1272" y1="861.7578" y2="861.7578"/><!--MD5=[79d86d11b376658584aaf6110ce7a55f]
class HardwareSwitch--><rect codeLine="101" fill="#FEFECE" filter="url(#fyvma2ox3xpcd)" height="48" id="HardwareSwitch" style="stroke:#A80036;stroke-width:1.5;" width="130" x="733" y="815.4531"/><ellipse cx="748" cy="831.4531" fill="#ADD1B2" rx="11" ry="11" style="stroke:#A80036;stroke-width:1.0;"/><path d="M750.3438,827.125 C749.4063,826.6875 748.8125,826.5469 747.9375,826.5469 C745.3125,826.5469 743.3125,828.625 743.3125,831.3438 L743.3125,832.4688 C743.3125,835.0469 745.4219,836.9375 748.3125,836.9375 C749.5313,836.9375 750.6875,836.6406 751.4375,836.0938 C752.0156,835.6875 752.3438,835.2344 752.3438,834.8438 C752.3438,834.3906 751.9531,834 751.4844,834 C751.2656,834 751.0625,834.0781 750.875,834.2656 C750.4219,834.75 750.4219,834.75 750.2344,834.8438 C749.8125,835.1094 749.125,835.2344 748.3594,835.2344 C746.3125,835.2344 745.0156,834.1406 745.0156,832.4375 L745.0156,831.3438 C745.0156,829.5625 746.2656,828.25 748,828.25 C748.5781,828.25 749.1875,828.4063 749.6563,828.6563 C750.1406,828.9375 750.3125,829.1563 750.4063,829.5625 C750.4688,829.9688 750.5,830.0938 750.6406,830.2188 C750.7813,830.3594 751.0156,830.4688 751.2344,830.4688 C751.5,830.4688 751.7656,830.3281 751.9375,830.1094 C752.0469,829.9531 752.0781,829.7656 752.0781,829.3438 L752.0781,827.9219 C752.0781,827.4844 752.0625,827.3594 751.9688,827.2031 C751.8125,826.9375 751.5313,826.7969 751.2344,826.7969 C750.9375,826.7969 750.7344,826.8906 750.5156,827.2031 L750.3438,827.125 Z " fill="#000000"/><text fill="#000000" font-family="sans-serif" font-size="12" lengthAdjust="spacing" textLength="98" x="762" y="835.6074">HardwareSwitch</text><line style="stroke:#A80036;stroke-width:1.5;" x1="734" x2="862" y1="847.4531" y2="847.4531"/><line style="stroke:#A80036;stroke-width:1.5;" x1="734" x2="862" y1="855.4531" y2="855.4531"/><!--MD5=[e693a0ef36dc6bb4f0b0773d300e137a]
class SoftwareButton--><rect codeLine="105" fill="#FEFECE" filter="url(#fyvma2ox3xpcd)" height="48" id="SoftwareButton" style="stroke:#A80036;stroke-width:1.5;" width="124" x="943" y="815.4531"/><ellipse cx="958" cy="831.4531" fill="#ADD1B2" rx="11" ry="11" style="stroke:#A80036;stroke-width:1.0;"/><path d="M960.3438,827.125 C959.4063,826.6875 958.8125,826.5469 957.9375,826.5469 C955.3125,826.5469 953.3125,828.625 953.3125,831.3438 L953.3125,832.4688 C953.3125,835.0469 955.4219,836.9375 958.3125,836.9375 C959.5313,836.9375 960.6875,836.6406 961.4375,836.0938 C962.0156,835.6875 962.3438,835.2344 962.3438,834.8438 C962.3438,834.3906 961.9531,834 961.4844,834 C961.2656,834 961.0625,834.0781 960.875,834.2656 C960.4219,834.75 960.4219,834.75 960.2344,834.8438 C959.8125,835.1094 959.125,835.2344 958.3594,835.2344 C956.3125,835.2344 955.0156,834.1406 955.0156,832.4375 L955.0156,831.3438 C955.0156,829.5625 956.2656,828.25 958,828.25 C958.5781,828.25 959.1875,828.4063 959.6563,828.6563 C960.1406,828.9375 960.3125,829.1563 960.4063,829.5625 C960.4688,829.9688 960.5,830.0938 960.6406,830.2188 C960.7813,830.3594 961.0156,830.4688 961.2344,830.4688 C961.5,830.4688 961.7656,830.3281 961.9375,830.1094 C962.0469,829.9531 962.0781,829.7656 962.0781,829.3438 L962.0781,827.9219 C962.0781,827.4844 962.0625,827.3594 961.9688,827.2031 C961.8125,826.9375 961.5313,826.7969 961.2344,826.7969 C960.9375,826.7969 960.7344,826.8906 960.5156,827.2031 L960.3438,827.125 Z " fill="#000000"/><text fill="#000000" font-family="sans-serif" font-size="12" lengthAdjust="spacing" textLength="92" x="972" y="835.6074">SoftwareButton</text><line style="stroke:#A80036;stroke-width:1.5;" x1="944" x2="1066" y1="847.4531" y2="847.4531"/><line style="stroke:#A80036;stroke-width:1.5;" x1="944" x2="1066" y1="855.4531" y2="855.4531"/><!--MD5=[c053a105bcf153d42bf1c80326010135]
class Clock--><rect codeLine="109" fill="#FEFECE" filter="url(#fyvma2ox3xpcd)" height="60.8047" id="Clock" style="stroke:#A80036;stroke-width:1.5;" width="103" x="1353.5" y="808.9531"/><ellipse cx="1385.6" cy="824.9531" fill="#ADD1B2" rx="11" ry="11" style="stroke:#A80036;stroke-width:1.0;"/><path d="M1387.9438,820.625 C1387.0063,820.1875 1386.4125,820.0469 1385.5375,820.0469 C1382.9125,820.0469 1380.9125,822.125 1380.9125,824.8438 L1380.9125,825.9688 C1380.9125,828.5469 1383.0219,830.4375 1385.9125,830.4375 C1387.1313,830.4375 1388.2875,830.1406 1389.0375,829.5938 C1389.6156,829.1875 1389.9438,828.7344 1389.9438,828.3438 C1389.9438,827.8906 1389.5531,827.5 1389.0844,827.5 C1388.8656,827.5 1388.6625,827.5781 1388.475,827.7656 C1388.0219,828.25 1388.0219,828.25 1387.8344,828.3438 C1387.4125,828.6094 1386.725,828.7344 1385.9594,828.7344 C1383.9125,828.7344 1382.6156,827.6406 1382.6156,825.9375 L1382.6156,824.8438 C1382.6156,823.0625 1383.8656,821.75 1385.6,821.75 C1386.1781,821.75 1386.7875,821.9063 1387.2563,822.1563 C1387.7406,822.4375 1387.9125,822.6563 1388.0063,823.0625 C1388.0688,823.4688 1388.1,823.5938 1388.2406,823.7188 C1388.3813,823.8594 1388.6156,823.9688 1388.8344,823.9688 C1389.1,823.9688 1389.3656,823.8281 1389.5375,823.6094 C1389.6469,823.4531 1389.6781,823.2656 1389.6781,822.8438 L1389.6781,821.4219 C1389.6781,820.9844 1389.6625,820.8594 1389.5688,820.7031 C1389.4125,820.4375 1389.1313,820.2969 1388.8344,820.2969 C1388.5375,820.2969 1388.3344,820.3906 1388.1156,820.7031 L1387.9438,820.625 Z " fill="#000000"/><text fill="#000000" font-family="sans-serif" font-size="12" lengthAdjust="spacing" textLength="33" x="1403.4" y="829.1074">Clock</text><line style="stroke:#A80036;stroke-width:1.5;" x1="1354.5" x2="1455.5" y1="840.9531" y2="840.9531"/><rect fill="none" height="6" style="stroke:#C82930;stroke-width:1.0;" width="6" x="1361.5" y="848.9531"/><text fill="#000000" font-family="sans-serif" font-size="11" lengthAdjust="spacing" textLength="77" x="1373.5" y="855.1636">Time: Integer</text><line style="stroke:#A80036;stroke-width:1.5;" x1="1354.5" x2="1455.5" y1="861.7578" y2="861.7578"/><!--MD5=[0278646e5a3f51edb25d463fe8c5bfab]
class MainController--><rect codeLine="117" fill="#FEFECE" filter="url(#fyvma2ox3xpcd)" height="99.2188" id="MainController" style="stroke:#A80036;stroke-width:1.5;" width="216" x="651" y="27.9531"/><ellipse cx="711.75" cy="43.9531" fill="#ADD1B2" rx="11" ry="11" style="stroke:#A80036;stroke-width:1.0;"/><path d="M714.0938,39.625 C713.1563,39.1875 712.5625,39.0469 711.6875,39.0469 C709.0625,39.0469 707.0625,41.125 707.0625,43.8438 L707.0625,44.9688 C707.0625,47.5469 709.1719,49.4375 712.0625,49.4375 C713.2813,49.4375 714.4375,49.1406 715.1875,48.5938 C715.7656,48.1875 716.0938,47.7344 716.0938,47.3438 C716.0938,46.8906 715.7031,46.5 715.2344,46.5 C715.0156,46.5 714.8125,46.5781 714.625,46.7656 C714.1719,47.25 714.1719,47.25 713.9844,47.3438 C713.5625,47.6094 712.875,47.7344 712.1094,47.7344 C710.0625,47.7344 708.7656,46.6406 708.7656,44.9375 L708.7656,43.8438 C708.7656,42.0625 710.0156,40.75 711.75,40.75 C712.3281,40.75 712.9375,40.9063 713.4063,41.1563 C713.8906,41.4375 714.0625,41.6563 714.1563,42.0625 C714.2188,42.4688 714.25,42.5938 714.3906,42.7188 C714.5313,42.8594 714.7656,42.9688 714.9844,42.9688 C715.25,42.9688 715.5156,42.8281 715.6875,42.6094 C715.7969,42.4531 715.8281,42.2656 715.8281,41.8438 L715.8281,40.4219 C715.8281,39.9844 715.8125,39.8594 715.7188,39.7031 C715.5625,39.4375 715.2813,39.2969 714.9844,39.2969 C714.6875,39.2969 714.4844,39.3906 714.2656,39.7031 L714.0938,39.625 Z " fill="#000000"/><text fill="#000000" font-family="sans-serif" font-size="12" lengthAdjust="spacing" textLength="86" x="732.25" y="48.1074">MainController</text><line style="stroke:#A80036;stroke-width:1.5;" x1="652" x2="866" y1="59.9531" y2="59.9531"/><rect fill="none" height="6" style="stroke:#C82930;stroke-width:1.0;" width="6" x="659" y="67.9531"/><text fill="#000000" font-family="sans-serif" font-size="11" lengthAdjust="spacing" textLength="190" x="671" y="74.1636">controllerList: ControllerBase[1..*]</text><line style="stroke:#A80036;stroke-width:1.5;" x1="652" x2="866" y1="80.7578" y2="80.7578"/><ellipse cx="662" cy="91.7578" fill="#84BE84" rx="3" ry="3" style="stroke:#038048;stroke-width:1.0;"/><text fill="#000000" font-family="sans-serif" font-size="11" lengthAdjust="spacing" textLength="48" x="671" y="94.9683">update()</text><ellipse cx="662" cy="104.5625" fill="#84BE84" rx="3" ry="3" style="stroke:#038048;stroke-width:1.0;"/><text fill="#000000" font-family="sans-serif" font-size="11" lengthAdjust="spacing" textLength="146" x="671" y="107.7729">schedulingSubController()</text><ellipse cx="662" cy="117.3672" fill="#84BE84" rx="3" ry="3" style="stroke:#038048;stroke-width:1.0;"/><text fill="#000000" font-family="sans-serif" font-size="11" lengthAdjust="spacing" textLength="83" x="671" y="120.5776">assignEvents()</text><rect fill="#FEFECE" filter="url(#fyvma2ox3xpcd)" height="33.9688" style="stroke:#A80036;stroke-width:1.5;" width="148" x="245" y="822.4531"/><text fill="#000000" font-family="sans-serif" font-size="12" lengthAdjust="spacing" textLength="134" x="252" y="835.5918">Example_DinningTable</text><line style="stroke:#A80036;stroke-width:1.5;" x1="246" x2="392" y1="840.4219" y2="840.4219"/><rect fill="#FEFECE" filter="url(#fyvma2ox3xpcd)" height="33.9688" style="stroke:#A80036;stroke-width:1.5;" width="158" x="7" y="822.4531"/><text fill="#000000" font-family="sans-serif" font-size="12" lengthAdjust="spacing" textLength="144" x="14" y="835.5918">Example_CookingScene</text><line style="stroke:#A80036;stroke-width:1.5;" x1="8" x2="164" y1="840.4219" y2="840.4219"/><rect fill="#FEFECE" filter="url(#fyvma2ox3xpcd)" height="37.6094" style="stroke:#A80036;stroke-width:1.5;" width="179" x="473.5" y="820.4531"/><text fill="#000000" font-family="sans-serif" font-size="12" lengthAdjust="spacing" textLength="165" x="480.5" y="833.5918">Example_AdaptivePlantLight</text><line style="stroke:#A80036;stroke-width:1.5;" x1="474.5" x2="651.5" y1="838.4219" y2="838.4219"/><polygon fill="#FFFF44" points="484.5,844.4219,488.5,848.4219,484.5,852.4219,480.5,848.4219" style="stroke:#B38D22;stroke-width:1.0;"/><text fill="#000000" font-family="sans-serif" font-size="10" lengthAdjust="spacing" textLength="54" x="493.5" y="851.7041">regulate()</text><!--MD5=[cb01a8692b2cc59b104ca1105e19224b]
link DimmLight to SwitchLight--><path codeLine="138" d="M224,313.1931 C224,313.1931 224,430.4321 224,430.4321 " fill="none" id="DimmLight-to-SwitchLight" style="stroke:#A80036;stroke-width:1.0;"/><polygon fill="none" points="231,430.4321,224,450.4321,217,430.4321,231,430.4321" style="stroke:#A80036;stroke-width:1.0;"/><!--MD5=[1aaec5138a4b9357a6d8e4047695cafd]
reverse link ConfigurableLight to DimmLight--><path codeLine="139" d="M224,128.0341 C224,128.0341 224,238.9111 224,238.9111 " fill="none" id="ConfigurableLight-backto-DimmLight" style="stroke:#A80036;stroke-width:1.0;"/><polygon fill="none" points="217,128.0341,224,108.0341,231,128.0341,217,128.0341" style="stroke:#A80036;stroke-width:1.0;"/><!--MD5=[6446f8fdd0b8835ccc6a9a22414c0998]
link SwitchLight to MultipleLightBase--><path codeLine="140" d="M312.303,499.9531 C312.303,499.9531 368.386,499.9531 368.386,499.9531 " fill="none" id="SwitchLight-MultipleLightBase" style="stroke:#A80036;stroke-width:1.0;"/><polygon fill="#FFFFFF" points="380.386,499.9531,374.386,495.9531,368.386,499.9531,374.386,503.9531,380.386,499.9531" style="stroke:#A80036;stroke-width:1.0;"/><polygon fill="#A80036" points="299.303,499.9531,308.303,503.9531,304.303,499.9531,308.303,495.9531,299.303,499.9531" style="stroke:#A80036;stroke-width:1.0;"/><line style="stroke:#A80036;stroke-width:1.0;" x1="304.303" x2="312.303" y1="499.9531" y2="499.9531"/><text fill="#000000" font-family="sans-serif" font-size="13" lengthAdjust="spacing" textLength="24" x="348.488" y="496.5776">1..1</text><text fill="#000000" font-family="sans-serif" font-size="13" lengthAdjust="spacing" textLength="23" x="307.0339" y="496.3482">1..*</text><!--MD5=[6c203e18e9e22b71a7cc0ed3be7dc826]
reverse link MultipleLightBase to Scene--><path codeLine="142" d="M360.488,562.9531 C360.488,562.9531 321.75,562.9531 321.75,562.9531 C321.75,562.9531 321.75,616.5421 321.75,654.6411 " fill="none" id="MultipleLightBase-backto-Scene" style="stroke:#A80036;stroke-width:1.0;"/><polygon fill="none" points="360.488,555.9531,380.488,562.9531,360.488,569.9531,360.488,555.9531" style="stroke:#A80036;stroke-width:1.0;"/><!--MD5=[1a6698b5bd5b3ddc178d7e4b964139e2]
reverse link MultipleLightBase to Group--><path codeLine="143" d="M507,595.0101 C507,595.0101 507,654.7251 507,654.7251 " fill="none" id="MultipleLightBase-backto-Group" style="stroke:#A80036;stroke-width:1.0;"/><polygon fill="none" points="500,595.0101,507,575.0101,514,595.0101,500,595.0101" style="stroke:#A80036;stroke-width:1.0;"/><!--MD5=[cfd6862660c19a2cece5353312741480]
reverse link ControllerBase to MultipleLightBase--><path codeLine="144" d="M613.25,364.9881 C613.25,364.9881 613.25,424.9151 613.25,424.9151 " fill="none" id="ControllerBase-backto-MultipleLightBase" style="stroke:#A80036;stroke-width:1.0;"/><polygon fill="none" points="606.25,364.9881,613.25,344.9881,620.25,364.9881,606.25,364.9881" style="stroke:#A80036;stroke-width:1.0;"/><!--MD5=[571d1242ec1b9a45e65808ec6bc42ab3]
link MainController to ControllerBase--><path codeLine="146" d="M692,139.0311 C692,139.0311 692,193.8081 692,193.8081 " fill="none" id="MainController-ControllerBase" style="stroke:#A80036;stroke-width:1.0;"/><polygon fill="#A80036" points="692,206.8081,696,197.8081,692,201.8081,688,197.8081,692,206.8081" style="stroke:#A80036;stroke-width:1.0;"/><line style="stroke:#A80036;stroke-width:1.0;" x1="692" x2="692" y1="201.8081" y2="193.8081"/><polygon fill="#FFFFFF" points="692,127.0311,688,133.0311,692,139.0311,696,133.0311,692,127.0311" style="stroke:#A80036;stroke-width:1.0;"/><text fill="#000000" font-family="sans-serif" font-size="13" lengthAdjust="spacing" textLength="23" x="670.5984" y="195.9968">1..*</text><text fill="#000000" font-family="sans-serif" font-size="13" lengthAdjust="spacing" textLength="24" x="656.8906" y="147.1186">1..1</text><!--MD5=[c68215dec0cbba2f871bad97106e9b56]
link MainController to SensorBase--><path codeLine="147" d="M829,140.1621 C829,140.1621 829,425.4221 829,425.4221 " fill="none" id="MainController-SensorBase" style="stroke:#A80036;stroke-width:1.0;"/><polygon fill="#FFFFFF" points="829,437.4221,833,431.4221,829,425.4221,825,431.4221,829,437.4221" style="stroke:#A80036;stroke-width:1.0;"/><polygon fill="#A80036" points="829,127.1621,825,136.1621,829,132.1621,833,136.1621,829,127.1621" style="stroke:#A80036;stroke-width:1.0;"/><line style="stroke:#A80036;stroke-width:1.0;" x1="829" x2="829" y1="132.1621" y2="140.1621"/><!--MD5=[6552e1941b831056a5a38268f10f8db2]
link ControllerBase to SensorBase--><path codeLine="148" d="M692.75,357.9881 C692.75,357.9881 692.75,499.9531 692.75,499.9531 C692.75,499.9531 778.733,499.9531 778.733,499.9531 " fill="none" id="ControllerBase-SensorBase" style="stroke:#A80036;stroke-width:1.0;"/><polygon fill="#FFFFFF" points="790.733,499.9531,784.733,495.9531,778.733,499.9531,784.733,503.9531,790.733,499.9531" style="stroke:#A80036;stroke-width:1.0;"/><polygon fill="#A80036" points="692.75,344.9881,688.75,353.9881,692.75,349.9881,696.75,353.9881,692.75,344.9881" style="stroke:#A80036;stroke-width:1.0;"/><line style="stroke:#A80036;stroke-width:1.0;" x1="692.75" x2="692.75" y1="349.9881" y2="357.9881"/><!--MD5=[e182ec2800077731ec4b05ac74542c77]
reverse link SensorBase to TriggerSensor_Base--><path codeLine="150" d="M854,582.5551 C854,582.5551 854,654.9191 854,654.9191 " fill="none" id="SensorBase-backto-TriggerSensor_Base" style="stroke:#A80036;stroke-width:1.0;"/><polygon fill="none" points="847,582.5551,854,562.5551,861,582.5551,847,582.5551" style="stroke:#A80036;stroke-width:1.0;"/><!--MD5=[327fd8defcd5a0e8f5f74e633b4192be]
reverse link SensorBase to SamplingSensor_Base--><path codeLine="151" d="M937.235,499.9531 C937.235,499.9531 1210,499.9531 1210,499.9531 C1210,499.9531 1210,606.8311 1210,661.1051 " fill="none" id="SensorBase-backto-SamplingSensor_Base" style="stroke:#A80036;stroke-width:1.0;"/><polygon fill="none" points="937.235,506.9531,917.235,499.9531,937.235,492.9531,937.235,506.9531" style="stroke:#A80036;stroke-width:1.0;"/><!--MD5=[b6d8123e494df3a217ece147fa744bbd]
reverse link TriggerSensor_Base to HardwareSwitch--><path codeLine="152" d="M819.75,749.1731 C819.75,749.1731 819.75,815.1998 819.75,815.1998 " fill="none" id="TriggerSensor_Base-backto-HardwareSwitch" style="stroke:#A80036;stroke-width:1.0;"/><polygon fill="none" points="812.75,749.1741,819.75,729.1731,826.75,749.1731,812.75,749.1741" style="stroke:#A80036;stroke-width:1.0;"/><!--MD5=[8450e11ae1255b9519b4209fa8c88537]
reverse link TriggerSensor_Base to SoftwareButton--><path codeLine="153" d="M897.25,749.3001 C897.25,749.3001 897.25,839.9531 897.25,839.9531 C897.25,839.9531 918.994,839.9531 942.946,839.9531 " fill="none" id="TriggerSensor_Base-backto-SoftwareButton" style="stroke:#A80036;stroke-width:1.0;"/><polygon fill="none" points="890.25,749.3001,897.25,729.3001,904.25,749.3001,890.25,749.3001" style="stroke:#A80036;stroke-width:1.0;"/><!--MD5=[94d6e7c2960564ac6abc44038f6976eb]
reverse link SamplingSensor_Base to DayLightSensor--><path codeLine="154" d="M1210,742.5151 C1210,742.5151 1210,808.9302 1210,808.9302 " fill="none" id="SamplingSensor_Base-backto-DayLightSensor" style="stroke:#A80036;stroke-width:1.0;"/><polygon fill="none" points="1203,742.5151,1210,722.5151,1217,742.5151,1203,742.5151" style="stroke:#A80036;stroke-width:1.0;"/><!--MD5=[603ac03cacfab4a195b9fe2bed7909c5]
reverse link SamplingSensor_Base to Clock--><path codeLine="155" d="M1283,742.6191 C1283,742.6191 1283,839.9531 1283,839.9531 C1283,839.9531 1320.01,839.9531 1353.26,839.9531 " fill="none" id="SamplingSensor_Base-backto-Clock" style="stroke:#A80036;stroke-width:1.0;"/><polygon fill="none" points="1276,742.6191,1283,722.6191,1290,742.6191,1276,742.6191" style="stroke:#A80036;stroke-width:1.0;"/><!--MD5=[9eedb306036ce31a207df431be748e90]
reverse link Group to Example_DinningTable--><path codeLine="157" d="M449,749.3001 C449,749.3001 449,839.9531 449,839.9531 C449,839.9531 422.308,839.9531 393.114,839.9531 " fill="none" id="Group-backto-Example_DinningTable" style="stroke:#A80036;stroke-width:1.0;"/><polygon fill="none" points="442,749.3001,449,729.3001,456,749.3001,442,749.3001" style="stroke:#A80036;stroke-width:1.0;"/><!--MD5=[be4221f969e834eeec952d766cc4be05]
reverse link Group to Example_AdaptivePlantLight--><path codeLine="158" d="M531.5,749.1731 C531.5,749.1731 531.5,820.3024 531.5,820.3024 " fill="none" id="Group-backto-Example_AdaptivePlantLight" style="stroke:#A80036;stroke-width:1.0;"/><polygon fill="none" points="524.5,749.1741,531.5,729.1731,538.5,749.1731,524.5,749.1741" style="stroke:#A80036;stroke-width:1.0;"/><!--MD5=[65c6df92aa22ade181d7cdba2d7dc96a]
reverse link Scene to Example_CookingScene--><path codeLine="159" d="M133.25,749.1731 C133.25,749.1731 133.25,822.2895 133.25,822.2895 " fill="none" id="Scene-backto-Example_CookingScene" style="stroke:#A80036;stroke-width:1.0;"/><polygon fill="none" points="126.25,749.1741,133.25,729.1731,140.25,749.1731,126.25,749.1741" style="stroke:#A80036;stroke-width:1.0;"/><!--MD5=[d54354760f2ccdf95d38596c8ba9808b]
link SwitchLight to Scene--><!--MD5=[779f136bfd704d2bf9f77a13868e4eb0]
@startuml
' Settings
' ============================

' use +,#,- instead of icons
'skinparam classAttributeIconSize 0

' horizontal distance in px
skinparam nodesep 80 

' vertical distance in px
skinparam ranksep 80

' use only straight lines (ortho/polyline)
skinparam linetype ortho

' title
title 1-2-4 UML Objects



' Abstract Classes
' ============================
class MultipleLightBase{
    -Name: String
    #handle: List<SwitchLight*>
    #configHandle: List<ConfigurableLight*>
    +appendSwitchLight()
    +appendConfigurableLight()
    +setupLights()
    +on()
    +off()
}

class SensorBase{
    -ID: Integer
    -Name: String
    #sampling()
    -notify()
    +attach(Observer)
    +detach(Observer)
}

class TriggerSensor_Base{
    #isPressed()
    '#publishTrigger()
    #state: Bool
}

class SamplingSensor_Base{
    #isNewSample()
    '#publishValues()
}

class ControllerBase{
    +ID: Integer
    #Sample: Generic
    +update()
    -checkSwitch(): Bool
    +activate()
    +deactivate()
    #regulate()
    
}

class ConfigurableLight{
    +configure()
}
' Concrete Classes
' ============================
class SwitchLight{
    -state: on/off
    -brightness: 100, const
    #lightID: Integer
    +switch(state: bool)
}

class DimmLight{
    -brightness: Integer
    +configure()
}

class Group{
    '#setBrightness()
    -brightness: Integer
    ': setBrightness()
    +setupLights(): brightness 
    '#regulate(): brightness
}

class Scene{
    '#setLightConfig()
    -lightSettings: List<lightID, brightness>
    +setupLights(): lightSettings
    '#regulate(): lightSettings
}

class DayLightSensor{
    - Lux: Float
}

class HardwareSwitch{
    
}

class SoftwareButton{
    
}

class Clock{
    -Time: Integer
}

'class GroupController{}

'class SceneController{}

class MainController{
    -controllerList: ControllerBase[1..*]
    +update()
    +schedulingSubController()
    +assignEvents()
}

' Instance Example
' ================================
object Example_DinningTable{
}

object Example_CookingScene{
}

object Example_AdaptivePlantLight{
    #regulate()
}

' Relations
' ================================
DimmLight - -|> SwitchLight  
DimmLight -u-|> ConfigurableLight  
MultipleLightBase "1..*" o-l-> "1..1"SwitchLight

MultipleLightBase <|-d- Scene
MultipleLightBase <|-d- Group
MultipleLightBase -u-|> ControllerBase

MainController "1..*" o-d-> "1..1" ControllerBase
MainController <-r-o SensorBase
ControllerBase <- -o SensorBase

SensorBase <|- - TriggerSensor_Base
SensorBase <|- - SamplingSensor_Base
TriggerSensor_Base <|- - HardwareSwitch
TriggerSensor_Base <|-d- SoftwareButton
SamplingSensor_Base <|- - DayLightSensor
SamplingSensor_Base <|- - Clock

Example_DinningTable -u-|> Group
Example_AdaptivePlantLight -u-|> Group
Example_CookingScene -u-|> Scene

' This is just for better graph allignment
Scene -[hidden]l- SwitchLight
@enduml

@startuml


skinparam nodesep 80 

skinparam ranksep 80

skinparam linetype ortho

title 1-2-4 UML Objects



class MultipleLightBase{
    -Name: String
    #handle: List<SwitchLight*>
    #configHandle: List<ConfigurableLight*>
    +appendSwitchLight()
    +appendConfigurableLight()
    +setupLights()
    +on()
    +off()
}

class SensorBase{
    -ID: Integer
    -Name: String
    #sampling()
    -notify()
    +attach(Observer)
    +detach(Observer)
}

class TriggerSensor_Base{
    #isPressed()
    #state: Bool
}

class SamplingSensor_Base{
    #isNewSample()
}

class ControllerBase{
    +ID: Integer
    #Sample: Generic
    +update()
    -checkSwitch(): Bool
    +activate()
    +deactivate()
    #regulate()
    
}

class ConfigurableLight{
    +configure()
}
class SwitchLight{
    -state: on/off
    -brightness: 100, const
    #lightID: Integer
    +switch(state: bool)
}

class DimmLight{
    -brightness: Integer
    +configure()
}

class Group{
    -brightness: Integer
    +setupLights(): brightness 
}

class Scene{
    -lightSettings: List<lightID, brightness>
    +setupLights(): lightSettings
}

class DayLightSensor{
    - Lux: Float
}

class HardwareSwitch{
    
}

class SoftwareButton{
    
}

class Clock{
    -Time: Integer
}



class MainController{
    -controllerList: ControllerBase[1..*]
    +update()
    +schedulingSubController()
    +assignEvents()
}

object Example_DinningTable{
}

object Example_CookingScene{
}

object Example_AdaptivePlantLight{
    #regulate()
}

DimmLight - -|> SwitchLight  
DimmLight -u-|> ConfigurableLight  
MultipleLightBase "1..*" o-l-> "1..1"SwitchLight

MultipleLightBase <|-d- Scene
MultipleLightBase <|-d- Group
MultipleLightBase -u-|> ControllerBase

MainController "1..*" o-d-> "1..1" ControllerBase
MainController <-r-o SensorBase
ControllerBase <- -o SensorBase

SensorBase <|- - TriggerSensor_Base
SensorBase <|- - SamplingSensor_Base
TriggerSensor_Base <|- - HardwareSwitch
TriggerSensor_Base <|-d- SoftwareButton
SamplingSensor_Base <|- - DayLightSensor
SamplingSensor_Base <|- - Clock

Example_DinningTable -u-|> Group
Example_AdaptivePlantLight -u-|> Group
Example_CookingScene -u-|> Scene

Scene -[hidden]l- SwitchLight
@enduml

PlantUML version 1.2021.15(Tue Nov 30 16:45:34 UTC 2021)
(GPL source distribution)
Java Runtime: Java(TM) SE Runtime Environment
JVM: Java HotSpot(TM) 64-Bit Server VM
Default Encoding: UTF-8
Language: en
Country: US
--></g></svg>