<?xml version="1.0" encoding="UTF-8" standalone="no"?><svg xmlns="http://www.w3.org/2000/svg" xmlns:xlink="http://www.w3.org/1999/xlink" contentScriptType="application/ecmascript" contentStyleType="text/css" height="459px" preserveAspectRatio="none" style="width:737px;height:459px;background:#FFFFFF;" version="1.1" viewBox="0 0 737 459" width="737px" zoomAndPan="magnify"><defs><filter height="300%" id="f1wfge82hlhwnz" width="300%" x="-1" y="-1"><feGaussianBlur result="blurOut" stdDeviation="2.0"/><feColorMatrix in="blurOut" result="blurOut2" type="matrix" values="0 0 0 0 0 0 0 0 0 0 0 0 0 0 0 0 0 0 .4 0"/><feOffset dx="4.0" dy="4.0" in="blurOut2" result="blurOut3"/><feBlend in="SourceGraphic" in2="blurOut3" mode="normal"/></filter></defs><g><text fill="#000000" font-family="sans-serif" font-size="18" lengthAdjust="spacing" textLength="174" x="275.25" y="16.708">1-2-3 Light Groups</text><!--MD5=[c46ae90ce51194a21ad024ae1dce56fb]
class MultipleLightBase--><rect codeLine="23" fill="#FEFECE" filter="url(#f1wfge82hlhwnz)" height="150.4375" id="MultipleLightBase" style="stroke:#A80036;stroke-width:1.5;" width="249" x="474.5" y="27.9531"/><ellipse cx="542.75" cy="43.9531" fill="#ADD1B2" rx="11" ry="11" style="stroke:#A80036;stroke-width:1.0;"/><path d="M545.0938,39.625 C544.1563,39.1875 543.5625,39.0469 542.6875,39.0469 C540.0625,39.0469 538.0625,41.125 538.0625,43.8438 L538.0625,44.9688 C538.0625,47.5469 540.1719,49.4375 543.0625,49.4375 C544.2813,49.4375 545.4375,49.1406 546.1875,48.5938 C546.7656,48.1875 547.0938,47.7344 547.0938,47.3438 C547.0938,46.8906 546.7031,46.5 546.2344,46.5 C546.0156,46.5 545.8125,46.5781 545.625,46.7656 C545.1719,47.25 545.1719,47.25 544.9844,47.3438 C544.5625,47.6094 543.875,47.7344 543.1094,47.7344 C541.0625,47.7344 539.7656,46.6406 539.7656,44.9375 L539.7656,43.8438 C539.7656,42.0625 541.0156,40.75 542.75,40.75 C543.3281,40.75 543.9375,40.9063 544.4063,41.1563 C544.8906,41.4375 545.0625,41.6563 545.1563,42.0625 C545.2188,42.4688 545.25,42.5938 545.3906,42.7188 C545.5313,42.8594 545.7656,42.9688 545.9844,42.9688 C546.25,42.9688 546.5156,42.8281 546.6875,42.6094 C546.7969,42.4531 546.8281,42.2656 546.8281,41.8438 L546.8281,40.4219 C546.8281,39.9844 546.8125,39.8594 546.7188,39.7031 C546.5625,39.4375 546.2813,39.2969 545.9844,39.2969 C545.6875,39.2969 545.4844,39.3906 545.2656,39.7031 L545.0938,39.625 Z " fill="#000000"/><text fill="#000000" font-family="sans-serif" font-size="12" lengthAdjust="spacing" textLength="104" x="563.25" y="48.1074">MultipleLightBase</text><line style="stroke:#A80036;stroke-width:1.5;" x1="475.5" x2="722.5" y1="59.9531" y2="59.9531"/><rect fill="none" height="6" style="stroke:#C82930;stroke-width:1.0;" width="6" x="482.5" y="67.9531"/><text fill="#000000" font-family="sans-serif" font-size="11" lengthAdjust="spacing" textLength="74" x="494.5" y="74.1636">Name: String</text><polygon fill="none" points="485.5,78.7578,489.5,82.7578,485.5,86.7578,481.5,82.7578" style="stroke:#B38D22;stroke-width:1.0;"/><text fill="#000000" font-family="sans-serif" font-size="11" lengthAdjust="spacing" textLength="153" x="494.5" y="86.9683">handle: List&lt;SwitchLight*&gt;</text><polygon fill="none" points="485.5,91.5625,489.5,95.5625,485.5,99.5625,481.5,95.5625" style="stroke:#B38D22;stroke-width:1.0;"/><text fill="#000000" font-family="sans-serif" font-size="11" lengthAdjust="spacing" textLength="223" x="494.5" y="99.7729">configHandle: List&lt;ConfigurableLight*&gt;</text><line style="stroke:#A80036;stroke-width:1.5;" x1="475.5" x2="722.5" y1="106.3672" y2="106.3672"/><ellipse cx="485.5" cy="117.3672" fill="#84BE84" rx="3" ry="3" style="stroke:#038048;stroke-width:1.0;"/><text fill="#000000" font-family="sans-serif" font-size="11" lengthAdjust="spacing" textLength="115" x="494.5" y="120.5776">appendSwitchLight()</text><ellipse cx="485.5" cy="130.1719" fill="#84BE84" rx="3" ry="3" style="stroke:#038048;stroke-width:1.0;"/><text fill="#000000" font-family="sans-serif" font-size="11" lengthAdjust="spacing" textLength="150" x="494.5" y="133.3823">appendConfigurableLight()</text><ellipse cx="485.5" cy="142.9766" fill="#84BE84" rx="3" ry="3" style="stroke:#038048;stroke-width:1.0;"/><text fill="#000000" font-family="sans-serif" font-size="11" lengthAdjust="spacing" textLength="73" x="494.5" y="146.187">setupLights()</text><ellipse cx="485.5" cy="155.7813" fill="#84BE84" rx="3" ry="3" style="stroke:#038048;stroke-width:1.0;"/><text fill="#000000" font-family="sans-serif" font-size="11" lengthAdjust="spacing" textLength="22" x="494.5" y="158.9917">on()</text><ellipse cx="485.5" cy="168.5859" fill="#84BE84" rx="3" ry="3" style="stroke:#038048;stroke-width:1.0;"/><text fill="#000000" font-family="sans-serif" font-size="11" lengthAdjust="spacing" textLength="23" x="494.5" y="171.7964">off()</text><!--MD5=[87bfd90d1020d53ed2973905772335ab]
class ConfigurableLight--><rect codeLine="34" fill="#FEFECE" filter="url(#f1wfge82hlhwnz)" height="60.8047" id="ConfigurableLight" style="stroke:#A80036;stroke-width:1.5;" width="136" x="7" y="264.4531"/><ellipse cx="22" cy="280.4531" fill="#ADD1B2" rx="11" ry="11" style="stroke:#A80036;stroke-width:1.0;"/><path d="M24.3438,276.125 C23.4063,275.6875 22.8125,275.5469 21.9375,275.5469 C19.3125,275.5469 17.3125,277.625 17.3125,280.3438 L17.3125,281.4688 C17.3125,284.0469 19.4219,285.9375 22.3125,285.9375 C23.5313,285.9375 24.6875,285.6406 25.4375,285.0938 C26.0156,284.6875 26.3438,284.2344 26.3438,283.8438 C26.3438,283.3906 25.9531,283 25.4844,283 C25.2656,283 25.0625,283.0781 24.875,283.2656 C24.4219,283.75 24.4219,283.75 24.2344,283.8438 C23.8125,284.1094 23.125,284.2344 22.3594,284.2344 C20.3125,284.2344 19.0156,283.1406 19.0156,281.4375 L19.0156,280.3438 C19.0156,278.5625 20.2656,277.25 22,277.25 C22.5781,277.25 23.1875,277.4063 23.6563,277.6563 C24.1406,277.9375 24.3125,278.1563 24.4063,278.5625 C24.4688,278.9688 24.5,279.0938 24.6406,279.2188 C24.7813,279.3594 25.0156,279.4688 25.2344,279.4688 C25.5,279.4688 25.7656,279.3281 25.9375,279.1094 C26.0469,278.9531 26.0781,278.7656 26.0781,278.3438 L26.0781,276.9219 C26.0781,276.4844 26.0625,276.3594 25.9688,276.2031 C25.8125,275.9375 25.5313,275.7969 25.2344,275.7969 C24.9375,275.7969 24.7344,275.8906 24.5156,276.2031 L24.3438,276.125 Z " fill="#000000"/><text fill="#000000" font-family="sans-serif" font-size="12" lengthAdjust="spacing" textLength="104" x="36" y="284.6074">ConfigurableLight</text><line style="stroke:#A80036;stroke-width:1.5;" x1="8" x2="142" y1="296.4531" y2="296.4531"/><line style="stroke:#A80036;stroke-width:1.5;" x1="8" x2="142" y1="304.4531" y2="304.4531"/><ellipse cx="18" cy="315.4531" fill="#84BE84" rx="3" ry="3" style="stroke:#038048;stroke-width:1.0;"/><text fill="#000000" font-family="sans-serif" font-size="11" lengthAdjust="spacing" textLength="61" x="27" y="318.6636">configure()</text><!--MD5=[999e49f72af8639b360af99f8c1ff713]
class SwitchLight--><rect codeLine="41" fill="#FEFECE" filter="url(#f1wfge82hlhwnz)" height="86.4141" id="SwitchLight" style="stroke:#A80036;stroke-width:1.5;" width="129" x="265.5" y="59.9531"/><ellipse cx="294" cy="75.9531" fill="#ADD1B2" rx="11" ry="11" style="stroke:#A80036;stroke-width:1.0;"/><path d="M296.3438,71.625 C295.4063,71.1875 294.8125,71.0469 293.9375,71.0469 C291.3125,71.0469 289.3125,73.125 289.3125,75.8438 L289.3125,76.9688 C289.3125,79.5469 291.4219,81.4375 294.3125,81.4375 C295.5313,81.4375 296.6875,81.1406 297.4375,80.5938 C298.0156,80.1875 298.3438,79.7344 298.3438,79.3438 C298.3438,78.8906 297.9531,78.5 297.4844,78.5 C297.2656,78.5 297.0625,78.5781 296.875,78.7656 C296.4219,79.25 296.4219,79.25 296.2344,79.3438 C295.8125,79.6094 295.125,79.7344 294.3594,79.7344 C292.3125,79.7344 291.0156,78.6406 291.0156,76.9375 L291.0156,75.8438 C291.0156,74.0625 292.2656,72.75 294,72.75 C294.5781,72.75 295.1875,72.9063 295.6563,73.1563 C296.1406,73.4375 296.3125,73.6563 296.4063,74.0625 C296.4688,74.4688 296.5,74.5938 296.6406,74.7188 C296.7813,74.8594 297.0156,74.9688 297.2344,74.9688 C297.5,74.9688 297.7656,74.8281 297.9375,74.6094 C298.0469,74.4531 298.0781,74.2656 298.0781,73.8438 L298.0781,72.4219 C298.0781,71.9844 298.0625,71.8594 297.9688,71.7031 C297.8125,71.4375 297.5313,71.2969 297.2344,71.2969 C296.9375,71.2969 296.7344,71.3906 296.5156,71.7031 L296.3438,71.625 Z " fill="#000000"/><text fill="#000000" font-family="sans-serif" font-size="12" lengthAdjust="spacing" textLength="67" x="311" y="80.1074">SwitchLight</text><line style="stroke:#A80036;stroke-width:1.5;" x1="266.5" x2="393.5" y1="91.9531" y2="91.9531"/><rect fill="none" height="6" style="stroke:#C82930;stroke-width:1.0;" width="6" x="273.5" y="99.9531"/><text fill="#000000" font-family="sans-serif" font-size="11" lengthAdjust="spacing" textLength="69" x="285.5" y="106.1636">state: on/off</text><polygon fill="none" points="276.5,110.7578,280.5,114.7578,276.5,118.7578,272.5,114.7578" style="stroke:#B38D22;stroke-width:1.0;"/><text fill="#000000" font-family="sans-serif" font-size="11" lengthAdjust="spacing" textLength="84" x="285.5" y="118.9683">lightID: Integer</text><line style="stroke:#A80036;stroke-width:1.5;" x1="266.5" x2="393.5" y1="125.5625" y2="125.5625"/><ellipse cx="276.5" cy="136.5625" fill="#84BE84" rx="3" ry="3" style="stroke:#038048;stroke-width:1.0;"/><text fill="#000000" font-family="sans-serif" font-size="11" lengthAdjust="spacing" textLength="103" x="285.5" y="139.7729">switch(state: bool)</text><!--MD5=[a54edd4c870d7b3a603adac8183ae883]
class DimmLight--><rect codeLine="47" fill="#FEFECE" filter="url(#f1wfge82hlhwnz)" height="73.6094" id="DimmLight" style="stroke:#A80036;stroke-width:1.5;" width="133" x="37.5" y="65.9531"/><ellipse cx="70.05" cy="81.9531" fill="#ADD1B2" rx="11" ry="11" style="stroke:#A80036;stroke-width:1.0;"/><path d="M72.3938,77.625 C71.4563,77.1875 70.8625,77.0469 69.9875,77.0469 C67.3625,77.0469 65.3625,79.125 65.3625,81.8438 L65.3625,82.9688 C65.3625,85.5469 67.4719,87.4375 70.3625,87.4375 C71.5813,87.4375 72.7375,87.1406 73.4875,86.5938 C74.0656,86.1875 74.3938,85.7344 74.3938,85.3438 C74.3938,84.8906 74.0031,84.5 73.5344,84.5 C73.3156,84.5 73.1125,84.5781 72.925,84.7656 C72.4719,85.25 72.4719,85.25 72.2844,85.3438 C71.8625,85.6094 71.175,85.7344 70.4094,85.7344 C68.3625,85.7344 67.0656,84.6406 67.0656,82.9375 L67.0656,81.8438 C67.0656,80.0625 68.3156,78.75 70.05,78.75 C70.6281,78.75 71.2375,78.9063 71.7063,79.1563 C72.1906,79.4375 72.3625,79.6563 72.4563,80.0625 C72.5188,80.4688 72.55,80.5938 72.6906,80.7188 C72.8313,80.8594 73.0656,80.9688 73.2844,80.9688 C73.55,80.9688 73.8156,80.8281 73.9875,80.6094 C74.0969,80.4531 74.1281,80.2656 74.1281,79.8438 L74.1281,78.4219 C74.1281,77.9844 74.1125,77.8594 74.0188,77.7031 C73.8625,77.4375 73.5813,77.2969 73.2844,77.2969 C72.9875,77.2969 72.7844,77.3906 72.5656,77.7031 L72.3938,77.625 Z " fill="#000000"/><text fill="#000000" font-family="sans-serif" font-size="12" lengthAdjust="spacing" textLength="62" x="87.95" y="86.1074">DimmLight</text><line style="stroke:#A80036;stroke-width:1.5;" x1="38.5" x2="169.5" y1="97.9531" y2="97.9531"/><rect fill="none" height="6" style="stroke:#C82930;stroke-width:1.0;" width="6" x="45.5" y="105.9531"/><text fill="#000000" font-family="sans-serif" font-size="11" lengthAdjust="spacing" textLength="107" x="57.5" y="112.1636">brightness: Integer</text><line style="stroke:#A80036;stroke-width:1.5;" x1="38.5" x2="169.5" y1="118.7578" y2="118.7578"/><ellipse cx="48.5" cy="129.7578" fill="#84BE84" rx="3" ry="3" style="stroke:#038048;stroke-width:1.0;"/><text fill="#000000" font-family="sans-serif" font-size="11" lengthAdjust="spacing" textLength="61" x="57.5" y="132.9683">configure()</text><!--MD5=[41314a0efc36828092cff9ebad2fcafd]
class Group--><rect codeLine="52" fill="#FEFECE" filter="url(#f1wfge82hlhwnz)" height="73.6094" id="Group" style="stroke:#A80036;stroke-width:1.5;" width="165" x="546.5" y="257.9531"/><ellipse cx="606.25" cy="273.9531" fill="#ADD1B2" rx="11" ry="11" style="stroke:#A80036;stroke-width:1.0;"/><path d="M608.5938,269.625 C607.6563,269.1875 607.0625,269.0469 606.1875,269.0469 C603.5625,269.0469 601.5625,271.125 601.5625,273.8438 L601.5625,274.9688 C601.5625,277.5469 603.6719,279.4375 606.5625,279.4375 C607.7813,279.4375 608.9375,279.1406 609.6875,278.5938 C610.2656,278.1875 610.5938,277.7344 610.5938,277.3438 C610.5938,276.8906 610.2031,276.5 609.7344,276.5 C609.5156,276.5 609.3125,276.5781 609.125,276.7656 C608.6719,277.25 608.6719,277.25 608.4844,277.3438 C608.0625,277.6094 607.375,277.7344 606.6094,277.7344 C604.5625,277.7344 603.2656,276.6406 603.2656,274.9375 L603.2656,273.8438 C603.2656,272.0625 604.5156,270.75 606.25,270.75 C606.8281,270.75 607.4375,270.9063 607.9063,271.1563 C608.3906,271.4375 608.5625,271.6563 608.6563,272.0625 C608.7188,272.4688 608.75,272.5938 608.8906,272.7188 C609.0313,272.8594 609.2656,272.9688 609.4844,272.9688 C609.75,272.9688 610.0156,272.8281 610.1875,272.6094 C610.2969,272.4531 610.3281,272.2656 610.3281,271.8438 L610.3281,270.4219 C610.3281,269.9844 610.3125,269.8594 610.2188,269.7031 C610.0625,269.4375 609.7813,269.2969 609.4844,269.2969 C609.1875,269.2969 608.9844,269.3906 608.7656,269.7031 L608.5938,269.625 Z " fill="#000000"/><text fill="#000000" font-family="sans-serif" font-size="12" lengthAdjust="spacing" textLength="37" x="626.75" y="278.1074">Group</text><line style="stroke:#A80036;stroke-width:1.5;" x1="547.5" x2="710.5" y1="289.9531" y2="289.9531"/><rect fill="none" height="6" style="stroke:#C82930;stroke-width:1.0;" width="6" x="554.5" y="297.9531"/><text fill="#000000" font-family="sans-serif" font-size="11" lengthAdjust="spacing" textLength="107" x="566.5" y="304.1636">brightness: Integer</text><line style="stroke:#A80036;stroke-width:1.5;" x1="547.5" x2="710.5" y1="310.7578" y2="310.7578"/><ellipse cx="557.5" cy="321.7578" fill="#84BE84" rx="3" ry="3" style="stroke:#038048;stroke-width:1.0;"/><text fill="#000000" font-family="sans-serif" font-size="11" lengthAdjust="spacing" textLength="139" x="566.5" y="324.9683">setupLights(): brightness</text><!--MD5=[e4faacc5b8aef66b11ab0c816bbbc7f8]
class Scene--><rect codeLine="59" fill="#FEFECE" filter="url(#f1wfge82hlhwnz)" height="73.6094" id="Scene" style="stroke:#A80036;stroke-width:1.5;" width="243" x="223.5" y="257.9531"/><ellipse cx="321.75" cy="273.9531" fill="#ADD1B2" rx="11" ry="11" style="stroke:#A80036;stroke-width:1.0;"/><path d="M324.0938,269.625 C323.1563,269.1875 322.5625,269.0469 321.6875,269.0469 C319.0625,269.0469 317.0625,271.125 317.0625,273.8438 L317.0625,274.9688 C317.0625,277.5469 319.1719,279.4375 322.0625,279.4375 C323.2813,279.4375 324.4375,279.1406 325.1875,278.5938 C325.7656,278.1875 326.0938,277.7344 326.0938,277.3438 C326.0938,276.8906 325.7031,276.5 325.2344,276.5 C325.0156,276.5 324.8125,276.5781 324.625,276.7656 C324.1719,277.25 324.1719,277.25 323.9844,277.3438 C323.5625,277.6094 322.875,277.7344 322.1094,277.7344 C320.0625,277.7344 318.7656,276.6406 318.7656,274.9375 L318.7656,273.8438 C318.7656,272.0625 320.0156,270.75 321.75,270.75 C322.3281,270.75 322.9375,270.9063 323.4063,271.1563 C323.8906,271.4375 324.0625,271.6563 324.1563,272.0625 C324.2188,272.4688 324.25,272.5938 324.3906,272.7188 C324.5313,272.8594 324.7656,272.9688 324.9844,272.9688 C325.25,272.9688 325.5156,272.8281 325.6875,272.6094 C325.7969,272.4531 325.8281,272.2656 325.8281,271.8438 L325.8281,270.4219 C325.8281,269.9844 325.8125,269.8594 325.7188,269.7031 C325.5625,269.4375 325.2813,269.2969 324.9844,269.2969 C324.6875,269.2969 324.4844,269.3906 324.2656,269.7031 L324.0938,269.625 Z " fill="#000000"/><text fill="#000000" font-family="sans-serif" font-size="12" lengthAdjust="spacing" textLength="38" x="342.25" y="278.1074">Scene</text><line style="stroke:#A80036;stroke-width:1.5;" x1="224.5" x2="465.5" y1="289.9531" y2="289.9531"/><rect fill="none" height="6" style="stroke:#C82930;stroke-width:1.0;" width="6" x="231.5" y="297.9531"/><text fill="#000000" font-family="sans-serif" font-size="11" lengthAdjust="spacing" textLength="217" x="243.5" y="304.1636">lightSettings: List&lt;lightID, brightness&gt;</text><line style="stroke:#A80036;stroke-width:1.5;" x1="224.5" x2="465.5" y1="310.7578" y2="310.7578"/><ellipse cx="234.5" cy="321.7578" fill="#84BE84" rx="3" ry="3" style="stroke:#038048;stroke-width:1.0;"/><text fill="#000000" font-family="sans-serif" font-size="11" lengthAdjust="spacing" textLength="151" x="243.5" y="324.9683">setupLights(): lightSettings</text><rect fill="#FEFECE" filter="url(#f1wfge82hlhwnz)" height="33.9688" style="stroke:#A80036;stroke-width:1.5;" width="148" x="555" y="411.9531"/><text fill="#000000" font-family="sans-serif" font-size="12" lengthAdjust="spacing" textLength="134" x="562" y="425.0918">Example_DinningTable</text><line style="stroke:#A80036;stroke-width:1.5;" x1="556" x2="702" y1="429.9219" y2="429.9219"/><rect fill="#FEFECE" filter="url(#f1wfge82hlhwnz)" height="33.9688" style="stroke:#A80036;stroke-width:1.5;" width="158" x="266" y="411.9531"/><text fill="#000000" font-family="sans-serif" font-size="12" lengthAdjust="spacing" textLength="144" x="273" y="425.0918">Example_CookingScene</text><line style="stroke:#A80036;stroke-width:1.5;" x1="267" x2="423" y1="429.9219" y2="429.9219"/><!--MD5=[cb01a8692b2cc59b104ca1105e19224b]
link DimmLight to SwitchLight--><path codeLine="76" d="M170.585,102.9531 C170.585,102.9531 245.445,102.9531 245.445,102.9531 " fill="none" id="DimmLight-to-SwitchLight" style="stroke:#A80036;stroke-width:1.0;"/><polygon fill="none" points="245.445,95.9531,265.445,102.9531,245.445,109.9531,245.445,95.9531" style="stroke:#A80036;stroke-width:1.0;"/><!--MD5=[ac963d6a97e6ea215f613040c027a212]
link DimmLight to ConfigurableLight--><path codeLine="77" d="M90.25,139.9731 C90.25,139.9731 90.25,244.3711 90.25,244.3711 " fill="none" id="DimmLight-to-ConfigurableLight" style="stroke:#A80036;stroke-width:1.0;"/><polygon fill="none" points="97.2501,244.3711,90.25,264.3711,83.2501,244.3711,97.2501,244.3711" style="stroke:#A80036;stroke-width:1.0;"/><!--MD5=[6446f8fdd0b8835ccc6a9a22414c0998]
link SwitchLight to MultipleLightBase--><path codeLine="78" d="M406.775,102.9531 C406.775,102.9531 461.471,102.9531 461.471,102.9531 " fill="none" id="SwitchLight-MultipleLightBase" style="stroke:#A80036;stroke-width:1.0;"/><polygon fill="#A80036" points="474.471,102.9531,465.471,98.9531,469.471,102.9531,465.471,106.9531,474.471,102.9531" style="stroke:#A80036;stroke-width:1.0;"/><line style="stroke:#A80036;stroke-width:1.0;" x1="469.471" x2="461.471" y1="102.9531" y2="102.9531"/><polygon fill="#FFFFFF" points="394.775,102.9531,400.775,106.9531,406.775,102.9531,400.775,98.9531,394.775,102.9531" style="stroke:#A80036;stroke-width:1.0;"/><text fill="#000000" font-family="sans-serif" font-size="13" lengthAdjust="spacing" textLength="24" x="442.5779" y="99.5776">1..1</text><text fill="#000000" font-family="sans-serif" font-size="13" lengthAdjust="spacing" textLength="23" x="402.6409" y="99.2321">1..*</text><!--MD5=[6c203e18e9e22b71a7cc0ed3be7dc826]
reverse link MultipleLightBase to Scene--><path codeLine="80" d="M454.332,161.9531 C454.332,161.9531 430.5,161.9531 430.5,161.9531 C430.5,161.9531 430.5,218.5511 430.5,257.9051 " fill="none" id="MultipleLightBase-backto-Scene" style="stroke:#A80036;stroke-width:1.0;"/><polygon fill="none" points="454.332,154.9531,474.332,161.9531,454.331,168.9531,454.332,154.9531" style="stroke:#A80036;stroke-width:1.0;"/><!--MD5=[1a6698b5bd5b3ddc178d7e4b964139e2]
reverse link MultipleLightBase to Group--><path codeLine="81" d="M629,198.0101 C629,198.0101 629,257.7251 629,257.7251 " fill="none" id="MultipleLightBase-backto-Group" style="stroke:#A80036;stroke-width:1.0;"/><polygon fill="none" points="622,198.0101,629,178.0101,636,198.0101,622,198.0101" style="stroke:#A80036;stroke-width:1.0;"/><!--MD5=[9eedb306036ce31a207df431be748e90]
reverse link Group to Example_DinningTable--><path codeLine="84" d="M629,352.2796 C629,352.2796 629,411.7605 629,411.7605 " fill="none" id="Group-backto-Example_DinningTable" style="stroke:#A80036;stroke-width:1.0;"/><polygon fill="none" points="622,352.2796,629,332.2791,636,352.2795,622,352.2796" style="stroke:#A80036;stroke-width:1.0;"/><!--MD5=[65c6df92aa22ade181d7cdba2d7dc96a]
reverse link Scene to Example_CookingScene--><path codeLine="85" d="M345,352.2796 C345,352.2796 345,411.7605 345,411.7605 " fill="none" id="Scene-backto-Example_CookingScene" style="stroke:#A80036;stroke-width:1.0;"/><polygon fill="none" points="338,352.2796,345,332.2791,352,352.2795,338,352.2796" style="stroke:#A80036;stroke-width:1.0;"/><!--MD5=[d54354760f2ccdf95d38596c8ba9808b]
link SwitchLight to Scene--><!--MD5=[9f65cb133122ae5a5d35397fc94e3041]
@startuml
' Settings
' ============================

' use +,#,- instead of icons
'skinparam classAttributeIconSize 0

' horizontal distance in px
skinparam nodesep 80

' vertical distance in px
skinparam ranksep 80

' use only straight lines (ortho/polyline)
skinparam linetype ortho

' title
title 1-2-3 Light Groups



' Abstract Classes
' ============================
class MultipleLightBase{
    -Name: String
    #handle: List<SwitchLight*>
    #configHandle: List<ConfigurableLight*>
    +appendSwitchLight()
    +appendConfigurableLight()
    +setupLights()
    +on()
    +off()
}

class ConfigurableLight{
    +configure()
}


' Concrete Classes
' ============================
class SwitchLight{
    -state: on/off
    #lightID: Integer
    +switch(state: bool)
}

class DimmLight{
    -brightness: Integer
    +configure()
}

class Group{
    '#setBrightness()
    -brightness: Integer
    ': setBrightness()
    +setupLights(): brightness 
}

class Scene{
    '#setLightConfig()
    -lightSettings: List<lightID, brightness>
    +setupLights(): lightSettings
}


' Instance Example
' ================================
object Example_DinningTable{
}

object Example_CookingScene{
}

' Relations
' ================================
DimmLight -r-|> SwitchLight
DimmLight -d-|> ConfigurableLight  
SwitchLight "1..1" o-r-> "1..*" MultipleLightBase

MultipleLightBase <|-d- Scene
MultipleLightBase <|-d- Group


Example_DinningTable -u-|> Group
Example_CookingScene -u-|> Scene

' This is just for better graph allignment
Scene -[hidden]l- SwitchLight
@enduml

@startuml


skinparam nodesep 80

skinparam ranksep 80

skinparam linetype ortho

title 1-2-3 Light Groups



class MultipleLightBase{
    -Name: String
    #handle: List<SwitchLight*>
    #configHandle: List<ConfigurableLight*>
    +appendSwitchLight()
    +appendConfigurableLight()
    +setupLights()
    +on()
    +off()
}

class ConfigurableLight{
    +configure()
}


class SwitchLight{
    -state: on/off
    #lightID: Integer
    +switch(state: bool)
}

class DimmLight{
    -brightness: Integer
    +configure()
}

class Group{
    -brightness: Integer
    +setupLights(): brightness 
}

class Scene{
    -lightSettings: List<lightID, brightness>
    +setupLights(): lightSettings
}


object Example_DinningTable{
}

object Example_CookingScene{
}

DimmLight -r-|> SwitchLight
DimmLight -d-|> ConfigurableLight  
SwitchLight "1..1" o-r-> "1..*" MultipleLightBase

MultipleLightBase <|-d- Scene
MultipleLightBase <|-d- Group


Example_DinningTable -u-|> Group
Example_CookingScene -u-|> Scene

Scene -[hidden]l- SwitchLight
@enduml

PlantUML version 1.2021.15(Tue Nov 30 16:45:34 UTC 2021)
(GPL source distribution)
Java Runtime: Java(TM) SE Runtime Environment
JVM: Java HotSpot(TM) 64-Bit Server VM
Default Encoding: UTF-8
Language: en
Country: US
--></g></svg>