<?xml version="1.0" encoding="UTF-8" standalone="no"?><svg xmlns="http://www.w3.org/2000/svg" xmlns:xlink="http://www.w3.org/1999/xlink" contentScriptType="application/ecmascript" contentStyleType="text/css" height="679px" preserveAspectRatio="none" style="width:1601px;height:679px;background:#FFFFFF;" version="1.1" viewBox="0 0 1601 679" width="1601px" zoomAndPan="magnify"><defs><filter height="300%" id="fsjx0p5z2qrbs" width="300%" x="-1" y="-1"><feGaussianBlur result="blurOut" stdDeviation="2.0"/><feColorMatrix in="blurOut" result="blurOut2" type="matrix" values="0 0 0 0 0 0 0 0 0 0 0 0 0 0 0 0 0 0 .4 0"/><feOffset dx="4.0" dy="4.0" in="blurOut2" result="blurOut3"/><feBlend in="SourceGraphic" in2="blurOut3" mode="normal"/></filter></defs><g><text fill="#000000" font-family="sans-serif" font-size="18" lengthAdjust="spacing" textLength="171" x="708.5" y="16.708">1-2-4 UML Objects</text><!--MD5=[ecb272e4881838f78df2967ad851c814]
class SmartLightBase--><rect codeLine="23" fill="#FEFECE" filter="url(#fsjx0p5z2qrbs)" height="86.4141" id="SmartLightBase" style="stroke:#A80036;stroke-width:1.5;" width="129" x="238.5" y="252.4531"/><ellipse cx="255.3" cy="268.4531" fill="#ADD1B2" rx="11" ry="11" style="stroke:#A80036;stroke-width:1.0;"/><path d="M257.6438,264.125 C256.7063,263.6875 256.1125,263.5469 255.2375,263.5469 C252.6125,263.5469 250.6125,265.625 250.6125,268.3438 L250.6125,269.4688 C250.6125,272.0469 252.7219,273.9375 255.6125,273.9375 C256.8313,273.9375 257.9875,273.6406 258.7375,273.0938 C259.3156,272.6875 259.6438,272.2344 259.6438,271.8438 C259.6438,271.3906 259.2531,271 258.7844,271 C258.5656,271 258.3625,271.0781 258.175,271.2656 C257.7219,271.75 257.7219,271.75 257.5344,271.8438 C257.1125,272.1094 256.425,272.2344 255.6594,272.2344 C253.6125,272.2344 252.3156,271.1406 252.3156,269.4375 L252.3156,268.3438 C252.3156,266.5625 253.5656,265.25 255.3,265.25 C255.8781,265.25 256.4875,265.4063 256.9563,265.6563 C257.4406,265.9375 257.6125,266.1563 257.7063,266.5625 C257.7688,266.9688 257.8,267.0938 257.9406,267.2188 C258.0813,267.3594 258.3156,267.4688 258.5344,267.4688 C258.8,267.4688 259.0656,267.3281 259.2375,267.1094 C259.3469,266.9531 259.3781,266.7656 259.3781,266.3438 L259.3781,264.9219 C259.3781,264.4844 259.3625,264.3594 259.2688,264.2031 C259.1125,263.9375 258.8313,263.7969 258.5344,263.7969 C258.2375,263.7969 258.0344,263.8906 257.8156,264.2031 L257.6438,264.125 Z " fill="#000000"/><text fill="#000000" font-family="sans-serif" font-size="12" lengthAdjust="spacing" textLength="93" x="269.7" y="272.6074">SmartLightBase</text><line style="stroke:#A80036;stroke-width:1.5;" x1="239.5" x2="366.5" y1="284.4531" y2="284.4531"/><rect fill="none" height="6" style="stroke:#C82930;stroke-width:1.0;" width="6" x="246.5" y="292.4531"/><text fill="#000000" font-family="sans-serif" font-size="11" lengthAdjust="spacing" textLength="69" x="258.5" y="298.6636">state: on/off</text><polygon fill="none" points="249.5,303.2578,253.5,307.2578,249.5,311.2578,245.5,307.2578" style="stroke:#B38D22;stroke-width:1.0;"/><text fill="#000000" font-family="sans-serif" font-size="11" lengthAdjust="spacing" textLength="84" x="258.5" y="311.4683">lightID: Integer</text><line style="stroke:#A80036;stroke-width:1.5;" x1="239.5" x2="366.5" y1="318.0625" y2="318.0625"/><ellipse cx="249.5" cy="329.0625" fill="#84BE84" rx="3" ry="3" style="stroke:#038048;stroke-width:1.0;"/><text fill="#000000" font-family="sans-serif" font-size="11" lengthAdjust="spacing" textLength="103" x="258.5" y="332.2729">switch(state: bool)</text><!--MD5=[dbf3b696c7325c93d3b2764e9e544c38]
class ConfigurableLightBase--><rect codeLine="29" fill="#FEFECE" filter="url(#fsjx0p5z2qrbs)" height="60.8047" id="ConfigurableLightBase" style="stroke:#A80036;stroke-width:1.5;" width="166" x="7" y="444.4531"/><ellipse cx="22" cy="460.4531" fill="#ADD1B2" rx="11" ry="11" style="stroke:#A80036;stroke-width:1.0;"/><path d="M24.3438,456.125 C23.4063,455.6875 22.8125,455.5469 21.9375,455.5469 C19.3125,455.5469 17.3125,457.625 17.3125,460.3438 L17.3125,461.4688 C17.3125,464.0469 19.4219,465.9375 22.3125,465.9375 C23.5313,465.9375 24.6875,465.6406 25.4375,465.0938 C26.0156,464.6875 26.3438,464.2344 26.3438,463.8438 C26.3438,463.3906 25.9531,463 25.4844,463 C25.2656,463 25.0625,463.0781 24.875,463.2656 C24.4219,463.75 24.4219,463.75 24.2344,463.8438 C23.8125,464.1094 23.125,464.2344 22.3594,464.2344 C20.3125,464.2344 19.0156,463.1406 19.0156,461.4375 L19.0156,460.3438 C19.0156,458.5625 20.2656,457.25 22,457.25 C22.5781,457.25 23.1875,457.4063 23.6563,457.6563 C24.1406,457.9375 24.3125,458.1563 24.4063,458.5625 C24.4688,458.9688 24.5,459.0938 24.6406,459.2188 C24.7813,459.3594 25.0156,459.4688 25.2344,459.4688 C25.5,459.4688 25.7656,459.3281 25.9375,459.1094 C26.0469,458.9531 26.0781,458.7656 26.0781,458.3438 L26.0781,456.9219 C26.0781,456.4844 26.0625,456.3594 25.9688,456.2031 C25.8125,455.9375 25.5313,455.7969 25.2344,455.7969 C24.9375,455.7969 24.7344,455.8906 24.5156,456.2031 L24.3438,456.125 Z " fill="#000000"/><text fill="#000000" font-family="sans-serif" font-size="12" lengthAdjust="spacing" textLength="134" x="36" y="464.6074">ConfigurableLightBase</text><line style="stroke:#A80036;stroke-width:1.5;" x1="8" x2="172" y1="476.4531" y2="476.4531"/><line style="stroke:#A80036;stroke-width:1.5;" x1="8" x2="172" y1="484.4531" y2="484.4531"/><ellipse cx="18" cy="495.4531" fill="#84BE84" rx="3" ry="3" style="stroke:#038048;stroke-width:1.0;"/><text fill="#000000" font-family="sans-serif" font-size="11" lengthAdjust="spacing" textLength="61" x="27" y="498.6636">configure()</text><!--MD5=[c46ae90ce51194a21ad024ae1dce56fb]
class MultipleLightBase--><rect codeLine="33" fill="#FEFECE" filter="url(#fsjx0p5z2qrbs)" height="124.8281" id="MultipleLightBase" style="stroke:#A80036;stroke-width:1.5;" width="220" x="452" y="232.9531"/><ellipse cx="505.75" cy="248.9531" fill="#ADD1B2" rx="11" ry="11" style="stroke:#A80036;stroke-width:1.0;"/><path d="M508.0938,244.625 C507.1563,244.1875 506.5625,244.0469 505.6875,244.0469 C503.0625,244.0469 501.0625,246.125 501.0625,248.8438 L501.0625,249.9688 C501.0625,252.5469 503.1719,254.4375 506.0625,254.4375 C507.2813,254.4375 508.4375,254.1406 509.1875,253.5938 C509.7656,253.1875 510.0938,252.7344 510.0938,252.3438 C510.0938,251.8906 509.7031,251.5 509.2344,251.5 C509.0156,251.5 508.8125,251.5781 508.625,251.7656 C508.1719,252.25 508.1719,252.25 507.9844,252.3438 C507.5625,252.6094 506.875,252.7344 506.1094,252.7344 C504.0625,252.7344 502.7656,251.6406 502.7656,249.9375 L502.7656,248.8438 C502.7656,247.0625 504.0156,245.75 505.75,245.75 C506.3281,245.75 506.9375,245.9063 507.4063,246.1563 C507.8906,246.4375 508.0625,246.6563 508.1563,247.0625 C508.2188,247.4688 508.25,247.5938 508.3906,247.7188 C508.5313,247.8594 508.7656,247.9688 508.9844,247.9688 C509.25,247.9688 509.5156,247.8281 509.6875,247.6094 C509.7969,247.4531 509.8281,247.2656 509.8281,246.8438 L509.8281,245.4219 C509.8281,244.9844 509.8125,244.8594 509.7188,244.7031 C509.5625,244.4375 509.2813,244.2969 508.9844,244.2969 C508.6875,244.2969 508.4844,244.3906 508.2656,244.7031 L508.0938,244.625 Z " fill="#000000"/><text fill="#000000" font-family="sans-serif" font-size="12" lengthAdjust="spacing" textLength="104" x="526.25" y="253.1074">MultipleLightBase</text><line style="stroke:#A80036;stroke-width:1.5;" x1="453" x2="671" y1="264.9531" y2="264.9531"/><rect fill="none" height="6" style="stroke:#C82930;stroke-width:1.0;" width="6" x="460" y="272.9531"/><text fill="#000000" font-family="sans-serif" font-size="11" lengthAdjust="spacing" textLength="60" x="472" y="279.1636">ID: Integer</text><rect fill="none" height="6" style="stroke:#C82930;stroke-width:1.0;" width="6" x="460" y="285.7578"/><text fill="#000000" font-family="sans-serif" font-size="11" lengthAdjust="spacing" textLength="74" x="472" y="291.9683">Name: String</text><polygon fill="none" points="463,296.5625,467,300.5625,463,304.5625,459,300.5625" style="stroke:#B38D22;stroke-width:1.0;"/><text fill="#000000" font-family="sans-serif" font-size="11" lengthAdjust="spacing" textLength="194" x="472" y="304.7729">lightsHandle: SmartLightBase[1..*]</text><line style="stroke:#A80036;stroke-width:1.5;" x1="453" x2="671" y1="311.3672" y2="311.3672"/><ellipse cx="463" cy="322.3672" fill="#84BE84" rx="3" ry="3" style="stroke:#038048;stroke-width:1.0;"/><text fill="#000000" font-family="sans-serif" font-size="11" lengthAdjust="spacing" textLength="67" x="472" y="325.5776">setupLight()</text><ellipse cx="463" cy="335.1719" fill="#84BE84" rx="3" ry="3" style="stroke:#038048;stroke-width:1.0;"/><text fill="#000000" font-family="sans-serif" font-size="11" lengthAdjust="spacing" textLength="22" x="472" y="338.3823">on()</text><ellipse cx="463" cy="347.9766" fill="#84BE84" rx="3" ry="3" style="stroke:#038048;stroke-width:1.0;"/><text fill="#000000" font-family="sans-serif" font-size="11" lengthAdjust="spacing" textLength="23" x="472" y="351.187">off()</text><!--MD5=[7400da8a0c24ae3c05718233195d1204]
class SensorBase--><rect codeLine="43" fill="#FEFECE" filter="url(#fsjx0p5z2qrbs)" height="124.8281" id="SensorBase" style="stroke:#A80036;stroke-width:1.5;" width="126" x="1012" y="27.9531"/><ellipse cx="1036.45" cy="43.9531" fill="#ADD1B2" rx="11" ry="11" style="stroke:#A80036;stroke-width:1.0;"/><path d="M1038.7938,39.625 C1037.8563,39.1875 1037.2625,39.0469 1036.3875,39.0469 C1033.7625,39.0469 1031.7625,41.125 1031.7625,43.8438 L1031.7625,44.9688 C1031.7625,47.5469 1033.8719,49.4375 1036.7625,49.4375 C1037.9813,49.4375 1039.1375,49.1406 1039.8875,48.5938 C1040.4656,48.1875 1040.7938,47.7344 1040.7938,47.3438 C1040.7938,46.8906 1040.4031,46.5 1039.9344,46.5 C1039.7156,46.5 1039.5125,46.5781 1039.325,46.7656 C1038.8719,47.25 1038.8719,47.25 1038.6844,47.3438 C1038.2625,47.6094 1037.575,47.7344 1036.8094,47.7344 C1034.7625,47.7344 1033.4656,46.6406 1033.4656,44.9375 L1033.4656,43.8438 C1033.4656,42.0625 1034.7156,40.75 1036.45,40.75 C1037.0281,40.75 1037.6375,40.9063 1038.1063,41.1563 C1038.5906,41.4375 1038.7625,41.6563 1038.8563,42.0625 C1038.9188,42.4688 1038.95,42.5938 1039.0906,42.7188 C1039.2313,42.8594 1039.4656,42.9688 1039.6844,42.9688 C1039.95,42.9688 1040.2156,42.8281 1040.3875,42.6094 C1040.4969,42.4531 1040.5281,42.2656 1040.5281,41.8438 L1040.5281,40.4219 C1040.5281,39.9844 1040.5125,39.8594 1040.4188,39.7031 C1040.2625,39.4375 1039.9813,39.2969 1039.6844,39.2969 C1039.3875,39.2969 1039.1844,39.3906 1038.9656,39.7031 L1038.7938,39.625 Z " fill="#000000"/><text fill="#000000" font-family="sans-serif" font-size="12" lengthAdjust="spacing" textLength="73" x="1052.55" y="48.1074">SensorBase</text><line style="stroke:#A80036;stroke-width:1.5;" x1="1013" x2="1137" y1="59.9531" y2="59.9531"/><rect fill="none" height="6" style="stroke:#C82930;stroke-width:1.0;" width="6" x="1020" y="67.9531"/><text fill="#000000" font-family="sans-serif" font-size="11" lengthAdjust="spacing" textLength="60" x="1032" y="74.1636">ID: Integer</text><rect fill="none" height="6" style="stroke:#C82930;stroke-width:1.0;" width="6" x="1020" y="80.7578"/><text fill="#000000" font-family="sans-serif" font-size="11" lengthAdjust="spacing" textLength="74" x="1032" y="86.9683">Name: String</text><line style="stroke:#A80036;stroke-width:1.5;" x1="1013" x2="1137" y1="93.5625" y2="93.5625"/><polygon fill="#FFFF44" points="1023,99.5625,1027,103.5625,1023,107.5625,1019,103.5625" style="stroke:#B38D22;stroke-width:1.0;"/><text fill="#000000" font-family="sans-serif" font-size="11" lengthAdjust="spacing" textLength="59" x="1032" y="107.7729">sampling()</text><rect fill="#F24D5C" height="6" style="stroke:#C82930;stroke-width:1.0;" width="6" x="1020" y="114.3672"/><text fill="#000000" font-family="sans-serif" font-size="11" lengthAdjust="spacing" textLength="40" x="1032" y="120.5776">notify()</text><ellipse cx="1023" cy="130.1719" fill="#84BE84" rx="3" ry="3" style="stroke:#038048;stroke-width:1.0;"/><text fill="#000000" font-family="sans-serif" font-size="11" lengthAdjust="spacing" textLength="96" x="1032" y="133.3823">attach(Observer)</text><ellipse cx="1023" cy="142.9766" fill="#84BE84" rx="3" ry="3" style="stroke:#038048;stroke-width:1.0;"/><text fill="#000000" font-family="sans-serif" font-size="11" lengthAdjust="spacing" textLength="100" x="1032" y="146.187">detach(Observer)</text><!--MD5=[d3822c7e40ce664bf74f666f59564e7b]
class TriggerSensor_Base--><rect codeLine="52" fill="#FEFECE" filter="url(#fsjx0p5z2qrbs)" height="73.6094" id="TriggerSensor_Base" style="stroke:#A80036;stroke-width:1.5;" width="155" x="1240.5" y="258.4531"/><ellipse cx="1255.5" cy="274.4531" fill="#ADD1B2" rx="11" ry="11" style="stroke:#A80036;stroke-width:1.0;"/><path d="M1257.8438,270.125 C1256.9063,269.6875 1256.3125,269.5469 1255.4375,269.5469 C1252.8125,269.5469 1250.8125,271.625 1250.8125,274.3438 L1250.8125,275.4688 C1250.8125,278.0469 1252.9219,279.9375 1255.8125,279.9375 C1257.0313,279.9375 1258.1875,279.6406 1258.9375,279.0938 C1259.5156,278.6875 1259.8438,278.2344 1259.8438,277.8438 C1259.8438,277.3906 1259.4531,277 1258.9844,277 C1258.7656,277 1258.5625,277.0781 1258.375,277.2656 C1257.9219,277.75 1257.9219,277.75 1257.7344,277.8438 C1257.3125,278.1094 1256.625,278.2344 1255.8594,278.2344 C1253.8125,278.2344 1252.5156,277.1406 1252.5156,275.4375 L1252.5156,274.3438 C1252.5156,272.5625 1253.7656,271.25 1255.5,271.25 C1256.0781,271.25 1256.6875,271.4063 1257.1563,271.6563 C1257.6406,271.9375 1257.8125,272.1563 1257.9063,272.5625 C1257.9688,272.9688 1258,273.0938 1258.1406,273.2188 C1258.2813,273.3594 1258.5156,273.4688 1258.7344,273.4688 C1259,273.4688 1259.2656,273.3281 1259.4375,273.1094 C1259.5469,272.9531 1259.5781,272.7656 1259.5781,272.3438 L1259.5781,270.9219 C1259.5781,270.4844 1259.5625,270.3594 1259.4688,270.2031 C1259.3125,269.9375 1259.0313,269.7969 1258.7344,269.7969 C1258.4375,269.7969 1258.2344,269.8906 1258.0156,270.2031 L1257.8438,270.125 Z " fill="#000000"/><text fill="#000000" font-family="sans-serif" font-size="12" lengthAdjust="spacing" textLength="123" x="1269.5" y="278.6074">TriggerSensor_Base</text><line style="stroke:#A80036;stroke-width:1.5;" x1="1241.5" x2="1394.5" y1="290.4531" y2="290.4531"/><polygon fill="none" points="1251.5,296.4531,1255.5,300.4531,1251.5,304.4531,1247.5,300.4531" style="stroke:#B38D22;stroke-width:1.0;"/><text fill="#000000" font-family="sans-serif" font-size="11" lengthAdjust="spacing" textLength="60" x="1260.5" y="304.6636">state: bool</text><line style="stroke:#A80036;stroke-width:1.5;" x1="1241.5" x2="1394.5" y1="311.2578" y2="311.2578"/><polygon fill="#FFFF44" points="1251.5,317.2578,1255.5,321.2578,1251.5,325.2578,1247.5,321.2578" style="stroke:#B38D22;stroke-width:1.0;"/><text fill="#000000" font-family="sans-serif" font-size="11" lengthAdjust="spacing" textLength="62" x="1260.5" y="325.4683">isPressed()</text><!--MD5=[8f52c63a08f7cb65f8b754ebca7a4a87]
class SamplingSensor_Base--><rect codeLine="58" fill="#FEFECE" filter="url(#fsjx0p5z2qrbs)" height="60.8047" id="SamplingSensor_Base" style="stroke:#A80036;stroke-width:1.5;" width="166" x="992" y="264.9531"/><ellipse cx="1007" cy="280.9531" fill="#ADD1B2" rx="11" ry="11" style="stroke:#A80036;stroke-width:1.0;"/><path d="M1009.3438,276.625 C1008.4063,276.1875 1007.8125,276.0469 1006.9375,276.0469 C1004.3125,276.0469 1002.3125,278.125 1002.3125,280.8438 L1002.3125,281.9688 C1002.3125,284.5469 1004.4219,286.4375 1007.3125,286.4375 C1008.5313,286.4375 1009.6875,286.1406 1010.4375,285.5938 C1011.0156,285.1875 1011.3438,284.7344 1011.3438,284.3438 C1011.3438,283.8906 1010.9531,283.5 1010.4844,283.5 C1010.2656,283.5 1010.0625,283.5781 1009.875,283.7656 C1009.4219,284.25 1009.4219,284.25 1009.2344,284.3438 C1008.8125,284.6094 1008.125,284.7344 1007.3594,284.7344 C1005.3125,284.7344 1004.0156,283.6406 1004.0156,281.9375 L1004.0156,280.8438 C1004.0156,279.0625 1005.2656,277.75 1007,277.75 C1007.5781,277.75 1008.1875,277.9063 1008.6563,278.1563 C1009.1406,278.4375 1009.3125,278.6563 1009.4063,279.0625 C1009.4688,279.4688 1009.5,279.5938 1009.6406,279.7188 C1009.7813,279.8594 1010.0156,279.9688 1010.2344,279.9688 C1010.5,279.9688 1010.7656,279.8281 1010.9375,279.6094 C1011.0469,279.4531 1011.0781,279.2656 1011.0781,278.8438 L1011.0781,277.4219 C1011.0781,276.9844 1011.0625,276.8594 1010.9688,276.7031 C1010.8125,276.4375 1010.5313,276.2969 1010.2344,276.2969 C1009.9375,276.2969 1009.7344,276.3906 1009.5156,276.7031 L1009.3438,276.625 Z " fill="#000000"/><text fill="#000000" font-family="sans-serif" font-size="12" lengthAdjust="spacing" textLength="134" x="1021" y="285.1074">SamplingSensor_Base</text><line style="stroke:#A80036;stroke-width:1.5;" x1="993" x2="1157" y1="296.9531" y2="296.9531"/><line style="stroke:#A80036;stroke-width:1.5;" x1="993" x2="1157" y1="304.9531" y2="304.9531"/><polygon fill="#FFFF44" points="1003,310.9531,1007,314.9531,1003,318.9531,999,314.9531" style="stroke:#B38D22;stroke-width:1.0;"/><text fill="#000000" font-family="sans-serif" font-size="11" lengthAdjust="spacing" textLength="86" x="1012" y="319.1636">isNewSample()</text><!--MD5=[4867a1bb6ec1ef487bf262ea43213ad2]
class ControllerBase--><rect codeLine="63" fill="#FEFECE" filter="url(#fsjx0p5z2qrbs)" height="86.4141" id="ControllerBase" style="stroke:#A80036;stroke-width:1.5;" width="121" x="760.5" y="252.4531"/><ellipse cx="775.5" cy="268.4531" fill="#ADD1B2" rx="11" ry="11" style="stroke:#A80036;stroke-width:1.0;"/><path d="M777.8438,264.125 C776.9063,263.6875 776.3125,263.5469 775.4375,263.5469 C772.8125,263.5469 770.8125,265.625 770.8125,268.3438 L770.8125,269.4688 C770.8125,272.0469 772.9219,273.9375 775.8125,273.9375 C777.0313,273.9375 778.1875,273.6406 778.9375,273.0938 C779.5156,272.6875 779.8438,272.2344 779.8438,271.8438 C779.8438,271.3906 779.4531,271 778.9844,271 C778.7656,271 778.5625,271.0781 778.375,271.2656 C777.9219,271.75 777.9219,271.75 777.7344,271.8438 C777.3125,272.1094 776.625,272.2344 775.8594,272.2344 C773.8125,272.2344 772.5156,271.1406 772.5156,269.4375 L772.5156,268.3438 C772.5156,266.5625 773.7656,265.25 775.5,265.25 C776.0781,265.25 776.6875,265.4063 777.1563,265.6563 C777.6406,265.9375 777.8125,266.1563 777.9063,266.5625 C777.9688,266.9688 778,267.0938 778.1406,267.2188 C778.2813,267.3594 778.5156,267.4688 778.7344,267.4688 C779,267.4688 779.2656,267.3281 779.4375,267.1094 C779.5469,266.9531 779.5781,266.7656 779.5781,266.3438 L779.5781,264.9219 C779.5781,264.4844 779.5625,264.3594 779.4688,264.2031 C779.3125,263.9375 779.0313,263.7969 778.7344,263.7969 C778.4375,263.7969 778.2344,263.8906 778.0156,264.2031 L777.8438,264.125 Z " fill="#000000"/><text fill="#000000" font-family="sans-serif" font-size="12" lengthAdjust="spacing" textLength="89" x="789.5" y="272.6074">ControllerBase</text><line style="stroke:#A80036;stroke-width:1.5;" x1="761.5" x2="880.5" y1="284.4531" y2="284.4531"/><line style="stroke:#A80036;stroke-width:1.5;" x1="761.5" x2="880.5" y1="292.4531" y2="292.4531"/><ellipse cx="771.5" cy="303.4531" fill="#84BE84" rx="3" ry="3" style="stroke:#038048;stroke-width:1.0;"/><text fill="#000000" font-family="sans-serif" font-size="11" lengthAdjust="spacing" textLength="54" x="780.5" y="306.6636">activate()</text><ellipse cx="771.5" cy="316.2578" fill="#84BE84" rx="3" ry="3" style="stroke:#038048;stroke-width:1.0;"/><text fill="#000000" font-family="sans-serif" font-size="11" lengthAdjust="spacing" textLength="69" x="780.5" y="319.4683">deactivate()</text><ellipse cx="771.5" cy="329.0625" fill="#84BE84" rx="3" ry="3" style="stroke:#038048;stroke-width:1.0;"/><text fill="#000000" font-family="sans-serif" font-size="11" lengthAdjust="spacing" textLength="75" x="780.5" y="332.2729">adjustLights()</text><!--MD5=[999e49f72af8639b360af99f8c1ff713]
class SwitchLight--><rect codeLine="72" fill="#FEFECE" filter="url(#fsjx0p5z2qrbs)" height="48" id="SwitchLight" style="stroke:#A80036;stroke-width:1.5;" width="99" x="253.5" y="450.9531"/><ellipse cx="268.5" cy="466.9531" fill="#ADD1B2" rx="11" ry="11" style="stroke:#A80036;stroke-width:1.0;"/><path d="M270.8438,462.625 C269.9063,462.1875 269.3125,462.0469 268.4375,462.0469 C265.8125,462.0469 263.8125,464.125 263.8125,466.8438 L263.8125,467.9688 C263.8125,470.5469 265.9219,472.4375 268.8125,472.4375 C270.0313,472.4375 271.1875,472.1406 271.9375,471.5938 C272.5156,471.1875 272.8438,470.7344 272.8438,470.3438 C272.8438,469.8906 272.4531,469.5 271.9844,469.5 C271.7656,469.5 271.5625,469.5781 271.375,469.7656 C270.9219,470.25 270.9219,470.25 270.7344,470.3438 C270.3125,470.6094 269.625,470.7344 268.8594,470.7344 C266.8125,470.7344 265.5156,469.6406 265.5156,467.9375 L265.5156,466.8438 C265.5156,465.0625 266.7656,463.75 268.5,463.75 C269.0781,463.75 269.6875,463.9063 270.1563,464.1563 C270.6406,464.4375 270.8125,464.6563 270.9063,465.0625 C270.9688,465.4688 271,465.5938 271.1406,465.7188 C271.2813,465.8594 271.5156,465.9688 271.7344,465.9688 C272,465.9688 272.2656,465.8281 272.4375,465.6094 C272.5469,465.4531 272.5781,465.2656 272.5781,464.8438 L272.5781,463.4219 C272.5781,462.9844 272.5625,462.8594 272.4688,462.7031 C272.3125,462.4375 272.0313,462.2969 271.7344,462.2969 C271.4375,462.2969 271.2344,462.3906 271.0156,462.7031 L270.8438,462.625 Z " fill="#000000"/><text fill="#000000" font-family="sans-serif" font-size="12" lengthAdjust="spacing" textLength="67" x="282.5" y="471.1074">SwitchLight</text><line style="stroke:#A80036;stroke-width:1.5;" x1="254.5" x2="351.5" y1="482.9531" y2="482.9531"/><line style="stroke:#A80036;stroke-width:1.5;" x1="254.5" x2="351.5" y1="490.9531" y2="490.9531"/><!--MD5=[a54edd4c870d7b3a603adac8183ae883]
class DimmLight--><rect codeLine="75" fill="#FEFECE" filter="url(#fsjx0p5z2qrbs)" height="73.6094" id="DimmLight" style="stroke:#A80036;stroke-width:1.5;" width="133" x="23.5" y="591.9531"/><ellipse cx="56.05" cy="607.9531" fill="#ADD1B2" rx="11" ry="11" style="stroke:#A80036;stroke-width:1.0;"/><path d="M58.3938,603.625 C57.4563,603.1875 56.8625,603.0469 55.9875,603.0469 C53.3625,603.0469 51.3625,605.125 51.3625,607.8438 L51.3625,608.9688 C51.3625,611.5469 53.4719,613.4375 56.3625,613.4375 C57.5813,613.4375 58.7375,613.1406 59.4875,612.5938 C60.0656,612.1875 60.3938,611.7344 60.3938,611.3438 C60.3938,610.8906 60.0031,610.5 59.5344,610.5 C59.3156,610.5 59.1125,610.5781 58.925,610.7656 C58.4719,611.25 58.4719,611.25 58.2844,611.3438 C57.8625,611.6094 57.175,611.7344 56.4094,611.7344 C54.3625,611.7344 53.0656,610.6406 53.0656,608.9375 L53.0656,607.8438 C53.0656,606.0625 54.3156,604.75 56.05,604.75 C56.6281,604.75 57.2375,604.9063 57.7063,605.1563 C58.1906,605.4375 58.3625,605.6563 58.4563,606.0625 C58.5188,606.4688 58.55,606.5938 58.6906,606.7188 C58.8313,606.8594 59.0656,606.9688 59.2844,606.9688 C59.55,606.9688 59.8156,606.8281 59.9875,606.6094 C60.0969,606.4531 60.1281,606.2656 60.1281,605.8438 L60.1281,604.4219 C60.1281,603.9844 60.1125,603.8594 60.0188,603.7031 C59.8625,603.4375 59.5813,603.2969 59.2844,603.2969 C58.9875,603.2969 58.7844,603.3906 58.5656,603.7031 L58.3938,603.625 Z " fill="#000000"/><text fill="#000000" font-family="sans-serif" font-size="12" lengthAdjust="spacing" textLength="62" x="73.95" y="612.1074">DimmLight</text><line style="stroke:#A80036;stroke-width:1.5;" x1="24.5" x2="155.5" y1="623.9531" y2="623.9531"/><rect fill="none" height="6" style="stroke:#C82930;stroke-width:1.0;" width="6" x="31.5" y="631.9531"/><text fill="#000000" font-family="sans-serif" font-size="11" lengthAdjust="spacing" textLength="107" x="43.5" y="638.1636">brightness: Integer</text><line style="stroke:#A80036;stroke-width:1.5;" x1="24.5" x2="155.5" y1="644.7578" y2="644.7578"/><ellipse cx="34.5" cy="655.7578" fill="#84BE84" rx="3" ry="3" style="stroke:#038048;stroke-width:1.0;"/><text fill="#000000" font-family="sans-serif" font-size="11" lengthAdjust="spacing" textLength="61" x="43.5" y="658.9683">configure()</text><!--MD5=[41314a0efc36828092cff9ebad2fcafd]
class Group--><rect codeLine="80" fill="#FEFECE" filter="url(#fsjx0p5z2qrbs)" height="73.6094" id="Group" style="stroke:#A80036;stroke-width:1.5;" width="133" x="432.5" y="437.9531"/><ellipse cx="476.3" cy="453.9531" fill="#ADD1B2" rx="11" ry="11" style="stroke:#A80036;stroke-width:1.0;"/><path d="M478.6438,449.625 C477.7063,449.1875 477.1125,449.0469 476.2375,449.0469 C473.6125,449.0469 471.6125,451.125 471.6125,453.8438 L471.6125,454.9688 C471.6125,457.5469 473.7219,459.4375 476.6125,459.4375 C477.8313,459.4375 478.9875,459.1406 479.7375,458.5938 C480.3156,458.1875 480.6438,457.7344 480.6438,457.3438 C480.6438,456.8906 480.2531,456.5 479.7844,456.5 C479.5656,456.5 479.3625,456.5781 479.175,456.7656 C478.7219,457.25 478.7219,457.25 478.5344,457.3438 C478.1125,457.6094 477.425,457.7344 476.6594,457.7344 C474.6125,457.7344 473.3156,456.6406 473.3156,454.9375 L473.3156,453.8438 C473.3156,452.0625 474.5656,450.75 476.3,450.75 C476.8781,450.75 477.4875,450.9063 477.9563,451.1563 C478.4406,451.4375 478.6125,451.6563 478.7063,452.0625 C478.7688,452.4688 478.8,452.5938 478.9406,452.7188 C479.0813,452.8594 479.3156,452.9688 479.5344,452.9688 C479.8,452.9688 480.0656,452.8281 480.2375,452.6094 C480.3469,452.4531 480.3781,452.2656 480.3781,451.8438 L480.3781,450.4219 C480.3781,449.9844 480.3625,449.8594 480.2688,449.7031 C480.1125,449.4375 479.8313,449.2969 479.5344,449.2969 C479.2375,449.2969 479.0344,449.3906 478.8156,449.7031 L478.6438,449.625 Z " fill="#000000"/><text fill="#000000" font-family="sans-serif" font-size="12" lengthAdjust="spacing" textLength="37" x="496.7" y="458.1074">Group</text><line style="stroke:#A80036;stroke-width:1.5;" x1="433.5" x2="564.5" y1="469.9531" y2="469.9531"/><rect fill="none" height="6" style="stroke:#C82930;stroke-width:1.0;" width="6" x="440.5" y="477.9531"/><text fill="#000000" font-family="sans-serif" font-size="11" lengthAdjust="spacing" textLength="107" x="452.5" y="484.1636">brightness: Integer</text><line style="stroke:#A80036;stroke-width:1.5;" x1="433.5" x2="564.5" y1="490.7578" y2="490.7578"/><ellipse cx="443.5" cy="501.7578" fill="#84BE84" rx="3" ry="3" style="stroke:#038048;stroke-width:1.0;"/><text fill="#000000" font-family="sans-serif" font-size="11" lengthAdjust="spacing" textLength="67" x="452.5" y="504.9683">setupLight()</text><!--MD5=[e4faacc5b8aef66b11ab0c816bbbc7f8]
class Scene--><rect codeLine="87" fill="#FEFECE" filter="url(#fsjx0p5z2qrbs)" height="73.6094" id="Scene" style="stroke:#A80036;stroke-width:1.5;" width="137" x="645.5" y="437.9531"/><ellipse cx="690.75" cy="453.9531" fill="#ADD1B2" rx="11" ry="11" style="stroke:#A80036;stroke-width:1.0;"/><path d="M693.0938,449.625 C692.1563,449.1875 691.5625,449.0469 690.6875,449.0469 C688.0625,449.0469 686.0625,451.125 686.0625,453.8438 L686.0625,454.9688 C686.0625,457.5469 688.1719,459.4375 691.0625,459.4375 C692.2813,459.4375 693.4375,459.1406 694.1875,458.5938 C694.7656,458.1875 695.0938,457.7344 695.0938,457.3438 C695.0938,456.8906 694.7031,456.5 694.2344,456.5 C694.0156,456.5 693.8125,456.5781 693.625,456.7656 C693.1719,457.25 693.1719,457.25 692.9844,457.3438 C692.5625,457.6094 691.875,457.7344 691.1094,457.7344 C689.0625,457.7344 687.7656,456.6406 687.7656,454.9375 L687.7656,453.8438 C687.7656,452.0625 689.0156,450.75 690.75,450.75 C691.3281,450.75 691.9375,450.9063 692.4063,451.1563 C692.8906,451.4375 693.0625,451.6563 693.1563,452.0625 C693.2188,452.4688 693.25,452.5938 693.3906,452.7188 C693.5313,452.8594 693.7656,452.9688 693.9844,452.9688 C694.25,452.9688 694.5156,452.8281 694.6875,452.6094 C694.7969,452.4531 694.8281,452.2656 694.8281,451.8438 L694.8281,450.4219 C694.8281,449.9844 694.8125,449.8594 694.7188,449.7031 C694.5625,449.4375 694.2813,449.2969 693.9844,449.2969 C693.6875,449.2969 693.4844,449.3906 693.2656,449.7031 L693.0938,449.625 Z " fill="#000000"/><text fill="#000000" font-family="sans-serif" font-size="12" lengthAdjust="spacing" textLength="38" x="711.25" y="458.1074">Scene</text><line style="stroke:#A80036;stroke-width:1.5;" x1="646.5" x2="781.5" y1="469.9531" y2="469.9531"/><rect fill="none" height="6" style="stroke:#C82930;stroke-width:1.0;" width="6" x="653.5" y="477.9531"/><text fill="#000000" font-family="sans-serif" font-size="11" lengthAdjust="spacing" textLength="111" x="665.5" y="484.1636">lightSettings: Struct</text><line style="stroke:#A80036;stroke-width:1.5;" x1="646.5" x2="781.5" y1="490.7578" y2="490.7578"/><ellipse cx="656.5" cy="501.7578" fill="#84BE84" rx="3" ry="3" style="stroke:#038048;stroke-width:1.0;"/><text fill="#000000" font-family="sans-serif" font-size="11" lengthAdjust="spacing" textLength="67" x="665.5" y="504.9683">setupLight()</text><!--MD5=[80a979c5cb1fa74e07dd1637efa6e0a9]
class DayLightSensor--><rect codeLine="93" fill="#FEFECE" filter="url(#fsjx0p5z2qrbs)" height="60.8047" id="DayLightSensor" style="stroke:#A80036;stroke-width:1.5;" width="126" x="863" y="444.4531"/><ellipse cx="878" cy="460.4531" fill="#ADD1B2" rx="11" ry="11" style="stroke:#A80036;stroke-width:1.0;"/><path d="M880.3438,456.125 C879.4063,455.6875 878.8125,455.5469 877.9375,455.5469 C875.3125,455.5469 873.3125,457.625 873.3125,460.3438 L873.3125,461.4688 C873.3125,464.0469 875.4219,465.9375 878.3125,465.9375 C879.5313,465.9375 880.6875,465.6406 881.4375,465.0938 C882.0156,464.6875 882.3438,464.2344 882.3438,463.8438 C882.3438,463.3906 881.9531,463 881.4844,463 C881.2656,463 881.0625,463.0781 880.875,463.2656 C880.4219,463.75 880.4219,463.75 880.2344,463.8438 C879.8125,464.1094 879.125,464.2344 878.3594,464.2344 C876.3125,464.2344 875.0156,463.1406 875.0156,461.4375 L875.0156,460.3438 C875.0156,458.5625 876.2656,457.25 878,457.25 C878.5781,457.25 879.1875,457.4063 879.6563,457.6563 C880.1406,457.9375 880.3125,458.1563 880.4063,458.5625 C880.4688,458.9688 880.5,459.0938 880.6406,459.2188 C880.7813,459.3594 881.0156,459.4688 881.2344,459.4688 C881.5,459.4688 881.7656,459.3281 881.9375,459.1094 C882.0469,458.9531 882.0781,458.7656 882.0781,458.3438 L882.0781,456.9219 C882.0781,456.4844 882.0625,456.3594 881.9688,456.2031 C881.8125,455.9375 881.5313,455.7969 881.2344,455.7969 C880.9375,455.7969 880.7344,455.8906 880.5156,456.2031 L880.3438,456.125 Z " fill="#000000"/><text fill="#000000" font-family="sans-serif" font-size="12" lengthAdjust="spacing" textLength="94" x="892" y="464.6074">DayLightSensor</text><line style="stroke:#A80036;stroke-width:1.5;" x1="864" x2="988" y1="476.4531" y2="476.4531"/><rect fill="none" height="6" style="stroke:#C82930;stroke-width:1.0;" width="6" x="871" y="484.4531"/><text fill="#000000" font-family="sans-serif" font-size="11" lengthAdjust="spacing" textLength="54" x="883" y="490.6636">Lux: Float</text><line style="stroke:#A80036;stroke-width:1.5;" x1="864" x2="988" y1="497.2578" y2="497.2578"/><!--MD5=[79d86d11b376658584aaf6110ce7a55f]
class HardwareSwitch--><rect codeLine="97" fill="#FEFECE" filter="url(#fsjx0p5z2qrbs)" height="48" id="HardwareSwitch" style="stroke:#A80036;stroke-width:1.5;" width="130" x="1253" y="450.9531"/><ellipse cx="1268" cy="466.9531" fill="#ADD1B2" rx="11" ry="11" style="stroke:#A80036;stroke-width:1.0;"/><path d="M1270.3438,462.625 C1269.4063,462.1875 1268.8125,462.0469 1267.9375,462.0469 C1265.3125,462.0469 1263.3125,464.125 1263.3125,466.8438 L1263.3125,467.9688 C1263.3125,470.5469 1265.4219,472.4375 1268.3125,472.4375 C1269.5313,472.4375 1270.6875,472.1406 1271.4375,471.5938 C1272.0156,471.1875 1272.3438,470.7344 1272.3438,470.3438 C1272.3438,469.8906 1271.9531,469.5 1271.4844,469.5 C1271.2656,469.5 1271.0625,469.5781 1270.875,469.7656 C1270.4219,470.25 1270.4219,470.25 1270.2344,470.3438 C1269.8125,470.6094 1269.125,470.7344 1268.3594,470.7344 C1266.3125,470.7344 1265.0156,469.6406 1265.0156,467.9375 L1265.0156,466.8438 C1265.0156,465.0625 1266.2656,463.75 1268,463.75 C1268.5781,463.75 1269.1875,463.9063 1269.6563,464.1563 C1270.1406,464.4375 1270.3125,464.6563 1270.4063,465.0625 C1270.4688,465.4688 1270.5,465.5938 1270.6406,465.7188 C1270.7813,465.8594 1271.0156,465.9688 1271.2344,465.9688 C1271.5,465.9688 1271.7656,465.8281 1271.9375,465.6094 C1272.0469,465.4531 1272.0781,465.2656 1272.0781,464.8438 L1272.0781,463.4219 C1272.0781,462.9844 1272.0625,462.8594 1271.9688,462.7031 C1271.8125,462.4375 1271.5313,462.2969 1271.2344,462.2969 C1270.9375,462.2969 1270.7344,462.3906 1270.5156,462.7031 L1270.3438,462.625 Z " fill="#000000"/><text fill="#000000" font-family="sans-serif" font-size="12" lengthAdjust="spacing" textLength="98" x="1282" y="471.1074">HardwareSwitch</text><line style="stroke:#A80036;stroke-width:1.5;" x1="1254" x2="1382" y1="482.9531" y2="482.9531"/><line style="stroke:#A80036;stroke-width:1.5;" x1="1254" x2="1382" y1="490.9531" y2="490.9531"/><!--MD5=[e693a0ef36dc6bb4f0b0773d300e137a]
class SoftwareButton--><rect codeLine="101" fill="#FEFECE" filter="url(#fsjx0p5z2qrbs)" height="48" id="SoftwareButton" style="stroke:#A80036;stroke-width:1.5;" width="124" x="1463" y="450.9531"/><ellipse cx="1478" cy="466.9531" fill="#ADD1B2" rx="11" ry="11" style="stroke:#A80036;stroke-width:1.0;"/><path d="M1480.3438,462.625 C1479.4063,462.1875 1478.8125,462.0469 1477.9375,462.0469 C1475.3125,462.0469 1473.3125,464.125 1473.3125,466.8438 L1473.3125,467.9688 C1473.3125,470.5469 1475.4219,472.4375 1478.3125,472.4375 C1479.5313,472.4375 1480.6875,472.1406 1481.4375,471.5938 C1482.0156,471.1875 1482.3438,470.7344 1482.3438,470.3438 C1482.3438,469.8906 1481.9531,469.5 1481.4844,469.5 C1481.2656,469.5 1481.0625,469.5781 1480.875,469.7656 C1480.4219,470.25 1480.4219,470.25 1480.2344,470.3438 C1479.8125,470.6094 1479.125,470.7344 1478.3594,470.7344 C1476.3125,470.7344 1475.0156,469.6406 1475.0156,467.9375 L1475.0156,466.8438 C1475.0156,465.0625 1476.2656,463.75 1478,463.75 C1478.5781,463.75 1479.1875,463.9063 1479.6563,464.1563 C1480.1406,464.4375 1480.3125,464.6563 1480.4063,465.0625 C1480.4688,465.4688 1480.5,465.5938 1480.6406,465.7188 C1480.7813,465.8594 1481.0156,465.9688 1481.2344,465.9688 C1481.5,465.9688 1481.7656,465.8281 1481.9375,465.6094 C1482.0469,465.4531 1482.0781,465.2656 1482.0781,464.8438 L1482.0781,463.4219 C1482.0781,462.9844 1482.0625,462.8594 1481.9688,462.7031 C1481.8125,462.4375 1481.5313,462.2969 1481.2344,462.2969 C1480.9375,462.2969 1480.7344,462.3906 1480.5156,462.7031 L1480.3438,462.625 Z " fill="#000000"/><text fill="#000000" font-family="sans-serif" font-size="12" lengthAdjust="spacing" textLength="92" x="1492" y="471.1074">SoftwareButton</text><line style="stroke:#A80036;stroke-width:1.5;" x1="1464" x2="1586" y1="482.9531" y2="482.9531"/><line style="stroke:#A80036;stroke-width:1.5;" x1="1464" x2="1586" y1="490.9531" y2="490.9531"/><!--MD5=[c053a105bcf153d42bf1c80326010135]
class Clock--><rect codeLine="105" fill="#FEFECE" filter="url(#fsjx0p5z2qrbs)" height="60.8047" id="Clock" style="stroke:#A80036;stroke-width:1.5;" width="103" x="1069.5" y="444.4531"/><ellipse cx="1101.6" cy="460.4531" fill="#ADD1B2" rx="11" ry="11" style="stroke:#A80036;stroke-width:1.0;"/><path d="M1103.9438,456.125 C1103.0063,455.6875 1102.4125,455.5469 1101.5375,455.5469 C1098.9125,455.5469 1096.9125,457.625 1096.9125,460.3438 L1096.9125,461.4688 C1096.9125,464.0469 1099.0219,465.9375 1101.9125,465.9375 C1103.1313,465.9375 1104.2875,465.6406 1105.0375,465.0938 C1105.6156,464.6875 1105.9438,464.2344 1105.9438,463.8438 C1105.9438,463.3906 1105.5531,463 1105.0844,463 C1104.8656,463 1104.6625,463.0781 1104.475,463.2656 C1104.0219,463.75 1104.0219,463.75 1103.8344,463.8438 C1103.4125,464.1094 1102.725,464.2344 1101.9594,464.2344 C1099.9125,464.2344 1098.6156,463.1406 1098.6156,461.4375 L1098.6156,460.3438 C1098.6156,458.5625 1099.8656,457.25 1101.6,457.25 C1102.1781,457.25 1102.7875,457.4063 1103.2563,457.6563 C1103.7406,457.9375 1103.9125,458.1563 1104.0063,458.5625 C1104.0688,458.9688 1104.1,459.0938 1104.2406,459.2188 C1104.3813,459.3594 1104.6156,459.4688 1104.8344,459.4688 C1105.1,459.4688 1105.3656,459.3281 1105.5375,459.1094 C1105.6469,458.9531 1105.6781,458.7656 1105.6781,458.3438 L1105.6781,456.9219 C1105.6781,456.4844 1105.6625,456.3594 1105.5688,456.2031 C1105.4125,455.9375 1105.1313,455.7969 1104.8344,455.7969 C1104.5375,455.7969 1104.3344,455.8906 1104.1156,456.2031 L1103.9438,456.125 Z " fill="#000000"/><text fill="#000000" font-family="sans-serif" font-size="12" lengthAdjust="spacing" textLength="33" x="1119.4" y="464.6074">Clock</text><line style="stroke:#A80036;stroke-width:1.5;" x1="1070.5" x2="1171.5" y1="476.4531" y2="476.4531"/><rect fill="none" height="6" style="stroke:#C82930;stroke-width:1.0;" width="6" x="1077.5" y="484.4531"/><text fill="#000000" font-family="sans-serif" font-size="11" lengthAdjust="spacing" textLength="77" x="1089.5" y="490.6636">Time: Integer</text><line style="stroke:#A80036;stroke-width:1.5;" x1="1070.5" x2="1171.5" y1="497.2578" y2="497.2578"/><!--MD5=[0278646e5a3f51edb25d463fe8c5bfab]
class MainController--><rect codeLine="113" fill="#FEFECE" filter="url(#fsjx0p5z2qrbs)" height="86.4141" id="MainController" style="stroke:#A80036;stroke-width:1.5;" width="216" x="715" y="47.4531"/><ellipse cx="775.75" cy="63.4531" fill="#ADD1B2" rx="11" ry="11" style="stroke:#A80036;stroke-width:1.0;"/><path d="M778.0938,59.125 C777.1563,58.6875 776.5625,58.5469 775.6875,58.5469 C773.0625,58.5469 771.0625,60.625 771.0625,63.3438 L771.0625,64.4688 C771.0625,67.0469 773.1719,68.9375 776.0625,68.9375 C777.2813,68.9375 778.4375,68.6406 779.1875,68.0938 C779.7656,67.6875 780.0938,67.2344 780.0938,66.8438 C780.0938,66.3906 779.7031,66 779.2344,66 C779.0156,66 778.8125,66.0781 778.625,66.2656 C778.1719,66.75 778.1719,66.75 777.9844,66.8438 C777.5625,67.1094 776.875,67.2344 776.1094,67.2344 C774.0625,67.2344 772.7656,66.1406 772.7656,64.4375 L772.7656,63.3438 C772.7656,61.5625 774.0156,60.25 775.75,60.25 C776.3281,60.25 776.9375,60.4063 777.4063,60.6563 C777.8906,60.9375 778.0625,61.1563 778.1563,61.5625 C778.2188,61.9688 778.25,62.0938 778.3906,62.2188 C778.5313,62.3594 778.7656,62.4688 778.9844,62.4688 C779.25,62.4688 779.5156,62.3281 779.6875,62.1094 C779.7969,61.9531 779.8281,61.7656 779.8281,61.3438 L779.8281,59.9219 C779.8281,59.4844 779.8125,59.3594 779.7188,59.2031 C779.5625,58.9375 779.2813,58.7969 778.9844,58.7969 C778.6875,58.7969 778.4844,58.8906 778.2656,59.2031 L778.0938,59.125 Z " fill="#000000"/><text fill="#000000" font-family="sans-serif" font-size="12" lengthAdjust="spacing" textLength="86" x="796.25" y="67.6074">MainController</text><line style="stroke:#A80036;stroke-width:1.5;" x1="716" x2="930" y1="79.4531" y2="79.4531"/><rect fill="none" height="6" style="stroke:#C82930;stroke-width:1.0;" width="6" x="723" y="87.4531"/><text fill="#000000" font-family="sans-serif" font-size="11" lengthAdjust="spacing" textLength="190" x="735" y="93.6636">controllerList: ControllerBase[1..*]</text><line style="stroke:#A80036;stroke-width:1.5;" x1="716" x2="930" y1="100.2578" y2="100.2578"/><ellipse cx="726" cy="111.2578" fill="#84BE84" rx="3" ry="3" style="stroke:#038048;stroke-width:1.0;"/><text fill="#000000" font-family="sans-serif" font-size="11" lengthAdjust="spacing" textLength="48" x="735" y="114.4683">update()</text><ellipse cx="726" cy="124.0625" fill="#84BE84" rx="3" ry="3" style="stroke:#038048;stroke-width:1.0;"/><text fill="#000000" font-family="sans-serif" font-size="11" lengthAdjust="spacing" textLength="146" x="735" y="127.2729">schedulingSubController()</text><!--MD5=[0b0a4e892bb95d0be6608047e55adceb]
reverse link SmartLightBase to SwitchLight--><path codeLine="121" d="M303,358.6001 C303,390.5711 303,427.6181 303,450.9201 " fill="none" id="SmartLightBase-backto-SwitchLight" style="stroke:#A80036;stroke-width:1.0;"/><polygon fill="none" points="296,358.5181,303,338.5181,310,358.5181,296,358.5181" style="stroke:#A80036;stroke-width:1.0;"/><!--MD5=[46941a2ddcdc80d04c2914e453bb0c84]
reverse link SmartLightBase to ConfigurableLightBase--><path codeLine="123" d="M236.76,351.6531 C199.988,382.2961 155.707,419.1971 125.468,444.3961 " fill="none" id="SmartLightBase-backto-ConfigurableLightBase" style="stroke:#A80036;stroke-width:1.0;"/><polygon fill="none" points="232.676,345.9441,252.522,338.5181,241.639,356.6991,232.676,345.9441" style="stroke:#A80036;stroke-width:1.0;"/><!--MD5=[0bfb34a689ae846cf201cc47cb0cbb08]
reverse link ConfigurableLightBase to DimmLight--><path codeLine="124" d="M90,525.8291 C90,547.4091 90,572.1874 90,591.9327 " fill="none" id="ConfigurableLightBase-backto-DimmLight" style="stroke:#A80036;stroke-width:1.0;"/><polygon fill="none" points="83.0001,525.6211,90,505.6211,97.0001,525.6211,83.0001,525.6211" style="stroke:#A80036;stroke-width:1.0;"/><!--MD5=[6c203e18e9e22b71a7cc0ed3be7dc826]
reverse link MultipleLightBase to Scene--><path codeLine="126" d="M627.83,373.3261 C647.036,395.7551 667.125,419.2141 683.07,437.8341 " fill="none" id="MultipleLightBase-backto-Scene" style="stroke:#A80036;stroke-width:1.0;"/><polygon fill="none" points="622.428,377.7801,614.736,358.0361,633.061,368.6741,622.428,377.7801" style="stroke:#A80036;stroke-width:1.0;"/><!--MD5=[1a6698b5bd5b3ddc178d7e4b964139e2]
reverse link MultipleLightBase to Group--><path codeLine="127" d="M533.45,376.8931 C525.879,398.2231 518.079,420.1991 511.82,437.8341 " fill="none" id="MultipleLightBase-backto-Group" style="stroke:#A80036;stroke-width:1.0;"/><polygon fill="none" points="526.856,374.5421,540.142,358.0361,540.049,379.2251,526.856,374.5421" style="stroke:#A80036;stroke-width:1.0;"/><!--MD5=[685ff158b81d42639c37d60750c8fb22]
link SmartLightBase to MultipleLightBase--><path codeLine="130" d="M380.91,295.4531 C400.25,295.4531 439.976,295.4531 439.976,295.4531 " fill="none" id="SmartLightBase-MultipleLightBase" style="stroke:#A80036;stroke-width:1.0;"/><polygon fill="#FFFFFF" points="451.976,295.4531,445.976,291.4531,439.976,295.4531,445.976,299.4531,451.976,295.4531" style="stroke:#A80036;stroke-width:1.0;"/><polygon fill="#A80036" points="367.75,295.4531,376.75,299.4531,372.75,295.4531,376.75,291.4531,367.75,295.4531" style="stroke:#A80036;stroke-width:1.0;"/><line style="stroke:#A80036;stroke-width:1.0;" x1="372.75" x2="380.75" y1="295.4531" y2="295.4531"/><text fill="#000000" font-family="sans-serif" font-size="13" lengthAdjust="spacing" textLength="24" x="375.6648" y="291.7321">1..1</text><text fill="#000000" font-family="sans-serif" font-size="13" lengthAdjust="spacing" textLength="23" x="420.8111" y="292.0263">1..*</text><!--MD5=[e182ec2800077731ec4b05ac74542c77]
reverse link SensorBase to TriggerSensor_Base--><path codeLine="132" d="M1153.76,157.2521 C1193.89,190.7711 1241.14,230.2441 1274.63,258.2241 " fill="none" id="SensorBase-backto-TriggerSensor_Base" style="stroke:#A80036;stroke-width:1.0;"/><polygon fill="none" points="1149.07,162.4531,1138.21,144.2591,1158.05,151.7091,1149.07,162.4531" style="stroke:#A80036;stroke-width:1.0;"/><!--MD5=[327fd8defcd5a0e8f5f74e633b4192be]
reverse link SensorBase to SamplingSensor_Base--><path codeLine="133" d="M1075,173.3281 C1075,205.6051 1075,240.6331 1075,264.6791 " fill="none" id="SensorBase-backto-SamplingSensor_Base" style="stroke:#A80036;stroke-width:1.0;"/><polygon fill="none" points="1068,173.1871,1075,153.1871,1082,173.1861,1068,173.1871" style="stroke:#A80036;stroke-width:1.0;"/><!--MD5=[b6d8123e494df3a217ece147fa744bbd]
reverse link TriggerSensor_Base to HardwareSwitch--><path codeLine="134" d="M1318,352.8561 C1318,386.0321 1318,426.1941 1318,450.9071 " fill="none" id="TriggerSensor_Base-backto-HardwareSwitch" style="stroke:#A80036;stroke-width:1.0;"/><polygon fill="none" points="1311,352.8011,1318,332.8011,1325,352.8011,1311,352.8011" style="stroke:#A80036;stroke-width:1.0;"/><!--MD5=[8450e11ae1255b9519b4209fa8c88537]
reverse link TriggerSensor_Base to SoftwareButton--><path codeLine="135" d="M1375.41,345.6781 C1415.47,380.0321 1467.11,424.3171 1498.06,450.8491 " fill="none" id="TriggerSensor_Base-backto-SoftwareButton" style="stroke:#A80036;stroke-width:1.0;"/><polygon fill="none" points="1370.77,350.9201,1360.14,332.5871,1379.88,340.2921,1370.77,350.9201" style="stroke:#A80036;stroke-width:1.0;"/><!--MD5=[94d6e7c2960564ac6abc44038f6976eb]
reverse link SamplingSensor_Base to DayLightSensor--><path codeLine="136" d="M1037.16,341.5311 C1010.05,373.8261 974.315,416.3971 950.772,444.4421 " fill="none" id="SamplingSensor_Base-backto-DayLightSensor" style="stroke:#A80036;stroke-width:1.0;"/><polygon fill="none" points="1031.84,336.9801,1050.06,326.1631,1042.56,345.9811,1031.84,336.9801" style="stroke:#A80036;stroke-width:1.0;"/><!--MD5=[603ac03cacfab4a195b9fe2bed7909c5]
reverse link SamplingSensor_Base to Clock--><path codeLine="137" d="M1087.73,345.5631 C1095.95,377.3001 1106.38,417.5491 1113.35,444.4421 " fill="none" id="SamplingSensor_Base-backto-Clock" style="stroke:#A80036;stroke-width:1.0;"/><polygon fill="none" points="1080.94,347.2791,1082.7,326.1631,1094.49,343.7671,1080.94,347.2791" style="stroke:#A80036;stroke-width:1.0;"/><!--MD5=[85f7788e801430994acf6cd42f62c0e9]
link MultipleLightBase to ControllerBase--><path codeLine="144" d="M685.154,295.4531 C705.849,295.4531 748.479,295.4531 748.479,295.4531 " fill="none" id="MultipleLightBase-ControllerBase" style="stroke:#A80036;stroke-width:1.0;"/><polygon fill="#A80036" points="760.479,295.4531,754.479,291.4531,748.479,295.4531,754.479,299.4531,760.479,295.4531" style="stroke:#A80036;stroke-width:1.0;"/><polygon fill="#A80036" points="672.024,295.4531,681.024,299.4531,677.024,295.4531,681.024,291.4531,672.024,295.4531" style="stroke:#A80036;stroke-width:1.0;"/><line style="stroke:#A80036;stroke-width:1.0;" x1="677.024" x2="685.024" y1="295.4531" y2="295.4531"/><!--MD5=[571d1242ec1b9a45e65808ec6bc42ab3]
link MainController to ControllerBase--><path codeLine="146" d="M822.4673,145.5145 C822.4673,145.5145 821.826,210.5761 821.543,239.3161 " fill="none" id="MainController-ControllerBase" style="stroke:#A80036;stroke-width:1.0;"/><polygon fill="#A80036" points="821.414,252.4451,825.5028,243.4851,821.4634,247.4454,817.5032,243.406,821.414,252.4451" style="stroke:#A80036;stroke-width:1.0;"/><line style="stroke:#A80036;stroke-width:1.0;" x1="821.4634" x2="821.542" y1="247.4454" y2="239.4461"/><polygon fill="#FFFFFF" points="822.586,133.5151,818.5269,139.4753,822.4673,145.5145,826.5265,139.5544,822.586,133.5151" style="stroke:#A80036;stroke-width:1.0;"/><text fill="#000000" font-family="sans-serif" font-size="13" lengthAdjust="spacing" textLength="24" x="796.5299" y="153.9331">1..1</text><text fill="#000000" font-family="sans-serif" font-size="13" lengthAdjust="spacing" textLength="23" x="796.6472" y="241.4399">1..*</text><!--MD5=[c68215dec0cbba2f871bad97106e9b56]
link MainController to SensorBase--><path codeLine="148" d="M944.498,90.4531 C962.562,90.4531 999.84,90.4531 999.84,90.4531 " fill="none" id="MainController-SensorBase" style="stroke:#A80036;stroke-width:1.0;"/><polygon fill="#FFFFFF" points="1011.84,90.4531,1005.84,86.4531,999.84,90.4531,1005.84,94.4531,1011.84,90.4531" style="stroke:#A80036;stroke-width:1.0;"/><polygon fill="#A80036" points="931.281,90.4531,940.281,94.4531,936.281,90.4531,940.281,86.4531,931.281,90.4531" style="stroke:#A80036;stroke-width:1.0;"/><line style="stroke:#A80036;stroke-width:1.0;" x1="936.281" x2="944.281" y1="90.4531" y2="90.4531"/><!--MD5=[666ee1c68e9db722858d0c677389b655]
@startuml
' Settings
' ============================

' use +,#,- instead of icons
'skinparam classAttributeIconSize 0

' horizontal distance in px
skinparam nodesep 80 

' vertical distance in px
skinparam ranksep 80

' use only straight lines (ortho/polyline)
'skinparam linetype ortho

' title
title 1-2-4 UML Objects



' Abstract Classes
' ============================
class SmartLightBase{
    -state: on/off
    #lightID: Integer
    +switch(state: bool)
}

class ConfigurableLightBase{
    +configure()
}

class MultipleLightBase{
    -ID: Integer
    -Name: String
    #lightsHandle: SmartLightBase[1..*]
    +setupLight()
    +on()
    +off()
    
}

class SensorBase{
    -ID: Integer
    -Name: String
    #sampling()
    -notify()
    +attach(Observer)
    +detach(Observer)
}

class TriggerSensor_Base{
    #isPressed()
    '#publishTrigger()
    #state: bool
}

class SamplingSensor_Base{
    #isNewSample()
    '#publishValues()
}

class ControllerBase{
    +activate()
    +deactivate()
    +adjustLights()
}


' Concrete Classes
' ============================
class SwitchLight{
}

class DimmLight{
    -brightness: Integer
    +configure()
}

class Group{
    '#setBrightness()
    -brightness: Integer
    ': setBrightness()
    +setupLight() 
}

class Scene{
    '#setLightConfig()
    -lightSettings: Struct
    +setupLight()
}

class DayLightSensor{
    - Lux: Float
}

class HardwareSwitch{
    
}

class SoftwareButton{
    
}

class Clock{
    -Time: Integer
}

'class GroupController{}

'class SceneController{}

class MainController{
    -controllerList: ControllerBase[1..*]
    +update()
    +schedulingSubController()
}

' Relations
' ================================
SmartLightBase <|-down- SwitchLight

SmartLightBase <|-down- ConfigurableLightBase
ConfigurableLightBase <|-down- DimmLight

MultipleLightBase <|-d- Scene
MultipleLightBase <|-d- Group


MultipleLightBase "1..*" o-left-> "1..1" SmartLightBase

SensorBase <|- - TriggerSensor_Base
SensorBase <|- - SamplingSensor_Base
TriggerSensor_Base <|- - HardwareSwitch
TriggerSensor_Base <|-d- SoftwareButton
SamplingSensor_Base <|- - DayLightSensor
SamplingSensor_Base <|- - Clock

'MultipleLightBase <-d-* ControllerBase
'ControllerBase <|-d- SceneController
'Group <|- - GroupController
'Scene <|- - SceneController
'ControllerBase <|-d- GroupController
ControllerBase *-l-> MultipleLightBase

ControllerBase "1..*" <-u-o "1..1" MainController

MainController <-r-o SensorBase


' This is just for better graph allignment
'SmartLightBase -[hidden]l-> ConfigurableLightBase
'SwitchLight <-[hidden]r- DimmLight
@enduml

@startuml


skinparam nodesep 80 

skinparam ranksep 80


title 1-2-4 UML Objects



class SmartLightBase{
    -state: on/off
    #lightID: Integer
    +switch(state: bool)
}

class ConfigurableLightBase{
    +configure()
}

class MultipleLightBase{
    -ID: Integer
    -Name: String
    #lightsHandle: SmartLightBase[1..*]
    +setupLight()
    +on()
    +off()
    
}

class SensorBase{
    -ID: Integer
    -Name: String
    #sampling()
    -notify()
    +attach(Observer)
    +detach(Observer)
}

class TriggerSensor_Base{
    #isPressed()
    #state: bool
}

class SamplingSensor_Base{
    #isNewSample()
}

class ControllerBase{
    +activate()
    +deactivate()
    +adjustLights()
}


class SwitchLight{
}

class DimmLight{
    -brightness: Integer
    +configure()
}

class Group{
    -brightness: Integer
    +setupLight() 
}

class Scene{
    -lightSettings: Struct
    +setupLight()
}

class DayLightSensor{
    - Lux: Float
}

class HardwareSwitch{
    
}

class SoftwareButton{
    
}

class Clock{
    -Time: Integer
}



class MainController{
    -controllerList: ControllerBase[1..*]
    +update()
    +schedulingSubController()
}

SmartLightBase <|-down- SwitchLight

SmartLightBase <|-down- ConfigurableLightBase
ConfigurableLightBase <|-down- DimmLight

MultipleLightBase <|-d- Scene
MultipleLightBase <|-d- Group


MultipleLightBase "1..*" o-left-> "1..1" SmartLightBase

SensorBase <|- - TriggerSensor_Base
SensorBase <|- - SamplingSensor_Base
TriggerSensor_Base <|- - HardwareSwitch
TriggerSensor_Base <|-d- SoftwareButton
SamplingSensor_Base <|- - DayLightSensor
SamplingSensor_Base <|- - Clock

ControllerBase *-l-> MultipleLightBase

ControllerBase "1..*" <-u-o "1..1" MainController

MainController <-r-o SensorBase


@enduml

PlantUML version 1.2021.15(Tue Nov 30 16:45:34 UTC 2021)
(GPL source distribution)
Java Runtime: Java(TM) SE Runtime Environment
JVM: Java HotSpot(TM) 64-Bit Server VM
Default Encoding: UTF-8
Language: en
Country: US
--></g></svg>